<?xml version="1.0" standalone="no"?>
<!DOCTYPE svg PUBLIC "-//W3C//DTD SVG 1.1//EN" "http://www.w3.org/Graphics/SVG/1.1/DTD/svg11.dtd" >
<svg xmlns="http://www.w3.org/2000/svg" xmlns:xlink="http://www.w3.org/1999/xlink" version="1.1">
<metadata>
Created by FontForge 20170731 at Mon Jan 23 10:51:45 2023
 By Aleksey,,,
Copyright (c) 2014 by Rui Abreu, Portugal. All rights reserved. Designed by Rui Abreu.
</metadata>
<defs>
<font id="Usual-Light" horiz-adv-x="1286" >
  <font-face 
    font-family="Usual Light"
    font-weight="350"
    font-stretch="normal"
    units-per-em="2048"
    panose-1="2 11 4 3 3 4 3 2 2 4"
    ascent="1536"
    descent="-512"
    x-height="1100"
    cap-height="1573"
    bbox="-289 -410 2607 1948"
    underline-thickness="102"
    underline-position="-307"
    unicode-range="U+000D-FB02"
  />
<missing-glyph horiz-adv-x="1314" 
d="M305 1237l268 268l437 -434l-207 -207l207 -205l-207 -206l207 -205l-271 -271l-434 437l205 204l-205 207l205 205z" />
    <glyph glyph-name="fi" unicode="fi" horiz-adv-x="1153" 
d="M270 0v995h-243v105h243v178q0 155 77 236t222 81q61 0 111 -12v-102q-46 8 -90 8q-109 0 -153 -53t-44 -158v-178h584v-1100h-123v995h-461v-995h-123zM840 1423v150h151v-150h-151z" />
    <glyph glyph-name="fl" unicode="fl" horiz-adv-x="1181" 
d="M270 0v995h-243v105h243v178q0 155 77 236t222 81q61 0 111 -12v-102q-46 8 -90 8q-109 0 -153 -53t-44 -158v-178h287v-105h-287v-995h-123zM1006 0h-123v1573h123v-1573z" />
    <glyph glyph-name=".notdef" horiz-adv-x="1314" 
d="M305 1237l268 268l437 -434l-207 -207l207 -205l-207 -206l207 -205l-271 -271l-434 437l205 204l-205 207l205 205z" />
    <glyph glyph-name=".null" horiz-adv-x="0" 
 />
    <glyph glyph-name="nonmarkingreturn" horiz-adv-x="682" 
 />
    <glyph glyph-name="CR" unicode="&#xd;" horiz-adv-x="0" 
 />
    <glyph glyph-name="space" unicode=" " horiz-adv-x="475" 
 />
    <glyph glyph-name="exclam" unicode="!" horiz-adv-x="608" 
d="M250 397l-12 1176h131l-13 -1176h-106zM223 0v160h160v-160h-160z" />
    <glyph glyph-name="quotedbl" unicode="&#x22;" horiz-adv-x="706" 
d="M154 987l-13 586h119l-12 -586h-94zM457 987l-13 586h119l-12 -586h-94z" />
    <glyph glyph-name="numbersign" unicode="#" horiz-adv-x="1259" 
d="M1202 934h-266l-102 -365h264l-27 -90h-264l-137 -479h-103l138 479h-306l-137 -479h-102l137 479h-266l26 90h267l102 365h-264l26 90h265l137 479h102l-137 -479h305l137 479h103l-137 -479h266zM731 569l103 365h-306l-102 -365h305z" />
    <glyph glyph-name="dollar" unicode="$" horiz-adv-x="1259" 
d="M1087 1233l-86 -86q-82 86 -169.5 126t-196.5 40q-156 0 -244 -70t-88 -180q0 -34 10 -62t23.5 -48.5t43 -39t52.5 -30t69 -25t76 -21t89 -20.5q59 -14 98.5 -24.5t89.5 -28t83 -35.5t67.5 -45t54 -58t32.5 -73.5t13 -93.5q0 -156 -111.5 -257t-310.5 -114v-227h-109v227
q-265 12 -436 180l82 88q166 -161 404 -161q174 0 265 69.5t91 186.5q0 30 -6 55.5t-21 46t-30.5 36.5t-44.5 30t-51.5 23.5t-63.5 21t-69 18.5t-79 18q-58 13 -97.5 23.5t-89 28t-82.5 35t-68 44.5t-55 58t-33 73.5t-13 92.5q0 151 105.5 249t291.5 113v225h109v-225
q245 -12 405 -184z" />
    <glyph glyph-name="percent" unicode="%" horiz-adv-x="1894" 
d="M432 625q-76 0 -133.5 24.5t-93 65t-57.5 100t-30.5 122t-8.5 138.5q0 96 14.5 172t49 141.5t100 101.5t159.5 36q324 0 324 -451q0 -76 -8.5 -138.5t-31 -122t-58 -100t-93 -65t-133.5 -24.5zM551 0h-111l901 1503h111zM432 711q64 0 108.5 29.5t67 83t32 114t9.5 137.5
t-9.5 137.5t-32 114.5t-67 83.5t-108.5 29.5t-108.5 -29.5t-67 -83.5t-32 -114.5t-9.5 -137.5t9.5 -137.5t32 -114t67 -83t108.5 -29.5zM1460 879q324 0 324 -451t-324 -451q-94 0 -159.5 36t-100 101.5t-49 141.5t-14.5 172t14.5 172t49 141.5t100 101.5t159.5 36z
M1460 793q-64 0 -108.5 -29.5t-67 -83.5t-32 -114.5t-9.5 -137.5t9.5 -137.5t32 -114.5t67 -83.5t108.5 -29.5t108.5 29.5t67 83.5t32 114.5t9.5 137.5t-9.5 137.5t-32 114.5t-67 83.5t-108.5 29.5z" />
    <glyph glyph-name="ampersand" unicode="&#x26;" horiz-adv-x="1501" 
d="M1470 0h-155l-221 231q-183 -254 -482 -254q-227 0 -366.5 124t-139.5 319q0 158 95.5 274.5t271.5 188.5l-37 39q-170 180 -170 331q0 148 103.5 245t287.5 97q169 0 271 -92t102 -239q0 -126 -74 -216t-225 -163l-76 -37l422 -438q25 47 37 75l160 353h123l-183 -398
q-21 -49 -57 -114zM657 1493q-128 0 -197 -66.5t-69 -173.5q0 -134 141 -278l52 -53l82 41q127 64 186 132t59 162q0 103 -67 169.5t-187 66.5zM1018 311l-473 496q-150 -57 -229.5 -154t-79.5 -227q0 -150 103 -245t277 -95q249 0 402 225z" />
    <glyph glyph-name="quotesingle" unicode="'" horiz-adv-x="403" 
d="M154 987l-13 586h119l-12 -586h-94z" />
    <glyph glyph-name="parenleft" unicode="(" horiz-adv-x="696" 
d="M156 635q0 303 85 555.5t226 429.5l86 -57q-130 -177 -206.5 -413t-76.5 -515t76.5 -515t206.5 -413l-86 -57q-141 177 -226 429.5t-85 555.5z" />
    <glyph glyph-name="parenright" unicode=")" horiz-adv-x="696" 
d="M541 635q0 -302 -85.5 -555t-226.5 -430l-86 57q130 177 206.5 413t76.5 515t-76.5 515t-206.5 413l86 57q141 -177 226.5 -430t85.5 -555z" />
    <glyph glyph-name="asterisk" unicode="*" horiz-adv-x="937" 
d="M666 829l-197 289l-197 -289l-71 54l213 276l-336 98l28 86l328 -118l-10 348h90l-10 -348l327 118l29 -86l-336 -98l213 -276z" />
    <glyph glyph-name="plus" unicode="+" horiz-adv-x="1153" 
d="M524 260v434h-418v94h418v435h103v-435h417v-94h-417v-434h-103z" />
    <glyph glyph-name="comma" unicode="," horiz-adv-x="518" 
d="M113 -301l96 586h129l-129 -586h-96z" />
    <glyph glyph-name="hyphen" unicode="-" horiz-adv-x="651" 
d="M96 569v111h459v-111h-459z" />
    <glyph glyph-name="period" unicode="." horiz-adv-x="518" 
d="M178 0v160h160v-160h-160z" />
    <glyph glyph-name="slash" unicode="/" horiz-adv-x="866" 
d="M829 1624l-690 -1673h-104l690 1673h104z" />
    <glyph glyph-name="zero" unicode="0" horiz-adv-x="1259" 
d="M629 -23q-525 0 -525 773q0 776 527 776q524 0 524 -772q0 -777 -526 -777zM629 86q97 0 169.5 37t116 97.5t70 149.5t36 179.5t9.5 202.5t-9 202t-35.5 179.5t-69.5 149.5t-115.5 97t-169.5 37q-70 0 -127.5 -19t-98.5 -52t-72.5 -82.5t-50.5 -105t-31.5 -124.5
t-17 -136.5t-4.5 -145.5t4.5 -145.5t16.5 -137t31 -124.5t50.5 -104.5t72.5 -83t98 -52.5t127 -19z" />
    <glyph glyph-name="one" unicode="1" horiz-adv-x="1259" 
d="M209 0v111h399v1239q-147 -93 -391 -172v110q245 83 428 215h88v-1392h397v-111h-921z" />
    <glyph glyph-name="two" unicode="2" horiz-adv-x="1259" 
d="M143 0v92l557 578q116 121 179 227.5t63 216.5q0 134 -91.5 217.5t-254.5 83.5q-112 0 -194 -41.5t-154 -126.5l-88 76q168 203 444 203q217 0 340 -111.5t123 -292.5q0 -235 -242 -487l-506 -520v-4h781v-111h-957z" />
    <glyph glyph-name="three" unicode="3" horiz-adv-x="1259" 
d="M580 -23q-157 0 -275 53.5t-184 143.5l92 74q119 -162 362 -162q184 0 290 87t106 228t-105.5 228.5t-283.5 87.5h-144v108h146q164 0 261 84t97 213q0 130 -98.5 212.5t-268.5 82.5q-210 0 -323 -143l-90 69q62 82 171.5 132.5t252.5 50.5q218 0 349.5 -112.5
t131.5 -285.5q0 -128 -75 -220.5t-208 -129.5v-4q150 -38 231 -137t81 -238q0 -187 -139.5 -304.5t-376.5 -117.5z" />
    <glyph glyph-name="four" unicode="4" horiz-adv-x="1259" 
d="M1235 481v-108h-301v-373h-125v373h-772v94l739 1036h158v-1022h301zM176 481h633v881h-4z" />
    <glyph glyph-name="five" unicode="5" horiz-adv-x="1259" 
d="M381 1393l-43 -533q130 58 270 58q226 0 366 -128.5t140 -338.5q0 -209 -141.5 -341.5t-380.5 -132.5q-149 0 -265.5 52t-187.5 139l86 82q143 -164 369 -164q184 0 289.5 99.5t105.5 263.5q0 163 -108.5 262.5t-294.5 99.5q-146 0 -283 -74h-96l61 766h766v-110h-653z
" />
    <glyph glyph-name="six" unicode="6" horiz-adv-x="1259" 
d="M244 692v-28h4q51 120 171 191t275 71q215 0 343 -133.5t128 -339.5q0 -210 -136 -343t-367 -133q-121 0 -215 40t-154 106.5t-98.5 160.5t-54 195t-15.5 217q0 90 9.5 174t31 168t55 155.5t84.5 133.5t115.5 105.5t151.5 68.5t190 25q172 0 317 -74l-47 -100
q-117 65 -268 65q-114 0 -204.5 -39.5t-149 -106t-96.5 -160.5t-54 -197t-16 -222zM668 84q174 0 273 102t99 265q0 161 -98 264.5t-274 103.5q-174 0 -280.5 -99t-106.5 -249q0 -64 21.5 -128.5t65 -124t121.5 -97t179 -37.5z" />
    <glyph glyph-name="seven" unicode="7" horiz-adv-x="1259" 
d="M373 0l610 1393h-854v110h987v-94l-612 -1409h-131z" />
    <glyph glyph-name="eight" unicode="8" horiz-adv-x="1259" 
d="M627 -23q-239 0 -382 116t-143 298q0 138 87 238t241 141v4q-134 38 -212.5 134.5t-78.5 224.5q0 172 133.5 282.5t354.5 110.5q223 0 356 -110.5t133 -282.5q0 -128 -79 -223t-214 -132v-4q154 -41 241 -143t87 -240q0 -182 -142.5 -298t-381.5 -116zM627 823
q160 0 262 86.5t102 214.5t-98 211.5t-266 83.5q-167 0 -265 -83.5t-98 -211.5t102 -214.5t261 -86.5zM627 719q-174 0 -287 -91t-113 -231q0 -137 107.5 -225t292.5 -88q186 0 292.5 88t106.5 225q0 140 -112.5 231t-286.5 91z" />
    <glyph glyph-name="nine" unicode="9" horiz-adv-x="1259" 
d="M1012 823v37h-4q-50 -120 -167.5 -191t-271.5 -71q-209 0 -337 128t-128 331q0 207 134.5 338t359.5 131q119 0 212.5 -40.5t152.5 -107.5t97.5 -161.5t54 -196t15.5 -217.5q0 -125 -18 -237.5t-63.5 -222.5t-115 -189t-181 -128t-252.5 -49q-170 0 -310 70l46 107
q124 -68 262 -68q114 0 204 40.5t147 108.5t94.5 164.5t53 200t15.5 223.5zM590 705q162 0 271.5 90t109.5 243q0 52 -13.5 104t-43.5 102.5t-73.5 89t-108.5 62t-142 23.5q-166 0 -263.5 -99t-97.5 -257t96.5 -258t264.5 -100z" />
    <glyph glyph-name="colon" unicode=":" horiz-adv-x="518" 
d="M178 940v160h160v-160h-160zM178 0v160h160v-160h-160z" />
    <glyph glyph-name="semicolon" unicode=";" horiz-adv-x="518" 
d="M178 940v160h160v-160h-160zM113 -301l96 586h129l-129 -586h-96z" />
    <glyph glyph-name="less" unicode="&#x3c;" horiz-adv-x="1153" 
d="M86 707v69l979 445v-103l-819 -375v-4l819 -374v-103z" />
    <glyph glyph-name="equal" unicode="=" horiz-adv-x="1153" 
d="M106 907v94h938v-94h-938zM106 479v94h938v-94h-938z" />
    <glyph glyph-name="greater" unicode="&#x3e;" horiz-adv-x="1153" 
d="M1065 776v-69l-979 -445v103l819 374v4l-819 375v103z" />
    <glyph glyph-name="question" unicode="?" horiz-adv-x="866" 
d="M575 793q-61 -54 -89 -88t-43 -81t-15 -118v-109h-106v142q0 51 8.5 92.5t20.5 70.5t39.5 61.5t50 53.5t67.5 60q64 56 102.5 100t64 105.5t25.5 131.5q0 128 -73.5 201.5t-202.5 73.5q-152 0 -272 -117l-72 82q64 64 154.5 102.5t197.5 38.5q174 0 282.5 -102.5
t108.5 -280.5q0 -48 -7.5 -89t-26.5 -79t-36 -66t-52 -64.5t-57.5 -58t-68.5 -62.5zM295 0v160h160v-160h-160z" />
    <glyph glyph-name="at" unicode="@" horiz-adv-x="1878" 
d="M940 -291q-192 0 -350 65.5t-262 179.5t-160.5 267t-56.5 328q0 139 35 264.5t105 231t168 183t231.5 120.5t289.5 43q193 0 351 -65.5t261.5 -179.5t160 -266.5t56.5 -328.5q0 -221 -82.5 -329.5t-213.5 -108.5q-91 0 -155.5 53.5t-94.5 159.5h-4
q-43 -103 -128.5 -161.5t-197.5 -58.5q-172 0 -273.5 127t-101.5 316q0 123 44.5 223t132 160.5t204.5 60.5q195 0 303 -174h4l8 156h97v-486q0 -144 43.5 -215t120.5 -71q87 0 138.5 86t51.5 254q0 153 -47 288.5t-135 240t-227.5 165.5t-313.5 61q-172 0 -311.5 -60.5
t-228 -164t-136 -237.5t-47.5 -285q0 -150 46.5 -284t134.5 -238.5t227 -166t311 -61.5q261 0 440 138l54 -84q-208 -146 -492 -146zM915 201q132 0 209.5 99t77.5 253q0 153 -76.5 249.5t-207.5 96.5q-134 0 -209.5 -100.5t-75.5 -247.5q0 -148 74.5 -249t207.5 -101z" />
    <glyph glyph-name="A" unicode="A" horiz-adv-x="1447" 
d="M1300 0l-196 494h-764l-197 -494h-135l641 1573h152l639 -1573h-140zM385 606h674l-334 836h-4z" />
    <glyph glyph-name="B" unicode="B" horiz-adv-x="1402" 
d="M979 803v-4q151 -30 241.5 -131t90.5 -250q0 -128 -67 -224.5t-178.5 -145t-248.5 -48.5h-635v1573h629q204 0 333.5 -108t129.5 -287q0 -136 -81 -236t-214 -139zM791 1460h-482v-610h467q162 0 265.5 84.5t103.5 224.5q0 139 -98 220t-256 81zM309 113h498
q161 0 268 84t107 229q0 141 -104 226t-277 85h-492v-624z" />
    <glyph glyph-name="C" unicode="C" horiz-adv-x="1447" 
d="M817 -23q-161 0 -295 62t-224 170.5t-139.5 256.5t-49.5 320q0 231 85 414.5t246 289t373 105.5q183 0 327.5 -81.5t239.5 -227.5l-98 -69q-78 129 -196 198.5t-269 69.5q-136 0 -247 -55t-183 -150t-110.5 -220.5t-38.5 -268.5q0 -144 38.5 -270.5t110.5 -223.5
t184.5 -153t251.5 -56q151 0 270 68.5t197 193.5l96 -67q-92 -143 -238.5 -224.5t-330.5 -81.5z" />
    <glyph glyph-name="D" unicode="D" horiz-adv-x="1562" 
d="M182 0v1573h500q186 0 334.5 -61.5t243.5 -169.5t145.5 -250t50.5 -306q0 -169 -52.5 -313.5t-149 -249.5t-239 -164t-315.5 -59h-518zM309 113h385q292 0 462.5 181t170.5 490q0 316 -178 496t-473 180h-367v-1347z" />
    <glyph glyph-name="E" unicode="E" horiz-adv-x="1259" 
d="M1169 0h-987v1573h973v-113h-846v-610h746v-113h-746v-624h860v-113z" />
    <glyph glyph-name="F" unicode="F" horiz-adv-x="1198" 
d="M309 0h-127v1573h971v-113h-844v-631h744v-112h-744v-717z" />
    <glyph glyph-name="G" unicode="G" horiz-adv-x="1591" 
d="M913 791h531v-791h-121l-4 297h-4q-66 -140 -197.5 -230t-322.5 -90q-128 0 -238.5 41.5t-192 116t-139.5 175.5t-87 222t-29 254q0 169 49 316.5t138.5 257t225.5 172.5t301 63q191 0 340 -83t248 -234l-96 -70q-82 135 -206.5 206t-281.5 71q-265 0 -427 -193
t-162 -508q0 -203 70.5 -361.5t199 -246.5t295.5 -88q225 0 370.5 149.5t145.5 372.5q0 52 -2 70h-404v111z" />
    <glyph glyph-name="H" unicode="H" horiz-adv-x="1562" 
d="M309 0h-127v1573h127v-723h944v723h127v-1573h-127v737h-944v-737z" />
    <glyph glyph-name="I" unicode="I" horiz-adv-x="491" 
d="M309 0h-127v1573h127v-1573z" />
    <glyph glyph-name="J" unicode="J" horiz-adv-x="884" 
d="M324 -23q-148 0 -265 74l54 101q63 -34 106 -49t98 -15q131 0 198 79t67 212v1194h127v-1198q0 -179 -101 -288.5t-284 -109.5z" />
    <glyph glyph-name="K" unicode="K" horiz-adv-x="1357" 
d="M1165 0l-487 737h-369v-737h-127v1573h127v-723h361l473 723h151l-510 -770l535 -803h-154z" />
    <glyph glyph-name="L" unicode="L" horiz-adv-x="1171" 
d="M182 0v1573h127v-1460h844v-113h-971z" />
    <glyph glyph-name="M" unicode="M" horiz-adv-x="1894" 
d="M1526 1573h186v-1573h-127v1397h-4l-575 -1397h-119l-576 1393h-4v-1393h-125v1573h187l577 -1401h4z" />
    <glyph glyph-name="N" unicode="N" horiz-adv-x="1591" 
d="M1284 1573h125v-1573h-113l-985 1366h-4v-1366h-125v1573h131l967 -1344h4v1344z" />
    <glyph glyph-name="O" unicode="O" horiz-adv-x="1662" 
d="M109 784q0 168 49 315t139 257.5t228 174.5t306 64q167 0 304.5 -63t228.5 -172t140.5 -256t49.5 -316q0 -168 -49 -315t-139.5 -257.5t-228.5 -174.5t-306 -64q-167 0 -304.5 63t-228 172t-140 256t-49.5 316zM238 786q0 -112 24 -215t73 -191t118.5 -153t166.5 -102
t211 -37q140 0 254.5 56t187.5 152.5t112.5 222t39.5 267.5q0 141 -39 266t-111.5 222t-187 154t-256.5 57q-140 0 -254 -56t-187.5 -152.5t-112.5 -222t-39 -268.5z" />
    <glyph glyph-name="P" unicode="P" horiz-adv-x="1402" 
d="M182 1573h606q153 0 274 -57t192 -168.5t71 -260.5t-70.5 -261.5t-192.5 -171t-278 -58.5h-475v-596h-127v1573zM309 709h467q194 0 307 100t113 274q0 177 -115 277t-307 100h-465v-751z" />
    <glyph glyph-name="Q" unicode="Q" horiz-adv-x="1662" 
d="M1225 -303l-183 309q-106 -29 -211 -29q-167 0 -304.5 63t-228 172t-140 256t-49.5 316q0 168 49 315t139 257.5t228 174.5t306 64q167 0 304.5 -63t228.5 -172t140.5 -256t49.5 -316q0 -247 -102.5 -443.5t-288.5 -291.5l219 -356h-157zM238 786q0 -112 24 -215t73 -191
t118.5 -153t166.5 -102t211 -37q140 0 254.5 56t187.5 152.5t112.5 222t39.5 267.5q0 141 -39 266t-111.5 222t-187 154t-256.5 57q-140 0 -254 -56t-187.5 -152.5t-112.5 -222t-39 -268.5z" />
    <glyph glyph-name="R" unicode="R" horiz-adv-x="1402" 
d="M1169 0l-348 690h-512v-690h-127v1573h590q224 0 364 -115t140 -321q0 -156 -88.5 -264t-243.5 -150l369 -723h-144zM309 1460v-657h441q178 0 287.5 87t109.5 243t-106 241.5t-283 85.5h-449z" />
    <glyph glyph-name="S" unicode="S" 
d="M627 -23q-348 0 -555 232l86 84q100 -102 208.5 -153.5t260.5 -51.5q210 0 320 90t110 240q0 39 -7.5 71t-25.5 58.5t-36.5 46.5t-53 38t-61.5 30.5t-75.5 27t-82 23t-92.5 22.5t-99.5 24.5t-93 27t-88 34t-75.5 41.5t-65.5 53t-47.5 64.5t-32.5 81t-10.5 98.5
q0 196 143 316t389 120q318 0 520 -233l-92 -82q-93 108 -195 156.5t-233 48.5q-189 0 -296 -89t-107 -229q0 -34 7.5 -63.5t18 -52.5t32 -44t40.5 -36t53 -30.5t58.5 -25.5t69.5 -22.5t73.5 -20t81.5 -20.5t89 -22.5t84 -24.5t80.5 -29t71 -34t63.5 -41.5t50.5 -50.5
t40.5 -62t24 -74.5t9 -89.5q0 -201 -147.5 -324t-411.5 -123z" />
    <glyph glyph-name="T" unicode="T" horiz-adv-x="1331" 
d="M729 0h-127v1460h-577v113h1282v-113h-578v-1460z" />
    <glyph glyph-name="U" unicode="U" horiz-adv-x="1562" 
d="M1262 563v1010h124v-1016q0 -269 -161 -424.5t-445 -155.5q-273 0 -438.5 155.5t-165.5 424.5v1016h127v-1010q0 -216 128 -345.5t353 -129.5q226 0 352 129t126 346z" />
    <glyph glyph-name="V" unicode="V" horiz-adv-x="1376" 
d="M1227 1573h139l-610 -1573h-133l-613 1573h135l543 -1411h4z" />
    <glyph glyph-name="W" unicode="W" horiz-adv-x="2154" 
d="M2007 1573h129l-483 -1573h-142l-430 1403h-4l-432 -1403h-143l-484 1573h134l423 -1411h5l430 1411h141l428 -1411h4z" />
    <glyph glyph-name="X" unicode="X" horiz-adv-x="1357" 
d="M1339 0h-149l-510 719h-4l-510 -719h-148l576 801l-553 772h149l486 -684h4l487 684h146l-551 -766z" />
    <glyph glyph-name="Y" unicode="Y" horiz-adv-x="1357" 
d="M1206 1573h142l-605 -950v-623h-127v621l-606 952h146l524 -832h4z" />
    <glyph glyph-name="Z" unicode="Z" horiz-adv-x="1314" 
d="M102 1460v113h1117v-96l-986 -1364h1006v-113h-1163v96l985 1364h-959z" />
    <glyph glyph-name="bracketleft" unicode="[" horiz-adv-x="696" 
d="M201 -303v1876h389v-98h-277v-1680h277v-98h-389z" />
    <glyph glyph-name="backslash" unicode="\" horiz-adv-x="866" 
d="M725 -49l-690 1673h104l690 -1673h-104z" />
    <glyph glyph-name="bracketright" unicode="]" horiz-adv-x="696" 
d="M496 1573v-1876h-390v98h277v1680h-277v98h390z" />
    <glyph glyph-name="asciicircum" unicode="^" horiz-adv-x="1054" 
d="M109 719l368 799h98l369 -799h-113l-305 674h-2l-307 -674h-108z" />
    <glyph glyph-name="underscore" unicode="_" horiz-adv-x="911" 
d="M0 -279v95h911v-95h-911z" />
    <glyph glyph-name="grave" unicode="`" 
d="M623 1241l-222 332h138l196 -332h-112z" />
    <glyph glyph-name="a" unicode="a" horiz-adv-x="1126" 
d="M954 0h-118l-2 197h-5q-124 -220 -366 -220q-159 0 -250.5 87t-91.5 227q0 243 282 301q137 29 431 39v143q0 96 -75.5 169t-217.5 73q-121 0 -192.5 -53.5t-98.5 -141.5l-109 41q39 122 144 191t260 69q193 0 301 -96.5t108 -261.5v-764zM479 84q151 0 253 108t102 244
v94q-198 -4 -359 -32q-118 -21 -174.5 -66.5t-56.5 -134.5q0 -97 64 -155t171 -58z" />
    <glyph glyph-name="b" unicode="b" 
d="M694 -23q-131 0 -232.5 62t-162.5 182h-4l-6 -221h-113v1573h123v-694h4q65 117 171 180t233 63q146 0 256.5 -78t166.5 -206t56 -285q0 -92 -21 -177.5t-63 -158t-100.5 -126t-137.5 -84t-170 -30.5zM676 86q120 0 209.5 63t133.5 166t44 232q0 95 -25 178.5t-72 148.5
t-121.5 102.5t-166.5 37.5q-122 0 -211 -66.5t-130.5 -171t-41.5 -231.5q0 -128 42.5 -230.5t130.5 -165.5t208 -63z" />
    <glyph glyph-name="c" unicode="c" horiz-adv-x="1099" 
d="M606 -23q-155 0 -272.5 77t-177.5 206t-60 289q0 161 60 290t177.5 206t272.5 77q149 0 259 -70t173 -190l-104 -57q-49 99 -132.5 155t-195.5 56q-121 0 -210 -62.5t-133 -167t-44 -235.5q0 -201 104.5 -334t284.5 -133q112 0 196.5 55t133.5 152l102 -58
q-63 -120 -174 -188t-260 -68z" />
    <glyph glyph-name="d" unicode="d" 
d="M582 -23q-111 0 -203 45t-152.5 122t-93.5 179.5t-33 217.5q0 162 58.5 293t171 209.5t260.5 78.5q253 0 393 -229h4v680h123v-1573h-121l-2 219h-4q-66 -115 -168.5 -178.5t-232.5 -63.5zM604 86q179 0 283 130t104 333q0 206 -103 335.5t-280 129.5q-122 0 -211 -65.5
t-131.5 -169.5t-42.5 -232q0 -126 42.5 -229t130.5 -167.5t208 -64.5z" />
    <glyph glyph-name="e" unicode="e" horiz-adv-x="1171" 
d="M946 231l90 -77q-154 -177 -403 -177q-245 0 -389 161.5t-144 420.5q0 159 58.5 286t172.5 202t265 75q219 0 348 -149.5t129 -382.5q0 -56 -6 -90h-842q15 -185 125 -300.5t287 -115.5q195 0 309 147zM225 606h727q-6 181 -100.5 295.5t-255.5 114.5q-163 0 -261.5 -113
t-109.5 -297z" />
    <glyph glyph-name="f" unicode="f" horiz-adv-x="706" 
d="M270 0v995h-243v105h243v178q0 155 77 236t222 81q61 0 111 -12v-102q-46 8 -90 8q-109 0 -153 -53t-44 -158v-178h287v-105h-287v-995h-123z" />
    <glyph glyph-name="g" unicode="g" horiz-adv-x="1269" 
d="M1094 1100v-1002q0 -245 -139.5 -370t-376.5 -125q-218 0 -390 108l60 103q158 -105 336 -105q85 0 152.5 21t121.5 66t83.5 123t29.5 185v150h-4q-61 -113 -165 -177.5t-233 -64.5q-143 0 -251.5 74.5t-164 198t-55.5 276.5q0 114 33.5 215.5t94.5 178.5t153 122t203 45
q132 0 230.5 -63t158.5 -170h4l4 211h115zM598 119q174 0 275.5 128t101.5 318q0 196 -101 322.5t-276 126.5t-276 -128.5t-101 -320.5q0 -123 41.5 -222.5t128.5 -161.5t207 -62z" />
    <glyph glyph-name="h" unicode="h" horiz-adv-x="1243" 
d="M176 0v1573h123v-676h4q120 225 377 225q181 0 286 -110.5t105 -288.5v-723h-123v696q0 139 -75 229.5t-220 90.5q-155 0 -254.5 -107.5t-99.5 -287.5v-621h-123z" />
    <glyph glyph-name="i" unicode="i" horiz-adv-x="475" 
d="M162 1423v150h151v-150h-151zM299 0h-123v1100h123v-1100z" />
    <glyph glyph-name="j" unicode="j" horiz-adv-x="475" 
d="M162 1423v150h151v-150h-151zM-41 -387v100q35 -6 66 -6q151 0 151 172v1221h123v-1219q0 -130 -61.5 -204t-190.5 -74q-50 0 -88 10z" />
    <glyph glyph-name="k" unicode="k" horiz-adv-x="1071" 
d="M887 0l-367 520h-221v-520h-123v1573h123v-948h229l342 475h146l-387 -527l407 -573h-149z" />
    <glyph glyph-name="l" unicode="l" horiz-adv-x="475" 
d="M299 0h-123v1573h123v-1573z" />
    <glyph glyph-name="m" unicode="m" horiz-adv-x="1894" 
d="M297 913h4q115 209 350 209q127 0 214 -63t122 -168q56 114 151.5 172.5t217.5 58.5q168 0 266 -100.5t98 -261.5v-760h-123v729q0 126 -67 206.5t-199 80.5q-139 0 -230 -98.5t-91 -258.5v-659h-123v729q0 126 -67 206.5t-199 80.5q-140 0 -231 -99t-91 -258v-659h-123
v1100h119z" />
    <glyph glyph-name="n" unicode="n" horiz-adv-x="1243" 
d="M176 0v1100h119l2 -205h4q119 227 379 227q181 0 286 -110.5t105 -288.5v-723h-123v696q0 139 -75 229.5t-220 90.5q-155 0 -254.5 -107.5t-99.5 -287.5v-621h-123z" />
    <glyph glyph-name="o" unicode="o" horiz-adv-x="1243" 
d="M621 -23q-162 0 -283 78.5t-181.5 207.5t-60.5 288t61.5 287.5t183 206t282.5 77.5q121 0 221 -45t166 -122.5t101.5 -181.5t35.5 -222q0 -159 -60.5 -288t-182 -207.5t-283.5 -78.5zM623 1016q-188 0 -296 -133.5t-108 -333.5q0 -95 27 -179t77 -148t127 -101t171 -37
q126 0 219 64t138.5 168t45.5 233t-45 233.5t-137.5 169t-218.5 64.5z" />
    <glyph glyph-name="p" unicode="p" 
d="M696 -23q-259 0 -393 234h-4v-586h-123v1475h119l2 -221h4q64 115 171 179t233 64q147 0 258 -77.5t167 -206t56 -287.5q0 -155 -57.5 -284.5t-170.5 -209.5t-262 -80zM676 86q120 0 209.5 63t133.5 166t44 232q0 95 -25 178.5t-72 148.5t-121.5 102.5t-166.5 37.5
q-121 0 -209.5 -65.5t-131 -170t-42.5 -233.5q0 -130 43 -232.5t131 -164.5t207 -62z" />
    <glyph glyph-name="q" unicode="q" 
d="M590 1122q254 0 397 -231h4l4 209h115v-1475h-123v594h-4q-63 -113 -167.5 -177.5t-233.5 -64.5q-148 0 -259 77.5t-167 205t-56 283.5q0 160 58 290.5t171 209.5t261 79zM608 1014q-121 0 -210 -65t-132 -169.5t-43 -232.5q0 -127 42 -229.5t130 -167t209 -64.5
q180 0 283.5 131t103.5 332q0 203 -103 334t-280 131z" />
    <glyph glyph-name="r" unicode="r" horiz-adv-x="751" 
d="M176 0v1100h119l2 -205h2q48 109 127 168t182 59q60 0 107 -18v-121q-58 21 -115 21q-133 0 -217 -104.5t-84 -250.5v-649h-123z" />
    <glyph glyph-name="s" unicode="s" horiz-adv-x="1028" 
d="M508 -23q-266 0 -438 150l77 90q142 -133 359 -133q150 0 229.5 57.5t79.5 151.5q0 28 -8.5 50.5t-20.5 39.5t-37 32.5t-46 25t-60 21t-66.5 18.5t-78.5 18q-73 16 -120.5 29t-103.5 38t-88.5 55t-54.5 77t-22 108q0 142 109.5 229.5t301.5 87.5q245 0 404 -155l-82 -88
q-143 137 -324 137q-137 0 -212 -56.5t-75 -146.5q0 -38 15 -66.5t40 -47.5t66 -34.5t84 -26.5t105 -25q4 -1 6 -1q74 -17 122 -30.5t104.5 -39t88.5 -55.5t54 -77.5t22 -108.5q0 -145 -115 -234.5t-315 -89.5z" />
    <glyph glyph-name="t" unicode="t" horiz-adv-x="706" 
d="M12 995v105h244v348h123v-348h287v-105h-287v-702q0 -100 49 -151.5t160 -51.5q38 0 78 6v-100q-52 -12 -117 -12q-149 0 -221 73.5t-72 221.5v716h-244z" />
    <glyph glyph-name="u" unicode="u" horiz-adv-x="1243" 
d="M1067 1100v-1100h-121l-2 205h-4q-56 -110 -152.5 -169t-226.5 -59q-180 0 -284.5 110.5t-104.5 287.5v725h123v-697q0 -139 75 -229t220 -90q155 0 254.5 107.5t99.5 287.5v621h123z" />
    <glyph glyph-name="v" unicode="v" horiz-adv-x="1081" 
d="M920 1100h129l-443 -1100h-129l-444 1100h133l377 -955h4z" />
    <glyph glyph-name="w" unicode="w" horiz-adv-x="1662" 
d="M1489 1100h129l-356 -1100h-142l-286 928h-5l-286 -928h-142l-356 1100h133l297 -950h4l287 950h135l285 -948h4z" />
    <glyph glyph-name="x" unicode="x" horiz-adv-x="1054" 
d="M1020 0h-150l-342 485h-4l-344 -485h-145l407 563l-387 537h150l321 -459h4l324 459h145l-387 -537z" />
    <glyph glyph-name="y" unicode="y" horiz-adv-x="1081" 
d="M920 1100h129l-486 -1206q-63 -156 -136.5 -223.5t-190.5 -67.5q-71 0 -134 24v103q62 -23 117 -23q80 0 130.5 48t101.5 165l30 72l-448 1108h133l377 -955h4z" />
    <glyph glyph-name="z" unicode="z" horiz-adv-x="1009" 
d="M94 991v109h844v-101l-715 -890h738v-109h-891v102l716 889h-692z" />
    <glyph glyph-name="braceleft" unicode="{" horiz-adv-x="768" 
d="M78 584v102h84q77 0 108 42t31 130v440q0 147 59 222t189 75q59 0 108 -18v-90q-42 10 -82 10q-85 0 -123 -47.5t-38 -151.5v-448q0 -178 -131 -213v-4q131 -35 131 -213v-449q0 -104 37.5 -151t123.5 -47q40 0 82 10v-90q-51 -19 -108 -19q-130 0 -189 75t-59 222v441
q0 88 -31 130t-108 42h-84z" />
    <glyph glyph-name="bar" unicode="|" horiz-adv-x="608" 
d="M248 -375v2058h110v-2058h-110z" />
    <glyph glyph-name="braceright" unicode="}" horiz-adv-x="768" 
d="M688 686v-102h-84q-77 0 -108 -42t-31 -130v-441q0 -147 -59 -222t-189 -75q-57 0 -108 19v90q42 -10 81 -10q86 0 124 47.5t38 150.5v449q0 178 131 213v4q-131 35 -131 213v448q0 104 -38 151.5t-124 47.5q-39 0 -81 -10v90q49 18 108 18q130 0 189 -75t59 -222v-440
q0 -88 31 -130t108 -42h84z" />
    <glyph glyph-name="asciitilde" unicode="~" horiz-adv-x="1071" 
d="M193 616h-87q2 72 22 123.5t52.5 77.5t67 37.5t74.5 11.5q55 0 117.5 -23.5t109 -52t103.5 -52t102 -23.5q118 0 125 149h84q-1 -71 -20.5 -122.5t-52 -78t-67 -38t-73.5 -11.5q-55 0 -117.5 24t-109 52t-104 52t-102.5 24q-117 0 -124 -150z" />
    <glyph glyph-name="uni00A0" unicode="&#xa0;" horiz-adv-x="475" 
 />
    <glyph glyph-name="exclamdown" unicode="&#xa1;" horiz-adv-x="608" 
d="M383 1198v-160h-160v160h160zM356 801l13 -1176h-131l12 1176h106z" />
    <glyph glyph-name="cent" unicode="&#xa2;" horiz-adv-x="1259" 
d="M1012 494l102 -58q-60 -113 -162 -180t-237 -76v-229h-109v233q-134 18 -234 97.5t-151 201t-51 269.5t51 270t151 201.5t234 97.5v231h109v-229q135 -7 236.5 -76t160.5 -182l-104 -57q-49 99 -132.5 155t-195.5 56q-121 0 -210 -62.5t-133 -167t-44 -235.5
q0 -201 104.5 -334t284.5 -133q112 0 196.5 55t133.5 152z" />
    <glyph glyph-name="sterling" unicode="&#xa3;" horiz-adv-x="1259" 
d="M147 0v111h164v579h-164v109h164v286q0 197 121.5 319t339.5 122q222 0 383 -148l-74 -88q-68 63 -139 93t-164 30q-169 0 -255.5 -91t-86.5 -245v-278h438v-109h-438v-579h721v-111h-1010z" />
    <glyph glyph-name="currency" unicode="&#xa4;" horiz-adv-x="1259" 
d="M1145 1180l-180 -181q69 -107 69 -251q0 -145 -69 -252l180 -181l-76 -71l-170 170q-114 -103 -270 -103q-157 0 -271 103l-170 -170l-75 71l180 181q-70 109 -70 252q0 142 70 251l-180 181l75 71l170 -170q114 103 271 103q156 0 270 -103l170 170zM328 748
q0 -149 82.5 -245.5t218.5 -96.5t218.5 96.5t82.5 245.5t-82.5 245.5t-218.5 96.5t-218.5 -96.5t-82.5 -245.5z" />
    <glyph glyph-name="yen" unicode="&#xa5;" horiz-adv-x="1259" 
d="M1176 1503l-422 -663h346v-105h-410v-229h410v-105h-410v-401h-125v401h-409v105h409v229h-409v105h346l-422 663h143l406 -655h4l407 655h136z" />
    <glyph glyph-name="brokenbar" unicode="&#xa6;" horiz-adv-x="608" 
d="M248 879v804h110v-804h-110zM248 -375v805h110v-805h-110z" />
    <glyph glyph-name="section" unicode="&#xa7;" horiz-adv-x="1198" 
d="M977 1411l-86 -74q-68 85 -136.5 121.5t-164.5 36.5q-133 0 -205 -62.5t-72 -164.5q0 -36 9 -64.5t31.5 -50t44 -36.5t64.5 -30t73 -23.5t88 -23.5q60 -15 96.5 -26t87.5 -29.5t82 -37t66.5 -47t54.5 -61.5t32 -78t13 -99q0 -214 -176 -312q122 -81 122 -231
q0 -155 -109.5 -249.5t-305.5 -94.5q-265 0 -418 178l82 78q72 -77 150.5 -116.5t185.5 -39.5q145 0 221 65t76 171q0 36 -9 64t-31 49.5t-45 37t-64 30.5t-73 24.5t-88 23.5q-60 16 -96.5 26.5t-87.5 29t-82 36.5t-66.5 46.5t-54.5 61t-32 77t-13 98.5q0 104 47.5 184.5
t135.5 126.5q-129 78 -129 234q0 151 105.5 243t289.5 92q245 0 387 -184zM260 719q0 -37 10 -68.5t24 -54t42.5 -43t52.5 -34t69 -28.5t76 -23.5t87 -23.5q79 -20 149 -45q166 69 166 256q0 38 -9.5 69.5t-24 55t-42 44t-52.5 34t-68 28.5t-75 24.5t-87 23.5
q-57 14 -144 41q-84 -30 -129 -98t-45 -158z" />
    <glyph glyph-name="dieresis" unicode="&#xa8;" 
d="M776 1333v148h146v-148h-146zM365 1333v148h145v-148h-145z" />
    <glyph glyph-name="copyright" unicode="&#xa9;" horiz-adv-x="1705" 
d="M852 0q-139 0 -258 38.5t-206.5 107.5t-150 163t-93.5 206.5t-31 236.5q0 155 49.5 291t141.5 238.5t233.5 162t314.5 59.5t314.5 -59.5t234 -162t142.5 -238.5t50 -291t-50 -291.5t-142.5 -239t-234 -162t-314.5 -59.5zM852 94q151 0 274 53t201 144t120 209.5t42 251.5
t-42 250.5t-120 209t-201 144.5t-274 53t-274 -53t-201 -144.5t-120 -209t-42 -250.5t42 -251.5t120 -209.5t201 -144t274 -53zM870 332q-175 0 -280 117t-105 305q0 182 104.5 299.5t280.5 117.5q177 0 285 -131l-76 -63q-79 106 -211 106q-125 0 -199.5 -92t-74.5 -237
t75.5 -239.5t204.5 -94.5q131 0 213 102l72 -61q-104 -129 -289 -129z" />
    <glyph glyph-name="ordfeminine" unicode="&#xaa;" horiz-adv-x="778" 
d="M311 836q-107 0 -168 58.5t-61 152.5q0 161 190 202q110 23 287 27v74q0 67 -47.5 112t-138.5 45q-133 0 -185 -104l-82 47q38 71 109 108t162 37q132 0 207 -65t75 -178v-502h-98l-2 119h-4q-73 -133 -244 -133zM334 922q96 0 160.5 66t64.5 149v57q-129 -4 -227 -20
q-76 -13 -112 -40.5t-36 -82.5q0 -59 40.5 -94t109.5 -35z" />
    <glyph glyph-name="guillemotleft" unicode="&#xab;" horiz-adv-x="1009" 
d="M403 168l-299 407l299 408h132l-299 -408l299 -407h-132zM752 168l-299 407l299 408h131l-299 -408l299 -407h-131z" />
    <glyph glyph-name="logicalnot" unicode="&#xac;" horiz-adv-x="1153" 
d="M106 694v94h938v-528h-104v434h-834z" />
    <glyph glyph-name="uni00AD" unicode="&#xad;" horiz-adv-x="651" 
d="M96 569v111h459v-111h-459z" />
    <glyph glyph-name="registered" unicode="&#xae;" horiz-adv-x="937" 
d="M469 1595q174 0 285.5 -114.5t111.5 -280.5t-111.5 -280.5t-285.5 -114.5t-285.5 114.5t-111.5 280.5t111.5 280.5t285.5 114.5zM469 852q152 0 249 101t97 247t-97 247t-249 101t-249 -101t-97 -247t97 -247t249 -101zM334 1399h172q57 0 94 -30.5t37 -84.5
q0 -46 -26.5 -77t-71.5 -40l104 -166h-61l-101 164h-94v-164h-53v398zM387 1356v-152h107q41 0 65.5 20t24.5 56t-24.5 56t-65.5 20h-107z" />
    <glyph glyph-name="macron" unicode="&#xaf;" 
d="M375 1358v98h534v-98h-534z" />
    <glyph glyph-name="degree" unicode="&#xb0;" horiz-adv-x="751" 
d="M375 924q-126 0 -211.5 87.5t-85.5 213.5t85.5 213.5t211.5 87.5t211.5 -87.5t85.5 -213.5t-85.5 -213.5t-211.5 -87.5zM375 1001q95 0 156 64t61 160t-61 159.5t-156 63.5t-156 -63.5t-61 -159.5t61 -160t156 -64z" />
    <glyph glyph-name="plusminus" unicode="&#xb1;" horiz-adv-x="1153" 
d="M524 510v371h-381v96h381v371h103v-371h379v-96h-379v-371h-103zM143 184v97h863v-97h-863z" />
    <glyph glyph-name="two.superior" unicode="&#xb2;" horiz-adv-x="768" 
d="M76 860v68l348 342q141 141 141 250q0 76 -54 124t-151 48q-68 0 -117 -25t-93 -76l-64 54q107 127 281 127q139 0 218 -69t79 -177q0 -140 -152 -289l-299 -293v-4h471v-80h-608z" />
    <glyph glyph-name="three.superior" unicode="&#xb3;" horiz-adv-x="768" 
d="M352 846q-101 0 -175.5 33.5t-115.5 89.5l64 57q82 -102 225 -102q108 0 170 50t62 130q0 79 -62 128.5t-166 49.5h-94v76h96q96 0 151.5 47t55.5 121t-56.5 121t-154.5 47q-126 0 -200 -90l-66 55q40 52 109 82.5t159 30.5q143 0 226.5 -68t83.5 -172q0 -75 -45 -129
t-125 -76v-4q188 -57 188 -223q0 -112 -88.5 -183t-241.5 -71z" />
    <glyph glyph-name="acute" unicode="&#xb4;" 
d="M885 1573l-221 -332h-111l197 332h135z" />
    <glyph glyph-name="mu" unicode="&#xb5;" horiz-adv-x="1214" 
d="M940 1100h123v-1100h-121l-2 205h-4q-56 -110 -153 -169t-228 -59q-166 0 -268 99l12 -451h-133v1475h123v-697q0 -139 75 -229t220 -90q155 0 255.5 107.5t100.5 287.5v621z" />
    <glyph glyph-name="paragraph" unicode="&#xb6;" horiz-adv-x="1214" 
d="M137 1096q0 236 126.5 356.5t336.5 120.5h481v-90h-182v-1786h-111v1786h-184v-858q-220 0 -343.5 122t-123.5 349z" />
    <glyph glyph-name="periodcentered" unicode="&#xb7;" horiz-adv-x="518" 
d="M178 545v160h160v-160h-160z" />
    <glyph glyph-name="cedilla" unicode="&#xb8;" 
d="M694 37l-37 -115q85 -7 132 -44t47 -95q0 -71 -59.5 -113.5t-164.5 -42.5q-73 0 -151 19l16 80q66 -15 125 -15q113 0 113 72q0 38 -37.5 56t-130.5 22l57 176h90z" />
    <glyph glyph-name="one.superior" unicode="&#xb9;" horiz-adv-x="768" 
d="M121 860v80h241v711q-110 -66 -235 -103v82q153 49 260 127h76v-817h242v-80h-584z" />
    <glyph glyph-name="ordmasculine" unicode="&#xba;" horiz-adv-x="866" 
d="M432 836q-167 0 -263.5 108.5t-96.5 272.5q0 163 96.5 270.5t263.5 107.5t264 -108t97 -270q0 -164 -97 -272.5t-264 -108.5zM432 1507q-122 0 -190 -83.5t-68 -209.5q0 -124 68.5 -207t189.5 -83q122 0 190 82.5t68 207.5q0 126 -68 209.5t-190 83.5z" />
    <glyph glyph-name="guillemotright" unicode="&#xbb;" horiz-adv-x="1009" 
d="M256 983l299 -408l-299 -407h-131l299 407l-299 408h131zM604 983l299 -408l-299 -407h-131l299 407l-299 408h131z" />
    <glyph glyph-name="onequarter" unicode="&#xbc;" horiz-adv-x="1894" 
d="M596 0h-109l873 1503h110zM1878 293v-76h-184v-217h-99v217h-473v66l459 614h113v-604h184zM1227 293h368v487h-4zM111 606v80h241v711q-110 -66 -235 -103v82q153 49 260 127h76v-817h241v-80h-583z" />
    <glyph glyph-name="onehalf" unicode="&#xbd;" horiz-adv-x="1966" 
d="M1262 0v68l348 342q68 68 104.5 127.5t36.5 121.5q0 76 -54 124t-151 48q-69 0 -118 -25t-93 -75l-63 53q107 127 280 127q139 0 218 -68.5t79 -176.5q0 -141 -151 -289l-299 -293v-4h471v-80h-608zM596 0h-109l873 1503h110zM111 606v80h241v711q-110 -66 -235 -103v82
q153 49 260 127h76v-817h241v-80h-583z" />
    <glyph glyph-name="threequarters" unicode="&#xbe;" horiz-adv-x="1894" 
d="M342 592q-101 0 -175.5 33.5t-115.5 89.5l64 57q42 -52 95.5 -77t129.5 -25q108 0 169.5 50t61.5 130q0 79 -61.5 128.5t-165.5 49.5h-94v76h96q96 0 151.5 47t55.5 121t-56.5 121t-154.5 47q-127 0 -201 -90l-65 55q40 52 109 82.5t159 30.5q143 0 226 -68t83 -172
q0 -75 -45 -129t-125 -76v-4q189 -57 189 -223q0 -112 -88.5 -183t-241.5 -71zM596 0h-109l873 1503h110zM1878 293v-76h-184v-217h-99v217h-473v66l459 614h113v-604h184zM1227 293h368v487h-4z" />
    <glyph glyph-name="questiondown" unicode="&#xbf;" horiz-adv-x="866" 
d="M569 1198v-160h-159v160h159zM289 406q89 78 118 131t29 155v109h107v-142q0 -51 -9 -92.5t-20.5 -70t-39.5 -61.5t-50 -53t-68 -60q-64 -56 -102.5 -100.5t-64 -105.5t-25.5 -132q0 -128 73.5 -201.5t202.5 -73.5q153 0 273 117l71 -82q-64 -64 -154.5 -102.5
t-197.5 -38.5q-174 0 -282.5 102.5t-108.5 280.5q0 57 13.5 107.5t31.5 86.5t56 80.5t65.5 70.5t81.5 75z" />
    <glyph glyph-name="Agrave" unicode="&#xc0;" horiz-adv-x="1447" 
d="M1300 0l-196 494h-764l-197 -494h-135l641 1573h152l639 -1573h-140zM385 606h674l-334 836h-4zM700 1667l-235 281h143l213 -281h-121z" />
    <glyph glyph-name="Aacute" unicode="&#xc1;" horiz-adv-x="1447" 
d="M1300 0l-196 494h-764l-197 -494h-135l641 1573h152l639 -1573h-140zM385 606h674l-334 836h-4zM983 1948l-235 -281h-119l211 281h143z" />
    <glyph glyph-name="Acircumflex" unicode="&#xc2;" horiz-adv-x="1447" 
d="M1300 0l-196 494h-764l-197 -494h-135l641 1573h152l639 -1573h-140zM385 606h674l-334 836h-4zM406 1667l256 281h122l258 -281h-133l-186 205l-186 -205h-131z" />
    <glyph glyph-name="Atilde" unicode="&#xc3;" horiz-adv-x="1447" 
d="M1300 0l-196 494h-764l-197 -494h-135l641 1573h152l639 -1573h-140zM385 606h674l-334 836h-4zM559 1911q47 0 94 -17.5t78.5 -38t73 -38t78.5 -17.5q45 0 72.5 24t33.5 83h84q-16 -203 -184 -203q-47 0 -94 17.5t-79 38t-73 38t-78 17.5q-45 0 -73 -24t-35 -83h-84
q18 203 186 203z" />
    <glyph glyph-name="Adieresis" unicode="&#xc4;" horiz-adv-x="1447" 
d="M1300 0l-196 494h-764l-197 -494h-135l641 1573h152l639 -1573h-140zM385 606h674l-334 836h-4zM862 1733v149h146v-149h-146zM438 1733v149h146v-149h-146z" />
    <glyph glyph-name="Aring" unicode="&#xc5;" horiz-adv-x="1447" 
d="M1300 0l-196 494h-764l-197 -494h-135l617 1509q-60 28 -95.5 83t-35.5 124q0 96 65.5 162t163.5 66t163.5 -66t65.5 -162q0 -67 -34.5 -122t-92.5 -83l615 -1511h-140zM385 606h674l-334 836h-4zM575 1716q0 -63 41.5 -107t106.5 -44q66 0 106.5 44t40.5 107
t-40.5 107.5t-106.5 44.5q-65 0 -106.5 -44.5t-41.5 -107.5z" />
    <glyph glyph-name="AE" unicode="&#xc6;" horiz-adv-x="1966" 
d="M1083 113h793v-113h-920v494h-544l-277 -494h-135l889 1573h973v-113h-779v-610h678v-113h-678v-624zM475 606h481v854h-4z" />
    <glyph glyph-name="Ccedilla" unicode="&#xc7;" horiz-adv-x="1447" 
d="M752 -373q-74 0 -152 19l16 80q66 -15 125 -15q113 0 113 72q0 38 -37.5 56t-130.5 22l41 127q-189 20 -330 129.5t-214.5 282.5t-73.5 386q0 231 85 414.5t246 289t373 105.5q183 0 327.5 -81.5t239.5 -227.5l-98 -69q-78 129 -196 198.5t-269 69.5q-136 0 -247 -55
t-183 -150t-110.5 -220.5t-38.5 -268.5t38.5 -269.5t110.5 -223t184.5 -152.5t251.5 -56q151 0 270 68.5t197 193.5l96 -67q-92 -142 -237 -222t-334 -81l-20 -60q87 -7 133.5 -43.5t46.5 -95.5q0 -71 -59 -113.5t-164 -42.5z" />
    <glyph glyph-name="Egrave" unicode="&#xc8;" horiz-adv-x="1259" 
d="M1169 0h-987v1573h973v-113h-846v-610h746v-113h-746v-624h860v-113zM662 1667l-236 281h143l213 -281h-120z" />
    <glyph glyph-name="Eacute" unicode="&#xc9;" horiz-adv-x="1259" 
d="M1169 0h-987v1573h973v-113h-846v-610h746v-113h-746v-624h860v-113zM944 1948l-235 -281h-119l211 281h143z" />
    <glyph glyph-name="Ecircumflex" unicode="&#xca;" horiz-adv-x="1259" 
d="M1169 0h-987v1573h973v-113h-846v-610h746v-113h-746v-624h860v-113zM367 1667l256 281h122l259 -281h-134l-186 205l-186 -205h-131z" />
    <glyph glyph-name="Edieresis" unicode="&#xcb;" horiz-adv-x="1259" 
d="M1169 0h-987v1573h973v-113h-846v-610h746v-113h-746v-624h860v-113zM823 1733v149h146v-149h-146zM399 1733v149h146v-149h-146z" />
    <glyph glyph-name="Igrave" unicode="&#xcc;" horiz-adv-x="491" 
d="M309 0h-127v1573h127v-1573zM223 1667l-235 281h143l213 -281h-121z" />
    <glyph glyph-name="Iacute" unicode="&#xcd;" horiz-adv-x="491" 
d="M309 0h-127v1573h127v-1573zM506 1948l-236 -281h-118l210 281h144z" />
    <glyph glyph-name="Icircumflex" unicode="&#xce;" horiz-adv-x="491" 
d="M309 0h-127v1573h127v-1573zM-72 1667l256 281h123l258 -281h-133l-186 205l-187 -205h-131z" />
    <glyph glyph-name="Idieresis" unicode="&#xcf;" horiz-adv-x="491" 
d="M309 0h-127v1573h127v-1573zM385 1733v149h145v-149h-145zM-39 1733v149h145v-149h-145z" />
    <glyph glyph-name="Eth" unicode="&#xd0;" horiz-adv-x="1562" 
d="M182 0v741h-194v107h194v725h500q186 0 334.5 -61.5t243.5 -169.5t145.5 -250t50.5 -306q0 -169 -52.5 -313.5t-149 -249.5t-239 -164t-315.5 -59h-518zM309 113h385q292 0 462.5 181t170.5 490q0 316 -178 496t-473 180h-367v-612h385v-107h-385v-628z" />
    <glyph glyph-name="Ntilde" unicode="&#xd1;" horiz-adv-x="1591" 
d="M1284 1573h125v-1573h-113l-985 1366h-4v-1366h-125v1573h131l967 -1344h4v1344zM633 1911q47 0 94 -17.5t78.5 -38t72.5 -38t78 -17.5q97 0 107 107h84q-16 -203 -184 -203q-47 0 -94 17.5t-79 38t-73 38t-78 17.5q-96 0 -109 -107h-84q18 203 187 203z" />
    <glyph glyph-name="Ograve" unicode="&#xd2;" horiz-adv-x="1662" 
d="M109 784q0 168 49 315t139 257.5t228 174.5t306 64q167 0 304.5 -63t228.5 -172t140.5 -256t49.5 -316q0 -168 -49 -315t-139.5 -257.5t-228.5 -174.5t-306 -64q-167 0 -304.5 63t-228 172t-140 256t-49.5 316zM238 786q0 -112 24 -215t73 -191t118.5 -153t166.5 -102
t211 -37q140 0 254.5 56t187.5 152.5t112.5 222t39.5 267.5q0 141 -39 266t-111.5 222t-187 154t-256.5 57q-140 0 -254 -56t-187.5 -152.5t-112.5 -222t-39 -268.5zM809 1667l-236 281h144l213 -281h-121z" />
    <glyph glyph-name="Oacute" unicode="&#xd3;" horiz-adv-x="1662" 
d="M109 784q0 168 49 315t139 257.5t228 174.5t306 64q167 0 304.5 -63t228.5 -172t140.5 -256t49.5 -316q0 -168 -49 -315t-139.5 -257.5t-228.5 -174.5t-306 -64q-167 0 -304.5 63t-228 172t-140 256t-49.5 316zM238 786q0 -112 24 -215t73 -191t118.5 -153t166.5 -102
t211 -37q140 0 254.5 56t187.5 152.5t112.5 222t39.5 267.5q0 141 -39 266t-111.5 222t-187 154t-256.5 57q-140 0 -254 -56t-187.5 -152.5t-112.5 -222t-39 -268.5zM1092 1948l-236 -281h-119l211 281h144z" />
    <glyph glyph-name="Ocircumflex" unicode="&#xd4;" horiz-adv-x="1662" 
d="M109 784q0 168 49 315t139 257.5t228 174.5t306 64q167 0 304.5 -63t228.5 -172t140.5 -256t49.5 -316q0 -168 -49 -315t-139.5 -257.5t-228.5 -174.5t-306 -64q-167 0 -304.5 63t-228 172t-140 256t-49.5 316zM238 786q0 -112 24 -215t73 -191t118.5 -153t166.5 -102
t211 -37q140 0 254.5 56t187.5 152.5t112.5 222t39.5 267.5q0 141 -39 266t-111.5 222t-187 154t-256.5 57q-140 0 -254 -56t-187.5 -152.5t-112.5 -222t-39 -268.5zM514 1667l256 281h123l258 -281h-133l-187 205l-186 -205h-131z" />
    <glyph glyph-name="Otilde" unicode="&#xd5;" horiz-adv-x="1662" 
d="M109 784q0 168 49 315t139 257.5t228 174.5t306 64q167 0 304.5 -63t228.5 -172t140.5 -256t49.5 -316q0 -168 -49 -315t-139.5 -257.5t-228.5 -174.5t-306 -64q-167 0 -304.5 63t-228 172t-140 256t-49.5 316zM238 786q0 -112 24 -215t73 -191t118.5 -153t166.5 -102
t211 -37q140 0 254.5 56t187.5 152.5t112.5 222t39.5 267.5q0 141 -39 266t-111.5 222t-187 154t-256.5 57q-140 0 -254 -56t-187.5 -152.5t-112.5 -222t-39 -268.5zM668 1911q47 0 94 -17.5t78.5 -38t72.5 -38t78 -17.5q97 0 107 107h84q-16 -203 -185 -203q-47 0 -94 17.5
t-79 38t-72.5 38t-77.5 17.5q-96 0 -109 -107h-84q18 203 187 203z" />
    <glyph glyph-name="Odieresis" unicode="&#xd6;" horiz-adv-x="1662" 
d="M109 784q0 168 49 315t139 257.5t228 174.5t306 64q167 0 304.5 -63t228.5 -172t140.5 -256t49.5 -316q0 -168 -49 -315t-139.5 -257.5t-228.5 -174.5t-306 -64q-167 0 -304.5 63t-228 172t-140 256t-49.5 316zM238 786q0 -112 24 -215t73 -191t118.5 -153t166.5 -102
t211 -37q140 0 254.5 56t187.5 152.5t112.5 222t39.5 267.5q0 141 -39 266t-111.5 222t-187 154t-256.5 57q-140 0 -254 -56t-187.5 -152.5t-112.5 -222t-39 -268.5zM971 1733v149h145v-149h-145zM547 1733v149h145v-149h-145z" />
    <glyph glyph-name="multiply" unicode="&#xd7;" horiz-adv-x="1153" 
d="M262 356l-69 70l313 313l-313 314l69 69l313 -313l314 313l69 -69l-313 -314l313 -313l-69 -70l-314 314z" />
    <glyph glyph-name="Oslash" unicode="&#xd8;" horiz-adv-x="1662" 
d="M1530 1612l-180 -236q99 -110 151.5 -261.5t52.5 -326.5q0 -168 -49 -315t-139.5 -257.5t-228.5 -174.5t-306 -64q-254 0 -440 146l-172 -225l-86 63l180 236q-99 110 -151.5 261t-52.5 326q0 168 49 315t139 257.5t228 174.5t306 64q257 0 441 -145l172 225zM389 297
l809 1057q-150 131 -367 131q-140 0 -254 -56t-187.5 -152.5t-112.5 -222t-39 -268.5q0 -294 151 -489zM1274 1276l-809 -1057q150 -131 366 -131q140 0 254.5 56t187.5 152.5t112.5 222t39.5 267.5q0 295 -151 490z" />
    <glyph glyph-name="Ugrave" unicode="&#xd9;" horiz-adv-x="1562" 
d="M1262 563v1010h124v-1016q0 -269 -161 -424.5t-445 -155.5q-273 0 -438.5 155.5t-165.5 424.5v1016h127v-1010q0 -216 128 -345.5t353 -129.5q226 0 352 129t126 346zM762 1667l-236 281h144l213 -281h-121z" />
    <glyph glyph-name="Uacute" unicode="&#xda;" horiz-adv-x="1562" 
d="M1262 563v1010h124v-1016q0 -269 -161 -424.5t-445 -155.5q-273 0 -438.5 155.5t-165.5 424.5v1016h127v-1010q0 -216 128 -345.5t353 -129.5q226 0 352 129t126 346zM1044 1948l-235 -281h-119l211 281h143z" />
    <glyph glyph-name="Ucircumflex" unicode="&#xdb;" horiz-adv-x="1562" 
d="M1262 563v1010h124v-1016q0 -269 -161 -424.5t-445 -155.5q-273 0 -438.5 155.5t-165.5 424.5v1016h127v-1010q0 -216 128 -345.5t353 -129.5q226 0 352 129t126 346zM467 1667l256 281h123l258 -281h-133l-187 205l-186 -205h-131z" />
    <glyph glyph-name="Udieresis" unicode="&#xdc;" horiz-adv-x="1562" 
d="M1262 563v1010h124v-1016q0 -269 -161 -424.5t-445 -155.5q-273 0 -438.5 155.5t-165.5 424.5v1016h127v-1010q0 -216 128 -345.5t353 -129.5q226 0 352 129t126 346zM924 1733v149h145v-149h-145zM500 1733v149h145v-149h-145z" />
    <glyph glyph-name="Yacute" unicode="&#xdd;" horiz-adv-x="1357" 
d="M1206 1573h142l-605 -950v-623h-127v621l-606 952h146l524 -832h4zM938 1948l-236 -281h-118l211 281h143z" />
    <glyph glyph-name="Thorn" unicode="&#xde;" horiz-adv-x="1402" 
d="M309 1282h486q152 0 271.5 -57.5t189 -169t69.5 -260.5q0 -223 -149.5 -356.5t-384.5 -133.5h-482v-305h-127v1573h127v-291zM309 420h473q191 0 302.5 100t111.5 273q0 176 -113.5 276t-304.5 100h-469v-749z" />
    <glyph glyph-name="germandbls" unicode="&#xdf;" horiz-adv-x="1269" 
d="M299 0h-123v1200q0 180 121.5 287.5t331.5 107.5q195 0 318.5 -106t123.5 -275q0 -120 -71.5 -212t-190.5 -132v-4q173 -32 271 -146t98 -282q0 -205 -143 -333t-363 -128q-107 0 -205 29v115q102 -37 201 -37q173 0 280 99.5t107 258.5q0 158 -106.5 256.5t-286.5 98.5
h-140v104h90q147 0 241.5 83.5t94.5 215.5q0 130 -87.5 209.5t-231.5 79.5q-160 0 -245 -82.5t-85 -218.5v-1188z" />
    <glyph glyph-name="agrave" unicode="&#xe0;" horiz-adv-x="1126" 
d="M954 0h-118l-2 197h-5q-124 -220 -366 -220q-159 0 -250.5 87t-91.5 227q0 243 282 301q137 29 431 39v143q0 96 -75.5 169t-217.5 73q-121 0 -192.5 -53.5t-98.5 -141.5l-109 41q39 122 144 191t260 69q193 0 301 -96.5t108 -261.5v-764zM479 84q151 0 253 108t102 244
v94q-198 -4 -359 -32q-118 -21 -174.5 -66.5t-56.5 -134.5q0 -97 64 -155t171 -58zM541 1241l-222 332h138l196 -332h-112z" />
    <glyph glyph-name="aacute" unicode="&#xe1;" horiz-adv-x="1126" 
d="M954 0h-118l-2 197h-5q-124 -220 -366 -220q-159 0 -250.5 87t-91.5 227q0 243 282 301q137 29 431 39v143q0 96 -75.5 169t-217.5 73q-121 0 -192.5 -53.5t-98.5 -141.5l-109 41q39 122 144 191t260 69q193 0 301 -96.5t108 -261.5v-764zM479 84q151 0 253 108t102 244
v94q-198 -4 -359 -32q-118 -21 -174.5 -66.5t-56.5 -134.5q0 -97 64 -155t171 -58zM803 1573l-221 -332h-111l197 332h135z" />
    <glyph glyph-name="acircumflex" unicode="&#xe2;" horiz-adv-x="1126" 
d="M954 0h-118l-2 197h-5q-124 -220 -366 -220q-159 0 -250.5 87t-91.5 227q0 243 282 301q137 29 431 39v143q0 96 -75.5 169t-217.5 73q-121 0 -192.5 -53.5t-98.5 -141.5l-109 41q39 122 144 191t260 69q193 0 301 -96.5t108 -261.5v-764zM479 84q151 0 253 108t102 244
v94q-198 -4 -359 -32q-118 -21 -174.5 -66.5t-56.5 -134.5q0 -97 64 -155t171 -58zM270 1241l228 332h127l227 -332h-123l-168 252l-170 -252h-121z" />
    <glyph glyph-name="atilde" unicode="&#xe3;" horiz-adv-x="1126" 
d="M954 0h-118l-2 197h-5q-124 -220 -366 -220q-159 0 -250.5 87t-91.5 227q0 243 282 301q137 29 431 39v143q0 96 -75.5 169t-217.5 73q-121 0 -192.5 -53.5t-98.5 -141.5l-109 41q39 122 144 191t260 69q193 0 301 -96.5t108 -261.5v-764zM479 84q151 0 253 108t102 244
v94q-198 -4 -359 -32q-118 -21 -174.5 -66.5t-56.5 -134.5q0 -97 64 -155t171 -58zM403 1518q45 0 90 -19.5t75.5 -43t70 -43t74.5 -19.5q44 0 70 27t32 96h84q-16 -220 -180 -220q-45 0 -90 19.5t-75.5 43t-69.5 43t-74 19.5q-44 0 -70.5 -27t-32.5 -96h-84q16 220 180 220
z" />
    <glyph glyph-name="adieresis" unicode="&#xe4;" horiz-adv-x="1126" 
d="M954 0h-118l-2 197h-5q-124 -220 -366 -220q-159 0 -250.5 87t-91.5 227q0 243 282 301q137 29 431 39v143q0 96 -75.5 169t-217.5 73q-121 0 -192.5 -53.5t-98.5 -141.5l-109 41q39 122 144 191t260 69q193 0 301 -96.5t108 -261.5v-764zM479 84q151 0 253 108t102 244
v94q-198 -4 -359 -32q-118 -21 -174.5 -66.5t-56.5 -134.5q0 -97 64 -155t171 -58zM694 1333v148h146v-148h-146zM283 1333v148h145v-148h-145z" />
    <glyph glyph-name="aring" unicode="&#xe5;" horiz-adv-x="1126" 
d="M954 0h-118l-2 197h-5q-124 -220 -366 -220q-159 0 -250.5 87t-91.5 227q0 243 282 301q137 29 431 39v143q0 96 -75.5 169t-217.5 73q-121 0 -192.5 -53.5t-98.5 -141.5l-109 41q39 122 144 191t260 69q193 0 301 -96.5t108 -261.5v-764zM479 84q151 0 253 108t102 244
v94q-198 -4 -359 -32q-118 -21 -174.5 -66.5t-56.5 -134.5q0 -97 64 -155t171 -58zM332 1454q0 96 65.5 161.5t163.5 65.5t164 -65.5t66 -161.5t-66 -161.5t-164 -65.5t-163.5 65.5t-65.5 161.5zM414 1454q0 -63 41 -107t106 -44q66 0 107 44t41 107t-41 107.5t-107 44.5
q-65 0 -106 -44.5t-41 -107.5z" />
    <glyph glyph-name="ae" unicode="&#xe6;" horiz-adv-x="1849" 
d="M250 821l-109 41q43 131 150.5 195.5t245.5 64.5q149 0 244 -59.5t132 -161.5q60 104 157.5 162.5t223.5 58.5q140 0 245 -70t158.5 -190.5t53.5 -273.5q0 -58 -6 -88h-807q15 -185 118.5 -300.5t272.5 -115.5q92 0 168 39t127 108l90 -77q-69 -85 -168 -131t-219 -46
q-155 0 -269.5 76t-174.5 211q-54 -129 -167 -208t-257 -79q-155 0 -246.5 87t-91.5 227q0 243 287 295q116 22 411 22v150q0 112 -72 185t-212 73q-106 0 -181 -50t-104 -145zM938 606h692q-6 182 -95.5 296t-242.5 114q-156 0 -249.5 -112.5t-104.5 -297.5zM819 434v74
q-206 0 -342 -19q-123 -18 -178 -62.5t-55 -139.5q0 -87 63.5 -145t167.5 -58q147 0 245.5 107t98.5 243z" />
    <glyph glyph-name="ccedilla" unicode="&#xe7;" horiz-adv-x="1099" 
d="M539 -373q-74 0 -152 19l16 80q66 -15 125 -15q113 0 113 72q0 38 -37.5 56t-130.5 22l41 129q-194 30 -306 185t-112 376q0 160 60 288.5t177.5 205.5t272.5 77q149 0 259 -70t173 -190l-104 -57q-49 99 -132.5 155t-195.5 56q-121 0 -210 -62.5t-133 -167t-44 -235.5
q0 -199 104.5 -332t284.5 -133q112 0 196.5 55t133.5 152l102 -57q-134 -254 -440 -254l-18 -60q87 -7 133.5 -43.5t46.5 -95.5q0 -71 -59 -113.5t-164 -42.5z" />
    <glyph glyph-name="egrave" unicode="&#xe8;" horiz-adv-x="1171" 
d="M946 231l90 -77q-154 -177 -403 -177q-245 0 -389 161.5t-144 420.5q0 159 58.5 286t172.5 202t265 75q219 0 348 -149.5t129 -382.5q0 -56 -6 -90h-842q15 -185 125 -300.5t287 -115.5q195 0 309 147zM225 606h727q-6 181 -100.5 295.5t-255.5 114.5q-163 0 -261.5 -113
t-109.5 -297zM565 1241l-221 332h137l197 -332h-113z" />
    <glyph glyph-name="eacute" unicode="&#xe9;" horiz-adv-x="1171" 
d="M946 231l90 -77q-154 -177 -403 -177q-245 0 -389 161.5t-144 420.5q0 159 58.5 286t172.5 202t265 75q219 0 348 -149.5t129 -382.5q0 -56 -6 -90h-842q15 -185 125 -300.5t287 -115.5q195 0 309 147zM225 606h727q-6 181 -100.5 295.5t-255.5 114.5q-163 0 -261.5 -113
t-109.5 -297zM827 1573l-221 -332h-110l196 332h135z" />
    <glyph glyph-name="ecircumflex" unicode="&#xea;" horiz-adv-x="1171" 
d="M946 231l90 -77q-154 -177 -403 -177q-245 0 -389 161.5t-144 420.5q0 159 58.5 286t172.5 202t265 75q219 0 348 -149.5t129 -382.5q0 -56 -6 -90h-842q15 -185 125 -300.5t287 -115.5q195 0 309 147zM225 606h727q-6 181 -100.5 295.5t-255.5 114.5q-163 0 -261.5 -113
t-109.5 -297zM295 1241l227 332h127l228 -332h-123l-168 252l-170 -252h-121z" />
    <glyph glyph-name="edieresis" unicode="&#xeb;" horiz-adv-x="1171" 
d="M946 231l90 -77q-154 -177 -403 -177q-245 0 -389 161.5t-144 420.5q0 159 58.5 286t172.5 202t265 75q219 0 348 -149.5t129 -382.5q0 -56 -6 -90h-842q15 -185 125 -300.5t287 -115.5q195 0 309 147zM225 606h727q-6 181 -100.5 295.5t-255.5 114.5q-163 0 -261.5 -113
t-109.5 -297zM719 1333v148h145v-148h-145zM307 1333v148h146v-148h-146z" />
    <glyph glyph-name="igrave" unicode="&#xec;" horiz-adv-x="475" 
d="M299 0h-123v1100h123v-1100zM217 1241l-221 332h137l197 -332h-113z" />
    <glyph glyph-name="iacute" unicode="&#xed;" horiz-adv-x="475" 
d="M299 0h-123v1100h123v-1100zM479 1573l-221 -332h-111l197 332h135z" />
    <glyph glyph-name="icircumflex" unicode="&#xee;" horiz-adv-x="475" 
d="M299 0h-123v1100h123v-1100zM-53 1241l227 332h127l227 -332h-122l-168 252l-170 -252h-121z" />
    <glyph glyph-name="idieresis" unicode="&#xef;" horiz-adv-x="475" 
d="M299 0h-123v1100h123v-1100zM371 1333v148h145v-148h-145zM-41 1333v148h145v-148h-145z" />
    <glyph glyph-name="eth" unicode="&#xf0;" horiz-adv-x="1243" 
d="M963 1520l-162 -117q160 -148 242.5 -364.5t82.5 -477.5q0 -263 -137 -423.5t-379 -160.5q-158 0 -276.5 75t-178 199t-59.5 277q0 152 58.5 275.5t171.5 197.5t262 74q243 0 370 -180l5 2q-80 275 -263 436l-221 -157l-59 71l198 148q-90 61 -219 112l43 103
q153 -49 277 -140l176 132zM614 84q122 0 212.5 59.5t135 157.5t44.5 221q0 191 -108.5 320t-297.5 129q-92 0 -165.5 -34.5t-120 -94.5t-71 -139t-24.5 -171q0 -126 44 -226t135 -161t216 -61z" />
    <glyph glyph-name="ntilde" unicode="&#xf1;" horiz-adv-x="1243" 
d="M176 0v1100h119l2 -205h4q119 227 379 227q181 0 286 -110.5t105 -288.5v-723h-123v696q0 139 -75 229.5t-220 90.5q-155 0 -254.5 -107.5t-99.5 -287.5v-621h-123zM469 1518q45 0 90 -19.5t75.5 -43t69.5 -43t74 -19.5q44 0 70.5 27t32.5 96h84q-16 -220 -181 -220
q-45 0 -90 19.5t-75.5 43t-69.5 43t-74 19.5q-44 0 -70 -27t-32 -96h-84q16 220 180 220z" />
    <glyph glyph-name="ograve" unicode="&#xf2;" horiz-adv-x="1243" 
d="M621 -23q-162 0 -283 78.5t-181.5 207.5t-60.5 288t61.5 287.5t183 206t282.5 77.5q121 0 221 -45t166 -122.5t101.5 -181.5t35.5 -222q0 -159 -60.5 -288t-182 -207.5t-283.5 -78.5zM623 1016q-188 0 -296 -133.5t-108 -333.5q0 -95 27 -179t77 -148t127 -101t171 -37
q126 0 219 64t138.5 168t45.5 233t-45 233.5t-137.5 169t-218.5 64.5zM600 1241l-221 332h137l197 -332h-113z" />
    <glyph glyph-name="oacute" unicode="&#xf3;" horiz-adv-x="1243" 
d="M621 -23q-162 0 -283 78.5t-181.5 207.5t-60.5 288t61.5 287.5t183 206t282.5 77.5q121 0 221 -45t166 -122.5t101.5 -181.5t35.5 -222q0 -159 -60.5 -288t-182 -207.5t-283.5 -78.5zM623 1016q-188 0 -296 -133.5t-108 -333.5q0 -95 27 -179t77 -148t127 -101t171 -37
q126 0 219 64t138.5 168t45.5 233t-45 233.5t-137.5 169t-218.5 64.5zM862 1573l-221 -332h-111l197 332h135z" />
    <glyph glyph-name="ocircumflex" unicode="&#xf4;" horiz-adv-x="1243" 
d="M621 -23q-162 0 -283 78.5t-181.5 207.5t-60.5 288t61.5 287.5t183 206t282.5 77.5q121 0 221 -45t166 -122.5t101.5 -181.5t35.5 -222q0 -159 -60.5 -288t-182 -207.5t-283.5 -78.5zM623 1016q-188 0 -296 -133.5t-108 -333.5q0 -95 27 -179t77 -148t127 -101t171 -37
q126 0 219 64t138.5 168t45.5 233t-45 233.5t-137.5 169t-218.5 64.5zM330 1241l227 332h127l227 -332h-123l-167 252l-170 -252h-121z" />
    <glyph glyph-name="otilde" unicode="&#xf5;" horiz-adv-x="1243" 
d="M621 -23q-162 0 -283 78.5t-181.5 207.5t-60.5 288t61.5 287.5t183 206t282.5 77.5q121 0 221 -45t166 -122.5t101.5 -181.5t35.5 -222q0 -159 -60.5 -288t-182 -207.5t-283.5 -78.5zM623 1016q-188 0 -296 -133.5t-108 -333.5q0 -95 27 -179t77 -148t127 -101t171 -37
q126 0 219 64t138.5 168t45.5 233t-45 233.5t-137.5 169t-218.5 64.5zM463 1518q45 0 90 -19.5t75.5 -43t69.5 -43t74 -19.5q44 0 70 27t32 96h84q-16 -220 -180 -220q-45 0 -90 19.5t-75.5 43t-69.5 43t-74 19.5q-44 0 -70 -27t-32 -96h-84q16 220 180 220z" />
    <glyph glyph-name="odieresis" unicode="&#xf6;" horiz-adv-x="1243" 
d="M621 -23q-162 0 -283 78.5t-181.5 207.5t-60.5 288t61.5 287.5t183 206t282.5 77.5q121 0 221 -45t166 -122.5t101.5 -181.5t35.5 -222q0 -159 -60.5 -288t-182 -207.5t-283.5 -78.5zM623 1016q-188 0 -296 -133.5t-108 -333.5q0 -95 27 -179t77 -148t127 -101t171 -37
q126 0 219 64t138.5 168t45.5 233t-45 233.5t-137.5 169t-218.5 64.5zM754 1333v148h145v-148h-145zM342 1333v148h145v-148h-145z" />
    <glyph glyph-name="divide" unicode="&#xf7;" horiz-adv-x="1153" 
d="M510 1130v136h131v-136h-131zM106 694v94h938v-94h-938zM510 217v135h131v-135h-131z" />
    <glyph glyph-name="oslash" unicode="&#xf8;" horiz-adv-x="1243" 
d="M1137 1130l-133 -169q143 -158 143 -410q0 -159 -60.5 -288t-182 -207.5t-283.5 -78.5q-180 0 -310 97l-127 -162l-78 57l134 170q-144 159 -144 412q0 159 61.5 287.5t183 206t282.5 77.5q180 0 309 -96l127 162zM313 233l549 703q-99 80 -239 80q-188 0 -296 -133.5
t-108 -333.5q0 -187 94 -316zM930 866l-549 -702q99 -80 240 -80q126 0 219 64t138.5 168t45.5 233q0 188 -94 317z" />
    <glyph glyph-name="ugrave" unicode="&#xf9;" horiz-adv-x="1243" 
d="M1067 1100v-1100h-121l-2 205h-4q-56 -110 -152.5 -169t-226.5 -59q-180 0 -284.5 110.5t-104.5 287.5v725h123v-697q0 -139 75 -229t220 -90q155 0 254.5 107.5t99.5 287.5v621h123zM598 1241l-221 332h137l197 -332h-113z" />
    <glyph glyph-name="uacute" unicode="&#xfa;" horiz-adv-x="1243" 
d="M1067 1100v-1100h-121l-2 205h-4q-56 -110 -152.5 -169t-226.5 -59q-180 0 -284.5 110.5t-104.5 287.5v725h123v-697q0 -139 75 -229t220 -90q155 0 254.5 107.5t99.5 287.5v621h123zM860 1573l-221 -332h-111l197 332h135z" />
    <glyph glyph-name="ucircumflex" unicode="&#xfb;" horiz-adv-x="1243" 
d="M1067 1100v-1100h-121l-2 205h-4q-56 -110 -152.5 -169t-226.5 -59q-180 0 -284.5 110.5t-104.5 287.5v725h123v-697q0 -139 75 -229t220 -90q155 0 254.5 107.5t99.5 287.5v621h123zM328 1241l227 332h127l227 -332h-123l-168 252l-169 -252h-121z" />
    <glyph glyph-name="udieresis" unicode="&#xfc;" horiz-adv-x="1243" 
d="M1067 1100v-1100h-121l-2 205h-4q-56 -110 -152.5 -169t-226.5 -59q-180 0 -284.5 110.5t-104.5 287.5v725h123v-697q0 -139 75 -229t220 -90q155 0 254.5 107.5t99.5 287.5v621h123zM752 1333v148h145v-148h-145zM340 1333v148h145v-148h-145z" />
    <glyph glyph-name="yacute" unicode="&#xfd;" horiz-adv-x="1081" 
d="M920 1100h129l-486 -1206q-63 -156 -136.5 -223.5t-190.5 -67.5q-71 0 -134 24v103q62 -23 117 -23q80 0 130.5 48t101.5 165l30 72l-448 1108h133l377 -955h4zM795 1573l-222 -332h-110l196 332h136z" />
    <glyph glyph-name="thorn" unicode="&#xfe;" 
d="M696 -23q-259 0 -393 234h-4v-586h-123v1948h123v-694h4q65 117 171 180t233 63q146 0 256.5 -78t166.5 -206t56 -285q0 -156 -57.5 -286t-170.5 -210t-262 -80zM676 86q120 0 209.5 63t133.5 166t44 232q0 95 -25 178.5t-72 148.5t-121.5 102.5t-166.5 37.5
q-122 0 -211 -66.5t-130.5 -171t-41.5 -231.5q0 -130 43 -232.5t131 -164.5t207 -62z" />
    <glyph glyph-name="ydieresis" unicode="&#xff;" horiz-adv-x="1081" 
d="M920 1100h129l-486 -1206q-63 -156 -136.5 -223.5t-190.5 -67.5q-71 0 -134 24v103q62 -23 117 -23q80 0 130.5 48t101.5 165l30 72l-448 1108h133l377 -955h4zM686 1333v148h145v-148h-145zM274 1333v148h146v-148h-146z" />
    <glyph glyph-name="Amacron" unicode="&#x100;" horiz-adv-x="1447" 
d="M1300 0l-196 494h-764l-197 -494h-135l641 1573h152l639 -1573h-140zM385 606h674l-334 836h-4zM446 1755v98h553v-98h-553z" />
    <glyph glyph-name="amacron" unicode="&#x101;" horiz-adv-x="1126" 
d="M954 0h-118l-2 197h-5q-124 -220 -366 -220q-159 0 -250.5 87t-91.5 227q0 243 282 301q137 29 431 39v143q0 96 -75.5 169t-217.5 73q-121 0 -192.5 -53.5t-98.5 -141.5l-109 41q39 122 144 191t260 69q193 0 301 -96.5t108 -261.5v-764zM479 84q151 0 253 108t102 244
v94q-198 -4 -359 -32q-118 -21 -174.5 -66.5t-56.5 -134.5q0 -97 64 -155t171 -58zM293 1358v98h534v-98h-534z" />
    <glyph glyph-name="Abreve" unicode="&#x102;" horiz-adv-x="1447" 
d="M1300 0l-196 494h-764l-197 -494h-135l641 1573h152l639 -1573h-140zM385 606h674l-334 836h-4zM723 1753q98 0 149.5 51.5t61.5 134.5h92q-9 -123 -86 -197.5t-217 -74.5q-139 0 -216 74.5t-85 197.5h92q10 -83 61 -134.5t148 -51.5z" />
    <glyph glyph-name="abreve" unicode="&#x103;" horiz-adv-x="1126" 
d="M954 0h-118l-2 197h-5q-124 -220 -366 -220q-159 0 -250.5 87t-91.5 227q0 243 282 301q137 29 431 39v143q0 96 -75.5 169t-217.5 73q-121 0 -192.5 -53.5t-98.5 -141.5l-109 41q39 122 144 191t260 69q193 0 301 -96.5t108 -261.5v-764zM479 84q151 0 253 108t102 244
v94q-198 -4 -359 -32q-118 -21 -174.5 -66.5t-56.5 -134.5q0 -97 64 -155t171 -58zM561 1337q92 0 141.5 59.5t59.5 155.5h90q-8 -134 -82.5 -216.5t-208.5 -82.5t-208.5 83t-82.5 216h90q10 -96 59.5 -155.5t141.5 -59.5z" />
    <glyph glyph-name="Aogonek" unicode="&#x104;" horiz-adv-x="1447" 
d="M801 1573l639 -1573q-223 -91 -223 -211q0 -86 131 -86q48 0 88 6v-92q-54 -14 -123 -14q-106 0 -162.5 50.5t-56.5 123.5q0 142 196 250l-186 467h-764l-197 -494h-135l641 1573h152zM385 606h674l-334 836h-4z" />
    <glyph glyph-name="aogonek" unicode="&#x105;" horiz-adv-x="1126" 
d="M834 -397q-104 0 -161 47t-57 117q0 139 220 266l-2 164h-5q-118 -220 -366 -220q-159 0 -250.5 87t-91.5 227q0 243 282 301q137 29 431 39v143q0 96 -75.5 169t-217.5 73q-121 0 -192.5 -53.5t-98.5 -141.5l-109 41q39 122 144 191t260 69q193 0 301 -96.5t108 -261.5
v-764q-217 -106 -217 -213q0 -84 127 -84q54 0 90 8v-94q-54 -14 -120 -14zM479 84q151 0 253 108t102 244v94q-198 -4 -359 -32q-118 -21 -174.5 -66.5t-56.5 -134.5q0 -97 64 -155t171 -58z" />
    <glyph glyph-name="Cacute" unicode="&#x106;" horiz-adv-x="1447" 
d="M817 -23q-161 0 -295 62t-224 170.5t-139.5 256.5t-49.5 320q0 231 85 414.5t246 289t373 105.5q183 0 327.5 -81.5t239.5 -227.5l-98 -69q-78 129 -196 198.5t-269 69.5q-136 0 -247 -55t-183 -150t-110.5 -220.5t-38.5 -268.5q0 -144 38.5 -270.5t110.5 -223.5
t184.5 -153t251.5 -56q151 0 270 68.5t197 193.5l96 -67q-92 -143 -238.5 -224.5t-330.5 -81.5zM1130 1948l-235 -281h-119l211 281h143z" />
    <glyph glyph-name="cacute" unicode="&#x107;" horiz-adv-x="1099" 
d="M606 -23q-155 0 -272.5 77t-177.5 206t-60 289q0 161 60 290t177.5 206t272.5 77q149 0 259 -70t173 -190l-104 -57q-49 99 -132.5 155t-195.5 56q-121 0 -210 -62.5t-133 -167t-44 -235.5q0 -201 104.5 -334t284.5 -133q112 0 196.5 55t133.5 152l102 -58
q-63 -120 -174 -188t-260 -68zM870 1573l-221 -332h-110l196 332h135z" />
    <glyph glyph-name="Ccircumflex" unicode="&#x108;" horiz-adv-x="1447" 
d="M817 -23q-161 0 -295 62t-224 170.5t-139.5 256.5t-49.5 320q0 231 85 414.5t246 289t373 105.5q183 0 327.5 -81.5t239.5 -227.5l-98 -69q-78 129 -196 198.5t-269 69.5q-136 0 -247 -55t-183 -150t-110.5 -220.5t-38.5 -268.5q0 -144 38.5 -270.5t110.5 -223.5
t184.5 -153t251.5 -56q151 0 270 68.5t197 193.5l96 -67q-92 -143 -238.5 -224.5t-330.5 -81.5zM492 1667l256 281h122l258 -281h-133l-186 205l-186 -205h-131z" />
    <glyph glyph-name="ccircumflex" unicode="&#x109;" horiz-adv-x="1099" 
d="M606 -23q-155 0 -272.5 77t-177.5 206t-60 289q0 161 60 290t177.5 206t272.5 77q149 0 259 -70t173 -190l-104 -57q-49 99 -132.5 155t-195.5 56q-121 0 -210 -62.5t-133 -167t-44 -235.5q0 -201 104.5 -334t284.5 -133q112 0 196.5 55t133.5 152l102 -58
q-63 -120 -174 -188t-260 -68zM307 1241l228 332h127l227 -332h-123l-168 252l-170 -252h-121z" />
    <glyph glyph-name="Cdotaccent" unicode="&#x10a;" horiz-adv-x="1447" 
d="M817 -23q-161 0 -295 62t-224 170.5t-139.5 256.5t-49.5 320q0 231 85 414.5t246 289t373 105.5q183 0 327.5 -81.5t239.5 -227.5l-98 -69q-78 129 -196 198.5t-269 69.5q-136 0 -247 -55t-183 -150t-110.5 -220.5t-38.5 -268.5q0 -144 38.5 -270.5t110.5 -223.5
t184.5 -153t251.5 -56q151 0 270 68.5t197 193.5l96 -67q-92 -143 -238.5 -224.5t-330.5 -81.5zM735 1733v149h148v-149h-148z" />
    <glyph glyph-name="cdotaccent" unicode="&#x10b;" horiz-adv-x="1099" 
d="M606 -23q-155 0 -272.5 77t-177.5 206t-60 289q0 161 60 290t177.5 206t272.5 77q149 0 259 -70t173 -190l-104 -57q-49 99 -132.5 155t-195.5 56q-121 0 -210 -62.5t-133 -167t-44 -235.5q0 -201 104.5 -334t284.5 -133q112 0 196.5 55t133.5 152l102 -58
q-63 -120 -174 -188t-260 -68zM524 1333v148h148v-148h-148z" />
    <glyph glyph-name="Ccaron" unicode="&#x10c;" horiz-adv-x="1447" 
d="M817 -23q-161 0 -295 62t-224 170.5t-139.5 256.5t-49.5 320q0 231 85 414.5t246 289t373 105.5q183 0 327.5 -81.5t239.5 -227.5l-98 -69q-78 129 -196 198.5t-269 69.5q-136 0 -247 -55t-183 -150t-110.5 -220.5t-38.5 -268.5q0 -144 38.5 -270.5t110.5 -223.5
t184.5 -153t251.5 -56q151 0 270 68.5t197 193.5l96 -67q-92 -143 -238.5 -224.5t-330.5 -81.5zM1128 1948l-256 -281h-122l-258 281h133l186 -205l186 205h131z" />
    <glyph glyph-name="ccaron" unicode="&#x10d;" horiz-adv-x="1099" 
d="M606 -23q-155 0 -272.5 77t-177.5 206t-60 289q0 161 60 290t177.5 206t272.5 77q149 0 259 -70t173 -190l-104 -57q-49 99 -132.5 155t-195.5 56q-121 0 -210 -62.5t-133 -167t-44 -235.5q0 -201 104.5 -334t284.5 -133q112 0 196.5 55t133.5 152l102 -58
q-63 -120 -174 -188t-260 -68zM889 1573l-227 -332h-127l-228 332h123l168 -252l170 252h121z" />
    <glyph glyph-name="Dcaron" unicode="&#x10e;" horiz-adv-x="1562" 
d="M182 0v1573h500q186 0 334.5 -61.5t243.5 -169.5t145.5 -250t50.5 -306q0 -169 -52.5 -313.5t-149 -249.5t-239 -164t-315.5 -59h-518zM309 113h385q292 0 462.5 181t170.5 490q0 316 -178 496t-473 180h-367v-1347zM1051 1948l-256 -281h-123l-258 281h133l186 -205
l187 205h131z" />
    <glyph glyph-name="dcaron" unicode="&#x10f;" horiz-adv-x="1501" 
d="M582 -23q-111 0 -203 45t-152.5 122t-93.5 179.5t-33 217.5q0 162 58.5 293t171 209.5t260.5 78.5q253 0 393 -229h4v680h123v-1573h-121l-2 219h-4q-66 -115 -168.5 -178.5t-232.5 -63.5zM604 86q179 0 283 130t104 333q0 206 -103 335.5t-280 129.5q-122 0 -211 -65.5
t-131.5 -169.5t-42.5 -232q0 -126 42.5 -229t130.5 -167.5t208 -64.5zM1499 1573l-143 -334h-103l119 334h127z" />
    <glyph glyph-name="Dcroat" unicode="&#x110;" horiz-adv-x="1562" 
d="M182 0v741h-194v107h194v725h500q186 0 334.5 -61.5t243.5 -169.5t145.5 -250t50.5 -306q0 -169 -52.5 -313.5t-149 -249.5t-239 -164t-315.5 -59h-518zM309 113h385q292 0 462.5 181t170.5 490q0 316 -178 496t-473 180h-367v-612h385v-107h-385v-628z" />
    <glyph glyph-name="dcroat" unicode="&#x111;" 
d="M582 -23q-111 0 -203 45t-152.5 122t-93.5 179.5t-33 217.5q0 162 58.5 293t171 209.5t260.5 78.5q253 0 393 -229h4v395h-377v96h377v189h123v-189h162v-96h-162v-1288h-121l-2 219h-4q-66 -115 -168.5 -178.5t-232.5 -63.5zM604 86q179 0 283 130t104 333
q0 206 -103 335.5t-280 129.5q-122 0 -211 -65.5t-131.5 -169.5t-42.5 -232q0 -126 42.5 -229t130.5 -167.5t208 -64.5z" />
    <glyph glyph-name="Emacron" unicode="&#x112;" horiz-adv-x="1259" 
d="M1169 0h-987v1573h973v-113h-846v-610h746v-113h-746v-624h860v-113zM408 1755v98h553v-98h-553z" />
    <glyph glyph-name="emacron" unicode="&#x113;" horiz-adv-x="1171" 
d="M946 231l90 -77q-154 -177 -403 -177q-245 0 -389 161.5t-144 420.5q0 159 58.5 286t172.5 202t265 75q219 0 348 -149.5t129 -382.5q0 -56 -6 -90h-842q15 -185 125 -300.5t287 -115.5q195 0 309 147zM225 606h727q-6 181 -100.5 295.5t-255.5 114.5q-163 0 -261.5 -113
t-109.5 -297zM317 1358v98h535v-98h-535z" />
    <glyph glyph-name="Ebreve" unicode="&#x114;" horiz-adv-x="1259" 
d="M1169 0h-987v1573h973v-113h-846v-610h746v-113h-746v-624h860v-113zM684 1753q98 0 149.5 51.5t61.5 134.5h92q-9 -123 -86 -197.5t-217 -74.5q-139 0 -216 74.5t-85 197.5h92q10 -83 61 -134.5t148 -51.5z" />
    <glyph glyph-name="ebreve" unicode="&#x115;" horiz-adv-x="1171" 
d="M946 231l90 -77q-154 -177 -403 -177q-245 0 -389 161.5t-144 420.5q0 159 58.5 286t172.5 202t265 75q219 0 348 -149.5t129 -382.5q0 -56 -6 -90h-842q15 -185 125 -300.5t287 -115.5q195 0 309 147zM225 606h727q-6 181 -100.5 295.5t-255.5 114.5q-163 0 -261.5 -113
t-109.5 -297zM586 1337q92 0 141 59.5t59 155.5h91q-8 -134 -82.5 -216.5t-208.5 -82.5t-208.5 83t-82.5 216h90q10 -96 59.5 -155.5t141.5 -59.5z" />
    <glyph glyph-name="Edotaccent" unicode="&#x116;" horiz-adv-x="1259" 
d="M1169 0h-987v1573h973v-113h-846v-610h746v-113h-746v-624h860v-113zM610 1733v149h148v-149h-148z" />
    <glyph glyph-name="edotaccent" unicode="&#x117;" horiz-adv-x="1171" 
d="M946 231l90 -77q-154 -177 -403 -177q-245 0 -389 161.5t-144 420.5q0 159 58.5 286t172.5 202t265 75q219 0 348 -149.5t129 -382.5q0 -56 -6 -90h-842q15 -185 125 -300.5t287 -115.5q195 0 309 147zM225 606h727q-6 181 -100.5 295.5t-255.5 114.5q-163 0 -261.5 -113
t-109.5 -297zM512 1333v148h147v-148h-147z" />
    <glyph glyph-name="Eogonek" unicode="&#x118;" horiz-adv-x="1259" 
d="M182 0v1573h973v-113h-846v-610h746v-113h-746v-624h860v-113q-107 -52 -159 -104t-52 -111q0 -82 125 -82q45 0 86 6v-94q-46 -12 -116 -12q-108 0 -163.5 47t-55.5 121q0 64 41 122t116 103v4h-809z" />
    <glyph glyph-name="eogonek" unicode="&#x119;" horiz-adv-x="1171" 
d="M786 -397q-107 0 -163 49t-56 121q0 103 119 207v4q-18 -4 -53 -4q-245 0 -389 160.5t-144 416.5q0 160 58.5 287.5t172.5 202.5t265 75q219 0 348 -149.5t129 -382.5q0 -56 -6 -90h-842q18 -184 126.5 -299t285.5 -115q195 0 309 145l90 -77q-52 -55 -114 -93
q-232 -148 -232 -268q0 -90 131 -90q52 0 88 8v-94q-51 -14 -123 -14zM225 606h727q-6 181 -100.5 295.5t-255.5 114.5q-163 0 -261.5 -113t-109.5 -297z" />
    <glyph glyph-name="Ecaron" unicode="&#x11a;" horiz-adv-x="1259" 
d="M1169 0h-987v1573h973v-113h-846v-610h746v-113h-746v-624h860v-113zM1004 1948l-256 -281h-123l-258 281h133l186 -205l186 205h132z" />
    <glyph glyph-name="ecaron" unicode="&#x11b;" horiz-adv-x="1171" 
d="M946 231l90 -77q-154 -177 -403 -177q-245 0 -389 161.5t-144 420.5q0 159 58.5 286t172.5 202t265 75q219 0 348 -149.5t129 -382.5q0 -56 -6 -90h-842q15 -185 125 -300.5t287 -115.5q195 0 309 147zM225 606h727q-6 181 -100.5 295.5t-255.5 114.5q-163 0 -261.5 -113
t-109.5 -297zM877 1573l-228 -332h-127l-227 332h123l168 -252l170 252h121z" />
    <glyph glyph-name="Gcircumflex" unicode="&#x11c;" horiz-adv-x="1591" 
d="M913 791h531v-791h-121l-4 297h-4q-66 -140 -197.5 -230t-322.5 -90q-128 0 -238.5 41.5t-192 116t-139.5 175.5t-87 222t-29 254q0 169 49 316.5t138.5 257t225.5 172.5t301 63q191 0 340 -83t248 -234l-96 -70q-82 135 -206.5 206t-281.5 71q-265 0 -427 -193
t-162 -508q0 -203 70.5 -361.5t199 -246.5t295.5 -88q225 0 370.5 149.5t145.5 372.5q0 52 -2 70h-404v111zM496 1667l256 281h122l259 -281h-134l-186 205l-186 -205h-131z" />
    <glyph glyph-name="gcircumflex" unicode="&#x11d;" horiz-adv-x="1269" 
d="M1094 1100v-1002q0 -245 -139.5 -370t-376.5 -125q-218 0 -390 108l60 103q158 -105 336 -105q85 0 152.5 21t121.5 66t83.5 123t29.5 185v150h-4q-61 -113 -165 -177.5t-233 -64.5q-143 0 -251.5 74.5t-164 198t-55.5 276.5q0 114 33.5 215.5t94.5 178.5t153 122t203 45
q132 0 230.5 -63t158.5 -170h4l4 211h115zM598 119q174 0 275.5 128t101.5 318q0 196 -101 322.5t-276 126.5t-276 -128.5t-101 -320.5q0 -123 41.5 -222.5t128.5 -161.5t207 -62zM332 1241l227 332h127l227 -332h-122l-168 252l-170 -252h-121z" />
    <glyph glyph-name="Gbreve" unicode="&#x11e;" horiz-adv-x="1591" 
d="M913 791h531v-791h-121l-4 297h-4q-66 -140 -197.5 -230t-322.5 -90q-128 0 -238.5 41.5t-192 116t-139.5 175.5t-87 222t-29 254q0 169 49 316.5t138.5 257t225.5 172.5t301 63q191 0 340 -83t248 -234l-96 -70q-82 135 -206.5 206t-281.5 71q-265 0 -427 -193
t-162 -508q0 -203 70.5 -361.5t199 -246.5t295.5 -88q225 0 370.5 149.5t145.5 372.5q0 52 -2 70h-404v111zM813 1753q98 0 149.5 51.5t61.5 134.5h92q-9 -123 -86 -197.5t-217 -74.5q-139 0 -216 74.5t-85 197.5h92q10 -83 61 -134.5t148 -51.5z" />
    <glyph glyph-name="gbreve" unicode="&#x11f;" horiz-adv-x="1269" 
d="M1094 1100v-1002q0 -245 -139.5 -370t-376.5 -125q-218 0 -390 108l60 103q158 -105 336 -105q85 0 152.5 21t121.5 66t83.5 123t29.5 185v150h-4q-61 -113 -165 -177.5t-233 -64.5q-143 0 -251.5 74.5t-164 198t-55.5 276.5q0 114 33.5 215.5t94.5 178.5t153 122t203 45
q132 0 230.5 -63t158.5 -170h4l4 211h115zM598 119q174 0 275.5 128t101.5 318q0 196 -101 322.5t-276 126.5t-276 -128.5t-101 -320.5q0 -123 41.5 -222.5t128.5 -161.5t207 -62zM623 1337q92 0 141 59.5t59 155.5h90q-8 -134 -82 -216.5t-208 -82.5t-208.5 83t-82.5 216
h90q10 -96 59.5 -155.5t141.5 -59.5z" />
    <glyph glyph-name="Gdotaccent" unicode="&#x120;" horiz-adv-x="1591" 
d="M913 791h531v-791h-121l-4 297h-4q-66 -140 -197.5 -230t-322.5 -90q-128 0 -238.5 41.5t-192 116t-139.5 175.5t-87 222t-29 254q0 169 49 316.5t138.5 257t225.5 172.5t301 63q191 0 340 -83t248 -234l-96 -70q-82 135 -206.5 206t-281.5 71q-265 0 -427 -193
t-162 -508q0 -203 70.5 -361.5t199 -246.5t295.5 -88q225 0 370.5 149.5t145.5 372.5q0 52 -2 70h-404v111zM739 1733v149h148v-149h-148z" />
    <glyph glyph-name="gdotaccent" unicode="&#x121;" horiz-adv-x="1269" 
d="M1094 1100v-1002q0 -245 -139.5 -370t-376.5 -125q-218 0 -390 108l60 103q158 -105 336 -105q85 0 152.5 21t121.5 66t83.5 123t29.5 185v150h-4q-61 -113 -165 -177.5t-233 -64.5q-143 0 -251.5 74.5t-164 198t-55.5 276.5q0 114 33.5 215.5t94.5 178.5t153 122t203 45
q132 0 230.5 -63t158.5 -170h4l4 211h115zM598 119q174 0 275.5 128t101.5 318q0 196 -101 322.5t-276 126.5t-276 -128.5t-101 -320.5q0 -123 41.5 -222.5t128.5 -161.5t207 -62zM549 1333v148h147v-148h-147z" />
    <glyph glyph-name="Gcommaaccent" unicode="&#x122;" horiz-adv-x="1591" 
d="M913 791h531v-791h-121l-4 297h-4q-66 -140 -197.5 -230t-322.5 -90q-128 0 -238.5 41.5t-192 116t-139.5 175.5t-87 222t-29 254q0 169 49 316.5t138.5 257t225.5 172.5t301 63q191 0 340 -83t248 -234l-96 -70q-82 135 -206.5 206t-281.5 71q-265 0 -427 -193
t-162 -508q0 -203 70.5 -361.5t199 -246.5t295.5 -88q225 0 370.5 149.5t145.5 372.5q0 52 -2 70h-404v111zM899 -76l-143 -334h-103l119 334h127z" />
    <glyph glyph-name="gcommaaccent" unicode="&#x123;" horiz-adv-x="1269" 
d="M1094 1100v-1002q0 -245 -139.5 -370t-376.5 -125q-218 0 -390 108l60 103q158 -105 336 -105q85 0 152.5 21t121.5 66t83.5 123t29.5 185v150h-4q-61 -113 -165 -177.5t-233 -64.5q-143 0 -251.5 74.5t-164 198t-55.5 276.5q0 114 33.5 215.5t94.5 178.5t153 122t203 45
q132 0 230.5 -63t158.5 -170h4l4 211h115zM598 119q174 0 275.5 128t101.5 318q0 196 -101 322.5t-276 126.5t-276 -128.5t-101 -320.5q0 -123 41.5 -222.5t128.5 -161.5t207 -62zM502 1225l143 362h100l-118 -362h-125z" />
    <glyph glyph-name="Hcircumflex" unicode="&#x124;" horiz-adv-x="1562" 
d="M309 0h-127v1573h127v-723h944v723h127v-1573h-127v737h-944v-737zM463 1667l256 281h123l258 -281h-133l-187 205l-186 -205h-131z" />
    <glyph glyph-name="hcircumflex" unicode="&#x125;" horiz-adv-x="1243" 
d="M176 0v1573h123v-676h4q120 225 377 225q181 0 286 -110.5t105 -288.5v-723h-123v696q0 139 -75 229.5t-220 90.5q-155 0 -254.5 -107.5t-99.5 -287.5v-621h-123zM-82 1667l256 281h123l258 -281h-133l-186 205l-187 -205h-131z" />
    <glyph glyph-name="Hbar" unicode="&#x126;" horiz-adv-x="1562" 
d="M-23 1300h205v273h127v-273h944v273h127v-273h205v-106h-205v-1194h-127v737h-944v-737h-127v1194h-205v106zM309 850h944v344h-944v-344z" />
    <glyph glyph-name="hbar" unicode="&#x127;" horiz-adv-x="1243" 
d="M176 0v1288h-162v96h162v189h123v-189h377v-96h-377v-391h4q120 225 377 225q181 0 286 -110.5t105 -288.5v-723h-123v696q0 139 -75 229.5t-220 90.5q-155 0 -254.5 -107.5t-99.5 -287.5v-621h-123z" />
    <glyph glyph-name="Itilde" unicode="&#x128;" horiz-adv-x="491" 
d="M309 0h-127v1573h127v-1573zM82 1911q47 0 94 -17.5t78.5 -38t73 -38t78.5 -17.5q45 0 72.5 24t33.5 83h84q-16 -203 -184 -203q-47 0 -94 17.5t-79 38t-73 38t-78 17.5q-45 0 -73 -24t-35 -83h-84q18 203 186 203z" />
    <glyph glyph-name="itilde" unicode="&#x129;" horiz-adv-x="475" 
d="M299 0h-123v1100h123v-1100zM80 1518q45 0 90 -19.5t75.5 -43t69.5 -43t74 -19.5q44 0 70.5 27t32.5 96h83q-16 -220 -180 -220q-45 0 -90 19.5t-75.5 43t-69.5 43t-74 19.5q-44 0 -70 -27t-32 -96h-84q16 220 180 220z" />
    <glyph glyph-name="Imacron" unicode="&#x12a;" horiz-adv-x="491" 
d="M309 0h-127v1573h127v-1573zM-31 1755v98h553v-98h-553z" />
    <glyph glyph-name="imacron" unicode="&#x12b;" horiz-adv-x="475" 
d="M299 0h-123v1100h123v-1100zM-31 1358v98h535v-98h-535z" />
    <glyph glyph-name="Ibreve" unicode="&#x12c;" horiz-adv-x="491" 
d="M309 0h-127v1573h127v-1573zM246 1753q98 0 149.5 51.5t61.5 134.5h92q-9 -123 -86 -197.5t-217 -74.5q-139 0 -216 74.5t-85 197.5h92q10 -83 61 -134.5t148 -51.5z" />
    <glyph glyph-name="ibreve" unicode="&#x12d;" horiz-adv-x="475" 
d="M299 0h-123v1100h123v-1100zM238 1337q92 0 141 59.5t59 155.5h90q-8 -134 -82 -216.5t-208 -82.5t-208.5 83t-82.5 216h90q10 -96 59.5 -155.5t141.5 -59.5z" />
    <glyph glyph-name="Iogonek" unicode="&#x12e;" horiz-adv-x="491" 
d="M309 1573v-1571q-127 -110 -127 -209q0 -44 29 -67t98 -23q45 0 82 6v-94q-47 -12 -112 -12q-108 0 -164 50t-56 126q0 122 123 235v1559h127z" />
    <glyph glyph-name="iogonek" unicode="&#x12f;" horiz-adv-x="475" 
d="M162 1423v150h151v-150h-151zM299 1100v-1100q-125 -108 -125 -205q0 -92 127 -92q45 0 80 6v-94q-43 -12 -111 -12q-106 0 -161.5 51t-55.5 127q0 120 123 233v1086h123z" />
    <glyph glyph-name="Idotaccent" unicode="&#x130;" horiz-adv-x="491" 
d="M309 0h-127v1573h127v-1573zM172 1733v149h147v-149h-147z" />
    <glyph glyph-name="dotlessi" unicode="&#x131;" horiz-adv-x="475" 
d="M299 0h-123v1100h123v-1100z" />
    <glyph glyph-name="IJ" unicode="&#x132;" horiz-adv-x="1376" 
d="M309 0h-127v1573h127v-1573zM815 -23q-147 0 -264 74l53 101q63 -34 106.5 -49t98.5 -15q130 0 197 79t67 212v1194h127v-1198q0 -179 -101 -288.5t-284 -109.5z" />
    <glyph glyph-name="ij" unicode="&#x133;" horiz-adv-x="950" 
d="M162 1423v150h151v-150h-151zM299 0h-123v1100h123v-1100zM637 1423v150h151v-150h-151zM434 -387v100q34 -6 66 -6q151 0 151 172v1221h123v-1219q0 -130 -61.5 -204t-190.5 -74q-50 0 -88 10z" />
    <glyph glyph-name="Jcircumflex" unicode="&#x134;" horiz-adv-x="884" 
d="M324 -23q-148 0 -265 74l54 101q63 -34 106 -49t98 -15q131 0 198 79t67 212v1194h127v-1198q0 -179 -101 -288.5t-284 -109.5zM328 1667l256 281h123l258 -281h-134l-186 205l-186 -205h-131z" />
    <glyph glyph-name="jcircumflex" unicode="&#x135;" horiz-adv-x="475" 
d="M-41 -387v100q35 -6 66 -6q151 0 151 172v1221h123v-1219q0 -130 -61.5 -204t-190.5 -74q-50 0 -88 10zM-53 1241l227 332h127l227 -332h-122l-168 252l-170 -252h-121z" />
    <glyph glyph-name="Kcommaaccent" unicode="&#x136;" horiz-adv-x="1357" 
d="M1165 0l-487 737h-369v-737h-127v1573h127v-723h361l473 723h151l-510 -770l535 -803h-154zM782 -76l-143 -334h-102l118 334h127z" />
    <glyph glyph-name="kcommaaccent" unicode="&#x137;" horiz-adv-x="1071" 
d="M887 0l-367 520h-221v-520h-123v1573h123v-948h229l342 475h146l-387 -527l407 -573h-149zM682 -76l-143 -334h-103l119 334h127z" />
    <glyph glyph-name="kgreenlandic" unicode="&#x138;" horiz-adv-x="1071" 
d="M887 0l-367 520h-221v-520h-123v1100h123v-475h229l342 475h146l-387 -527l407 -573h-149z" />
    <glyph glyph-name="Lacute" unicode="&#x139;" horiz-adv-x="1171" 
d="M182 0v1573h127v-1460h844v-113h-971zM551 1948l-236 -281h-118l211 281h143z" />
    <glyph glyph-name="lacute" unicode="&#x13a;" horiz-adv-x="475" 
d="M299 0h-123v1573h123v-1573zM522 1948l-235 -281h-119l211 281h143z" />
    <glyph glyph-name="Lcommaaccent" unicode="&#x13b;" horiz-adv-x="1171" 
d="M182 0v1573h127v-1460h844v-113h-971zM750 -76l-144 -334h-102l119 334h127z" />
    <glyph glyph-name="lcommaaccent" unicode="&#x13c;" horiz-adv-x="475" 
d="M299 0h-123v1573h123v-1573zM356 -76l-143 -334h-102l118 334h127z" />
    <glyph glyph-name="Lcaron" unicode="&#x13d;" horiz-adv-x="1171" 
d="M182 0v1573h127v-1460h844v-113h-971zM563 1014l113 559h121l-138 -559h-96z" />
    <glyph glyph-name="lcaron" unicode="&#x13e;" horiz-adv-x="696" 
d="M299 0h-123v1573h123v-1573zM694 1573l-143 -334h-102l118 334h127z" />
    <glyph glyph-name="Ldot" unicode="&#x13f;" horiz-adv-x="1171" 
d="M182 0v1573h127v-1460h844v-113h-971zM778 688v148h148v-148h-148z" />
    <glyph glyph-name="ldot" unicode="&#x140;" horiz-adv-x="849" 
d="M299 0h-123v1573h123v-1573zM588 713v147h147v-147h-147z" />
    <glyph glyph-name="Lslash" unicode="&#x141;" horiz-adv-x="1171" 
d="M309 113h844v-113h-971v610l-194 -112v118l194 113v844h127v-772l297 172v-119l-297 -172v-569z" />
    <glyph glyph-name="lslash" unicode="&#x142;" horiz-adv-x="475" 
d="M475 969v-119l-176 -107v-743h-123v668l-176 -107v119l176 106v787h123v-711z" />
    <glyph glyph-name="Nacute" unicode="&#x143;" horiz-adv-x="1591" 
d="M1284 1573h125v-1573h-113l-985 1366h-4v-1366h-125v1573h131l967 -1344h4v1344zM1057 1948l-236 -281h-119l211 281h144z" />
    <glyph glyph-name="nacute" unicode="&#x144;" horiz-adv-x="1243" 
d="M176 0v1100h119l2 -205h4q119 227 379 227q181 0 286 -110.5t105 -288.5v-723h-123v696q0 139 -75 229.5t-220 90.5q-155 0 -254.5 -107.5t-99.5 -287.5v-621h-123zM868 1573l-221 -332h-110l196 332h135z" />
    <glyph glyph-name="Ncommaaccent" unicode="&#x145;" horiz-adv-x="1591" 
d="M1284 1573h125v-1573h-113l-985 1366h-4v-1366h-125v1573h131l967 -1344h4v1344zM899 -76l-143 -334h-103l119 334h127z" />
    <glyph glyph-name="ncommaaccent" unicode="&#x146;" horiz-adv-x="1243" 
d="M176 0v1100h119l2 -205h4q119 227 379 227q181 0 286 -110.5t105 -288.5v-723h-123v696q0 139 -75 229.5t-220 90.5q-155 0 -254.5 -107.5t-99.5 -287.5v-621h-123zM731 -76l-143 -334h-103l119 334h127z" />
    <glyph glyph-name="Ncaron" unicode="&#x147;" horiz-adv-x="1591" 
d="M1284 1573h125v-1573h-113l-985 1366h-4v-1366h-125v1573h131l967 -1344h4v1344zM1116 1948l-256 -281h-123l-258 281h133l187 -205l186 205h131z" />
    <glyph glyph-name="ncaron" unicode="&#x148;" horiz-adv-x="1243" 
d="M176 0v1100h119l2 -205h4q119 227 379 227q181 0 286 -110.5t105 -288.5v-723h-123v696q0 139 -75 229.5t-220 90.5q-155 0 -254.5 -107.5t-99.5 -287.5v-621h-123zM918 1573l-228 -332h-127l-227 332h123l168 -252l170 252h121z" />
    <glyph glyph-name="napostrophe" unicode="&#x149;" horiz-adv-x="1243" 
d="M176 0v1100h119l2 -205h4q119 227 379 227q181 0 286 -110.5t105 -288.5v-723h-123v696q0 139 -75 229.5t-220 90.5q-155 0 -254.5 -107.5t-99.5 -287.5v-621h-123zM410 1573l-144 -334h-102l119 334h127z" />
    <glyph glyph-name="Eng" unicode="&#x14a;" horiz-adv-x="1591" 
d="M1284 1573h125v-1610q0 -165 -90.5 -262.5t-253.5 -97.5q-129 0 -217 55l45 94q74 -45 164 -45q113 0 170 70t57 190v49l-973 1350h-4v-1366h-125v1573h131l967 -1344h4v1344z" />
    <glyph glyph-name="eng" unicode="&#x14b;" horiz-adv-x="1243" 
d="M176 0v1100h119l2 -205h4q119 227 379 227q181 0 286 -110.5t105 -288.5v-842q0 -129 -61 -203.5t-187 -74.5q-54 0 -92 10v98q28 -4 51 -4q166 0 166 189v800q0 139 -75 229.5t-220 90.5q-155 0 -254.5 -107.5t-99.5 -287.5v-621h-123z" />
    <glyph glyph-name="Omacron" unicode="&#x14c;" horiz-adv-x="1662" 
d="M109 784q0 168 49 315t139 257.5t228 174.5t306 64q167 0 304.5 -63t228.5 -172t140.5 -256t49.5 -316q0 -168 -49 -315t-139.5 -257.5t-228.5 -174.5t-306 -64q-167 0 -304.5 63t-228 172t-140 256t-49.5 316zM238 786q0 -112 24 -215t73 -191t118.5 -153t166.5 -102
t211 -37q140 0 254.5 56t187.5 152.5t112.5 222t39.5 267.5q0 141 -39 266t-111.5 222t-187 154t-256.5 57q-140 0 -254 -56t-187.5 -152.5t-112.5 -222t-39 -268.5zM555 1755v98h553v-98h-553z" />
    <glyph glyph-name="omacron" unicode="&#x14d;" horiz-adv-x="1243" 
d="M621 -23q-162 0 -283 78.5t-181.5 207.5t-60.5 288t61.5 287.5t183 206t282.5 77.5q121 0 221 -45t166 -122.5t101.5 -181.5t35.5 -222q0 -159 -60.5 -288t-182 -207.5t-283.5 -78.5zM623 1016q-188 0 -296 -133.5t-108 -333.5q0 -95 27 -179t77 -148t127 -101t171 -37
q126 0 219 64t138.5 168t45.5 233t-45 233.5t-137.5 169t-218.5 64.5zM352 1358v98h535v-98h-535z" />
    <glyph glyph-name="Obreve" unicode="&#x14e;" horiz-adv-x="1662" 
d="M109 784q0 168 49 315t139 257.5t228 174.5t306 64q167 0 304.5 -63t228.5 -172t140.5 -256t49.5 -316q0 -168 -49 -315t-139.5 -257.5t-228.5 -174.5t-306 -64q-167 0 -304.5 63t-228 172t-140 256t-49.5 316zM238 786q0 -112 24 -215t73 -191t118.5 -153t166.5 -102
t211 -37q140 0 254.5 56t187.5 152.5t112.5 222t39.5 267.5q0 141 -39 266t-111.5 222t-187 154t-256.5 57q-140 0 -254 -56t-187.5 -152.5t-112.5 -222t-39 -268.5zM831 1753q98 0 149.5 51.5t61.5 134.5h93q-9 -123 -86 -197.5t-218 -74.5q-139 0 -216 74.5t-85 197.5h93
q10 -83 60.5 -134.5t147.5 -51.5z" />
    <glyph glyph-name="obreve" unicode="&#x14f;" horiz-adv-x="1243" 
d="M621 -23q-162 0 -283 78.5t-181.5 207.5t-60.5 288t61.5 287.5t183 206t282.5 77.5q121 0 221 -45t166 -122.5t101.5 -181.5t35.5 -222q0 -159 -60.5 -288t-182 -207.5t-283.5 -78.5zM623 1016q-188 0 -296 -133.5t-108 -333.5q0 -95 27 -179t77 -148t127 -101t171 -37
q126 0 219 64t138.5 168t45.5 233t-45 233.5t-137.5 169t-218.5 64.5zM621 1337q92 0 141 59.5t59 155.5h90q-8 -134 -82 -216.5t-208 -82.5t-208.5 83t-82.5 216h90q10 -96 59.5 -155.5t141.5 -59.5z" />
    <glyph glyph-name="Ohungarumlaut" unicode="&#x150;" horiz-adv-x="1662" 
d="M109 784q0 168 49 315t139 257.5t228 174.5t306 64q167 0 304.5 -63t228.5 -172t140.5 -256t49.5 -316q0 -168 -49 -315t-139.5 -257.5t-228.5 -174.5t-306 -64q-167 0 -304.5 63t-228 172t-140 256t-49.5 316zM238 786q0 -112 24 -215t73 -191t118.5 -153t166.5 -102
t211 -37q140 0 254.5 56t187.5 152.5t112.5 222t39.5 267.5q0 141 -39 266t-111.5 222t-187 154t-256.5 57q-140 0 -254 -56t-187.5 -152.5t-112.5 -222t-39 -268.5zM1243 1948l-233 -281h-111l215 281h129zM934 1948l-234 -281h-112l215 281h131z" />
    <glyph glyph-name="ohungarumlaut" unicode="&#x151;" horiz-adv-x="1243" 
d="M621 -23q-162 0 -283 78.5t-181.5 207.5t-60.5 288t61.5 287.5t183 206t282.5 77.5q121 0 221 -45t166 -122.5t101.5 -181.5t35.5 -222q0 -159 -60.5 -288t-182 -207.5t-283.5 -78.5zM623 1016q-188 0 -296 -133.5t-108 -333.5q0 -95 27 -179t77 -148t127 -101t171 -37
q126 0 219 64t138.5 168t45.5 233t-45 233.5t-137.5 169t-218.5 64.5zM1018 1573l-225 -332h-111l205 332h131zM719 1573l-225 -332h-111l205 332h131z" />
    <glyph glyph-name="OE" unicode="&#x152;" horiz-adv-x="2125" 
d="M2036 0h-1162q-148 0 -273 40.5t-215.5 113.5t-154 172t-94.5 217t-31 248q0 228 92.5 405t268 277t407.5 100h1147v-113h-774v-610h674v-113h-674v-624h789v-113zM1120 1460h-241q-297 0 -470 -179t-173 -490q0 -313 176.5 -495.5t466.5 -182.5h241v1347z" />
    <glyph glyph-name="oe" unicode="&#x153;" horiz-adv-x="2037" 
d="M1812 231l91 -77q-69 -83 -170.5 -130t-221.5 -47q-162 0 -281 81.5t-177 222.5q-58 -139 -173.5 -221.5t-275.5 -82.5q-157 0 -274 78.5t-175.5 207.5t-58.5 288t59 287.5t176 206t273 77.5q159 0 272.5 -79.5t172.5 -217.5q55 139 165.5 218t262.5 79q212 0 337 -149.5
t125 -382.5q0 -46 -6 -90h-819q15 -186 120 -301t277 -115q186 0 301 147zM1114 606h705q-5 182 -97 296t-249 114q-159 0 -253.5 -112t-105.5 -298zM608 84q121 0 210.5 64t133 168t43.5 233q0 130 -43.5 234.5t-132.5 168.5t-211 64t-211.5 -64t-133.5 -168.5t-44 -234.5
q0 -129 44 -233t134 -168t211 -64z" />
    <glyph glyph-name="Racute" unicode="&#x154;" horiz-adv-x="1402" 
d="M1169 0l-348 690h-512v-690h-127v1573h590q224 0 364 -115t140 -321q0 -156 -88.5 -264t-243.5 -150l369 -723h-144zM309 1460v-657h441q178 0 287.5 87t109.5 243t-106 241.5t-283 85.5h-449zM971 1948l-236 -281h-119l211 281h144z" />
    <glyph glyph-name="racute" unicode="&#x155;" horiz-adv-x="751" 
d="M176 0v1100h119l2 -205h2q48 109 127 168t182 59q60 0 107 -18v-121q-58 21 -115 21q-133 0 -217 -104.5t-84 -250.5v-649h-123zM659 1573l-221 -332h-110l196 332h135z" />
    <glyph glyph-name="Rcommaaccent" unicode="&#x156;" horiz-adv-x="1402" 
d="M1169 0l-348 690h-512v-690h-127v1573h590q224 0 364 -115t140 -321q0 -156 -88.5 -264t-243.5 -150l369 -723h-144zM309 1460v-657h441q178 0 287.5 87t109.5 243t-106 241.5t-283 85.5h-449zM788 -76l-143 -334h-102l119 334h126z" />
    <glyph glyph-name="rcommaaccent" unicode="&#x157;" horiz-adv-x="751" 
d="M176 0v1100h119l2 -205h2q48 109 127 168t182 59q60 0 107 -18v-121q-58 21 -115 21q-133 0 -217 -104.5t-84 -250.5v-649h-123zM379 -76l-143 -334h-103l119 334h127z" />
    <glyph glyph-name="Rcaron" unicode="&#x158;" horiz-adv-x="1402" 
d="M1169 0l-348 690h-512v-690h-127v1573h590q224 0 364 -115t140 -321q0 -156 -88.5 -264t-243.5 -150l369 -723h-144zM309 1460v-657h441q178 0 287.5 87t109.5 243t-106 241.5t-283 85.5h-449zM1030 1948l-256 -281h-123l-258 281h133l187 -205l186 205h131z" />
    <glyph glyph-name="rcaron" unicode="&#x159;" horiz-adv-x="751" 
d="M176 0v1100h119l2 -205h2q48 109 127 168t182 59q60 0 107 -18v-121q-58 21 -115 21q-133 0 -217 -104.5t-84 -250.5v-649h-123zM709 1573l-228 -332h-127l-227 332h123l168 -252l170 252h121z" />
    <glyph glyph-name="Sacute" unicode="&#x15a;" 
d="M627 -23q-348 0 -555 232l86 84q100 -102 208.5 -153.5t260.5 -51.5q210 0 320 90t110 240q0 39 -7.5 71t-25.5 58.5t-36.5 46.5t-53 38t-61.5 30.5t-75.5 27t-82 23t-92.5 22.5t-99.5 24.5t-93 27t-88 34t-75.5 41.5t-65.5 53t-47.5 64.5t-32.5 81t-10.5 98.5
q0 196 143 316t389 120q318 0 520 -233l-92 -82q-93 108 -195 156.5t-233 48.5q-189 0 -296 -89t-107 -229q0 -34 7.5 -63.5t18 -52.5t32 -44t40.5 -36t53 -30.5t58.5 -25.5t69.5 -22.5t73.5 -20t81.5 -20.5t89 -22.5t84 -24.5t80.5 -29t71 -34t63.5 -41.5t50.5 -50.5
t40.5 -62t24 -74.5t9 -89.5q0 -201 -147.5 -324t-411.5 -123zM901 1948l-235 -281h-119l211 281h143z" />
    <glyph glyph-name="sacute" unicode="&#x15b;" horiz-adv-x="1028" 
d="M508 -23q-266 0 -438 150l77 90q142 -133 359 -133q150 0 229.5 57.5t79.5 151.5q0 28 -8.5 50.5t-20.5 39.5t-37 32.5t-46 25t-60 21t-66.5 18.5t-78.5 18q-73 16 -120.5 29t-103.5 38t-88.5 55t-54.5 77t-22 108q0 142 109.5 229.5t301.5 87.5q245 0 404 -155l-82 -88
q-143 137 -324 137q-137 0 -212 -56.5t-75 -146.5q0 -38 15 -66.5t40 -47.5t66 -34.5t84 -26.5t105 -25q4 -1 6 -1q74 -17 122 -30.5t104.5 -39t88.5 -55.5t54 -77.5t22 -108.5q0 -145 -115 -234.5t-315 -89.5zM750 1573l-222 -332h-110l196 332h136z" />
    <glyph glyph-name="Scircumflex" unicode="&#x15c;" 
d="M627 -23q-348 0 -555 232l86 84q100 -102 208.5 -153.5t260.5 -51.5q210 0 320 90t110 240q0 39 -7.5 71t-25.5 58.5t-36.5 46.5t-53 38t-61.5 30.5t-75.5 27t-82 23t-92.5 22.5t-99.5 24.5t-93 27t-88 34t-75.5 41.5t-65.5 53t-47.5 64.5t-32.5 81t-10.5 98.5
q0 196 143 316t389 120q318 0 520 -233l-92 -82q-93 108 -195 156.5t-233 48.5q-189 0 -296 -89t-107 -229q0 -34 7.5 -63.5t18 -52.5t32 -44t40.5 -36t53 -30.5t58.5 -25.5t69.5 -22.5t73.5 -20t81.5 -20.5t89 -22.5t84 -24.5t80.5 -29t71 -34t63.5 -41.5t50.5 -50.5
t40.5 -62t24 -74.5t9 -89.5q0 -201 -147.5 -324t-411.5 -123zM324 1667l256 281h122l259 -281h-134l-186 205l-186 -205h-131z" />
    <glyph glyph-name="scircumflex" unicode="&#x15d;" horiz-adv-x="1028" 
d="M508 -23q-266 0 -438 150l77 90q142 -133 359 -133q150 0 229.5 57.5t79.5 151.5q0 28 -8.5 50.5t-20.5 39.5t-37 32.5t-46 25t-60 21t-66.5 18.5t-78.5 18q-73 16 -120.5 29t-103.5 38t-88.5 55t-54.5 77t-22 108q0 142 109.5 229.5t301.5 87.5q245 0 404 -155l-82 -88
q-143 137 -324 137q-137 0 -212 -56.5t-75 -146.5q0 -38 15 -66.5t40 -47.5t66 -34.5t84 -26.5t105 -25q4 -1 6 -1q74 -17 122 -30.5t104.5 -39t88.5 -55.5t54 -77.5t22 -108.5q0 -145 -115 -234.5t-315 -89.5zM217 1241l227 332h127l228 -332h-123l-168 252l-170 -252h-121
z" />
    <glyph glyph-name="Scedilla" unicode="&#x15e;" 
d="M598 -373q-74 0 -152 19l17 80q66 -15 125 -15q112 0 112 72q0 38 -37.5 56t-130.5 22l39 123q-308 12 -499 227l86 84q100 -102 208.5 -153.5t260.5 -51.5q210 0 320 90t110 240q0 60 -23 106.5t-54 75.5t-96.5 55.5t-115.5 40.5t-145 37q-59 14 -99.5 24.5t-93 27
t-88 34t-75.5 41.5t-65.5 53t-47.5 64.5t-32.5 81t-10.5 98.5q0 196 143 316t389 120q318 0 520 -233l-92 -82q-93 108 -195 156.5t-233 48.5q-189 0 -296 -89t-107 -229q0 -34 7.5 -63.5t18 -52.5t32 -44t40.5 -36t53 -30.5t58.5 -25.5t69.5 -22.5t73.5 -20t81.5 -20.5
t89 -22.5t84 -24.5t80.5 -29t71 -34t63.5 -41.5t50.5 -50.5t40.5 -62t24 -74.5t9 -89.5q0 -193 -138 -314t-386 -128l-19 -60q86 -7 132 -43.5t46 -95.5q0 -71 -59 -113.5t-164 -42.5z" />
    <glyph glyph-name="scedilla" unicode="&#x15f;" horiz-adv-x="1028" 
d="M487 -373q-73 0 -151 19l16 80q66 -15 125 -15q113 0 113 72q0 38 -37.5 56t-130.5 22l41 125q-238 9 -393 143l77 90q142 -133 359 -133q150 0 229.5 57t79.5 150q0 28 -8.5 50.5t-20.5 39.5t-37 32.5t-46 25t-60 21t-66.5 18.5t-78.5 18q-73 16 -120.5 29t-103.5 38
t-88.5 55t-54.5 77t-22 108q0 142 109.5 229.5t301.5 87.5q245 0 404 -155l-82 -88q-143 137 -324 137q-137 0 -212 -56.5t-75 -146.5q0 -38 15 -66.5t40 -47.5t66 -34.5t84 -26.5t105 -25q4 -1 6 -1q61 -14 102.5 -25.5t91 -29.5t81.5 -40t60.5 -52t42 -71t13.5 -91
q0 -136 -102 -223t-283 -94l-21 -64q86 -7 132.5 -43.5t46.5 -95.5q0 -71 -59.5 -113.5t-164.5 -42.5z" />
    <glyph glyph-name="Scaron" unicode="&#x160;" 
d="M627 -23q-348 0 -555 232l86 84q100 -102 208.5 -153.5t260.5 -51.5q210 0 320 90t110 240q0 39 -7.5 71t-25.5 58.5t-36.5 46.5t-53 38t-61.5 30.5t-75.5 27t-82 23t-92.5 22.5t-99.5 24.5t-93 27t-88 34t-75.5 41.5t-65.5 53t-47.5 64.5t-32.5 81t-10.5 98.5
q0 196 143 316t389 120q318 0 520 -233l-92 -82q-93 108 -195 156.5t-233 48.5q-189 0 -296 -89t-107 -229q0 -34 7.5 -63.5t18 -52.5t32 -44t40.5 -36t53 -30.5t58.5 -25.5t69.5 -22.5t73.5 -20t81.5 -20.5t89 -22.5t84 -24.5t80.5 -29t71 -34t63.5 -41.5t50.5 -50.5
t40.5 -62t24 -74.5t9 -89.5q0 -201 -147.5 -324t-411.5 -123zM961 1948l-256 -281h-123l-258 281h133l186 -205l186 205h132z" />
    <glyph glyph-name="scaron" unicode="&#x161;" horiz-adv-x="1028" 
d="M508 -23q-266 0 -438 150l77 90q142 -133 359 -133q150 0 229.5 57.5t79.5 151.5q0 28 -8.5 50.5t-20.5 39.5t-37 32.5t-46 25t-60 21t-66.5 18.5t-78.5 18q-73 16 -120.5 29t-103.5 38t-88.5 55t-54.5 77t-22 108q0 142 109.5 229.5t301.5 87.5q245 0 404 -155l-82 -88
q-143 137 -324 137q-137 0 -212 -56.5t-75 -146.5q0 -38 15 -66.5t40 -47.5t66 -34.5t84 -26.5t105 -25q4 -1 6 -1q74 -17 122 -30.5t104.5 -39t88.5 -55.5t54 -77.5t22 -108.5q0 -145 -115 -234.5t-315 -89.5zM799 1573l-228 -332h-127l-227 332h123l168 -252l170 252h121z
" />
    <glyph glyph-name="Tcommaaccent" unicode="&#x162;" horiz-adv-x="1331" 
d="M729 0h-20l-25 -78q85 -7 131.5 -44t46.5 -95q0 -71 -59 -113.5t-164 -42.5q-74 0 -152 19l17 80q66 -15 125 -15q112 0 112 72q0 38 -37.5 56t-130.5 22l45 139h-16v1460h-577v113h1282v-113h-578v-1460z" />
    <glyph glyph-name="tcommaaccent" unicode="&#x163;" horiz-adv-x="706" 
d="M666 995h-287v-702q0 -100 49 -151.5t160 -51.5q38 0 78 6v-100q-52 -12 -117 -12q-48 0 -96 10l-23 -72q85 -7 131.5 -44t46.5 -95q0 -71 -59 -113.5t-164 -42.5q-74 0 -152 19l17 80q66 -15 125 -15q112 0 112 72q0 38 -37.5 56t-130.5 22l54 162q-117 69 -117 256v716
h-244v105h244v348h123v-348h287v-105z" />
    <glyph glyph-name="Tcaron" unicode="&#x164;" horiz-adv-x="1331" 
d="M729 0h-127v1460h-577v113h1282v-113h-578v-1460zM985 1948l-256 -281h-123l-258 281h133l187 -205l186 205h131z" />
    <glyph glyph-name="tcaron" unicode="&#x165;" horiz-adv-x="706" 
d="M12 995v105h244v348h123v-348h287v-105h-287v-702q0 -100 49 -151.5t160 -51.5q38 0 78 6v-100q-52 -12 -117 -12q-149 0 -221 73.5t-72 221.5v716h-244zM793 1573l-144 -334h-102l119 334h127z" />
    <glyph glyph-name="Tbar" unicode="&#x166;" horiz-adv-x="1331" 
d="M729 0h-127v743h-319v107h319v610h-577v113h1282v-113h-578v-610h320v-107h-320v-743z" />
    <glyph glyph-name="tbar" unicode="&#x167;" horiz-adv-x="706" 
d="M12 995v105h244v348h123v-348h287v-105h-287v-340h287v-104h-287v-246q0 -108 50.5 -161.5t166.5 -53.5q43 0 70 2v-96q-52 -12 -117 -12q-149 0 -221 73.5t-72 221.5v272h-244v104h244v340h-244z" />
    <glyph glyph-name="Utilde" unicode="&#x168;" horiz-adv-x="1562" 
d="M1262 563v1010h124v-1016q0 -269 -161 -424.5t-445 -155.5q-273 0 -438.5 155.5t-165.5 424.5v1016h127v-1010q0 -216 128 -345.5t353 -129.5q226 0 352 129t126 346zM621 1911q47 0 94 -17.5t78.5 -38t72.5 -38t78 -17.5q97 0 107 107h84q-16 -203 -185 -203
q-47 0 -94 17.5t-79 38t-72.5 38t-77.5 17.5q-96 0 -109 -107h-84q18 203 187 203z" />
    <glyph glyph-name="utilde" unicode="&#x169;" horiz-adv-x="1243" 
d="M1067 1100v-1100h-121l-2 205h-4q-56 -110 -152.5 -169t-226.5 -59q-180 0 -284.5 110.5t-104.5 287.5v725h123v-697q0 -139 75 -229t220 -90q155 0 254.5 107.5t99.5 287.5v621h123zM461 1518q45 0 90 -19.5t75.5 -43t69.5 -43t74 -19.5q44 0 70 27t32 96h84
q-16 -220 -180 -220q-45 0 -90 19.5t-75.5 43t-69.5 43t-74 19.5q-44 0 -70 -27t-32 -96h-84q16 220 180 220z" />
    <glyph glyph-name="Umacron" unicode="&#x16a;" horiz-adv-x="1562" 
d="M1262 563v1010h124v-1016q0 -269 -161 -424.5t-445 -155.5q-273 0 -438.5 155.5t-165.5 424.5v1016h127v-1010q0 -216 128 -345.5t353 -129.5q226 0 352 129t126 346zM508 1755v98h553v-98h-553z" />
    <glyph glyph-name="umacron" unicode="&#x16b;" horiz-adv-x="1243" 
d="M1067 1100v-1100h-121l-2 205h-4q-56 -110 -152.5 -169t-226.5 -59q-180 0 -284.5 110.5t-104.5 287.5v725h123v-697q0 -139 75 -229t220 -90q155 0 254.5 107.5t99.5 287.5v621h123zM350 1358v98h535v-98h-535z" />
    <glyph glyph-name="Ubreve" unicode="&#x16c;" horiz-adv-x="1562" 
d="M1262 563v1010h124v-1016q0 -269 -161 -424.5t-445 -155.5q-273 0 -438.5 155.5t-165.5 424.5v1016h127v-1010q0 -216 128 -345.5t353 -129.5q226 0 352 129t126 346zM784 1753q98 0 149.5 51.5t61.5 134.5h92q-9 -123 -86 -197.5t-217 -74.5q-139 0 -216 74.5t-85 197.5
h92q10 -83 61 -134.5t148 -51.5z" />
    <glyph glyph-name="ubreve" unicode="&#x16d;" horiz-adv-x="1243" 
d="M1067 1100v-1100h-121l-2 205h-4q-56 -110 -152.5 -169t-226.5 -59q-180 0 -284.5 110.5t-104.5 287.5v725h123v-697q0 -139 75 -229t220 -90q155 0 254.5 107.5t99.5 287.5v621h123zM618 1337q92 0 141.5 59.5t59.5 155.5h90q-8 -134 -82.5 -216.5t-208.5 -82.5t-208 83
t-82 216h90q10 -96 59 -155.5t141 -59.5z" />
    <glyph glyph-name="Uring" unicode="&#x16e;" horiz-adv-x="1562" 
d="M1262 563v1010h124v-1016q0 -269 -161 -424.5t-445 -155.5q-273 0 -438.5 155.5t-165.5 424.5v1016h127v-1010q0 -216 128 -345.5t353 -129.5q226 0 352 129t126 346zM555 1716q0 96 65.5 162t163.5 66t164 -66t66 -162t-66 -161.5t-164 -65.5t-163.5 65.5t-65.5 161.5z
M637 1716q0 -63 41 -107t106 -44q66 0 107 44t41 107t-41 107.5t-107 44.5q-65 0 -106 -44.5t-41 -107.5z" />
    <glyph glyph-name="uring" unicode="&#x16f;" horiz-adv-x="1243" 
d="M1067 1100v-1100h-121l-2 205h-4q-56 -110 -152.5 -169t-226.5 -59q-180 0 -284.5 110.5t-104.5 287.5v725h123v-697q0 -139 75 -229t220 -90q155 0 254.5 107.5t99.5 287.5v621h123zM389 1454q0 96 65.5 161.5t163.5 65.5t164 -65.5t66 -161.5t-66 -161.5t-164 -65.5
t-163.5 65.5t-65.5 161.5zM471 1454q0 -63 41 -107t106 -44q66 0 107 44t41 107t-41 107.5t-107 44.5q-65 0 -106 -44.5t-41 -107.5z" />
    <glyph glyph-name="Uhungarumlaut" unicode="&#x170;" horiz-adv-x="1562" 
d="M1262 563v1010h124v-1016q0 -269 -161 -424.5t-445 -155.5q-273 0 -438.5 155.5t-165.5 424.5v1016h127v-1010q0 -216 128 -345.5t353 -129.5q226 0 352 129t126 346zM1196 1948l-233 -281h-111l215 281h129zM887 1948l-234 -281h-112l215 281h131z" />
    <glyph glyph-name="uhungarumlaut" unicode="&#x171;" horiz-adv-x="1243" 
d="M1067 1100v-1100h-121l-2 205h-4q-56 -110 -152.5 -169t-226.5 -59q-180 0 -284.5 110.5t-104.5 287.5v725h123v-697q0 -139 75 -229t220 -90q155 0 254.5 107.5t99.5 287.5v621h123zM1016 1573l-225 -332h-111l205 332h131zM717 1573l-225 -332h-111l205 332h131z" />
    <glyph glyph-name="Uogonek" unicode="&#x172;" horiz-adv-x="1562" 
d="M1262 1573h124v-1016q0 -419 -387 -557q-112 -39 -175.5 -97t-63.5 -116q0 -84 131 -84q51 0 90 8v-94q-54 -14 -125 -14q-109 0 -165 47t-56 117q0 109 135 206v4q-269 5 -431.5 159.5t-162.5 420.5v1016h127v-1010q0 -216 128 -345.5t353 -129.5q226 0 352 128.5
t126 346.5v1010z" />
    <glyph glyph-name="uogonek" unicode="&#x173;" horiz-adv-x="1243" 
d="M1067 1100v-1100q-217 -109 -217 -213q0 -84 127 -84q54 0 90 8v-94q-54 -14 -123 -14q-103 0 -159 47t-56 117q0 140 219 266l-4 172h-4q-56 -110 -152.5 -169t-226.5 -59q-180 0 -284.5 110.5t-104.5 287.5v725h123v-697q0 -139 75 -229t220 -90q155 0 254.5 107.5
t99.5 287.5v621h123z" />
    <glyph glyph-name="Wcircumflex" unicode="&#x174;" horiz-adv-x="2154" 
d="M2007 1573h129l-483 -1573h-142l-430 1403h-4l-432 -1403h-143l-484 1573h134l423 -1411h5l430 1411h141l428 -1411h4zM762 1667l256 281h123l258 -281h-133l-187 205l-186 -205h-131z" />
    <glyph glyph-name="wcircumflex" unicode="&#x175;" horiz-adv-x="1662" 
d="M1489 1100h129l-356 -1100h-142l-286 928h-5l-286 -928h-142l-356 1100h133l297 -950h4l287 950h135l285 -948h4zM547 1241l227 332h127l227 -332h-122l-168 252l-170 -252h-121z" />
    <glyph glyph-name="Ycircumflex" unicode="&#x176;" horiz-adv-x="1357" 
d="M1206 1573h142l-605 -950v-623h-127v621l-606 952h146l524 -832h4zM360 1667l256 281h123l258 -281h-133l-186 205l-186 -205h-132z" />
    <glyph glyph-name="ycircumflex" unicode="&#x177;" horiz-adv-x="1081" 
d="M920 1100h129l-486 -1206q-63 -156 -136.5 -223.5t-190.5 -67.5q-71 0 -134 24v103q62 -23 117 -23q80 0 130.5 48t101.5 165l30 72l-448 1108h133l377 -955h4zM262 1241l227 332h127l228 -332h-123l-168 252l-170 -252h-121z" />
    <glyph glyph-name="Ydieresis" unicode="&#x178;" horiz-adv-x="1357" 
d="M1206 1573h142l-605 -950v-623h-127v621l-606 952h146l524 -832h4zM817 1733v149h146v-149h-146zM393 1733v149h146v-149h-146z" />
    <glyph glyph-name="Zacute" unicode="&#x179;" horiz-adv-x="1314" 
d="M102 1460v113h1117v-96l-986 -1364h1006v-113h-1163v96l985 1364h-959zM924 1948l-236 -281h-119l211 281h144z" />
    <glyph glyph-name="zacute" unicode="&#x17a;" horiz-adv-x="1009" 
d="M94 991v109h844v-101l-715 -890h738v-109h-891v102l716 889h-692zM754 1573l-222 -332h-110l196 332h136z" />
    <glyph glyph-name="Zdotaccent" unicode="&#x17b;" horiz-adv-x="1314" 
d="M102 1460v113h1117v-96l-986 -1364h1006v-113h-1163v96l985 1364h-959zM590 1733v149h147v-149h-147z" />
    <glyph glyph-name="zdotaccent" unicode="&#x17c;" horiz-adv-x="1009" 
d="M94 991v109h844v-101l-715 -890h738v-109h-891v102l716 889h-692zM438 1333v148h148v-148h-148z" />
    <glyph glyph-name="Zcaron" unicode="&#x17d;" horiz-adv-x="1314" 
d="M102 1460v113h1117v-96l-986 -1364h1006v-113h-1163v96l985 1364h-959zM983 1948l-256 -281h-123l-258 281h133l187 -205l186 205h131z" />
    <glyph glyph-name="zcaron" unicode="&#x17e;" horiz-adv-x="1009" 
d="M94 991v109h844v-101l-715 -890h738v-109h-891v102l716 889h-692zM803 1573l-228 -332h-126l-228 332h123l168 -252l170 252h121z" />
    <glyph glyph-name="longs" unicode="&#x17f;" horiz-adv-x="634" 
d="M268 0v995h-243v105h243v178q0 155 77 236t222 81q61 0 111 -12v-102q-46 8 -90 8q-109 0 -153 -53t-44 -158v-1278h-123z" />
    <glyph glyph-name="florin" unicode="&#x192;" horiz-adv-x="1259" 
d="M1159 1501l-20 -98q-58 16 -115 16q-107 0 -166 -53.5t-78 -169.5l-32 -201h325l-18 -108h-324l-121 -750q-26 -158 -118 -237.5t-236 -79.5q-81 0 -145 22l22 101q62 -17 119 -17q201 0 237 224l119 737h-289l17 108h289l34 213q25 155 115 236.5t240 81.5q85 0 145 -25
z" />
    <glyph glyph-name="AEacute" unicode="&#x1fc;" horiz-adv-x="1966" 
d="M1083 113h793v-113h-920v494h-544l-277 -494h-135l889 1573h973v-113h-779v-610h678v-113h-678v-624zM475 606h481v854h-4zM1518 1948l-236 -281h-119l211 281h144z" />
    <glyph glyph-name="aeacute" unicode="&#x1fd;" horiz-adv-x="1849" 
d="M250 821l-109 41q43 131 150.5 195.5t245.5 64.5q149 0 244 -59.5t132 -161.5q60 104 157.5 162.5t223.5 58.5q140 0 245 -70t158.5 -190.5t53.5 -273.5q0 -58 -6 -88h-807q15 -185 118.5 -300.5t272.5 -115.5q92 0 168 39t127 108l90 -77q-69 -85 -168 -131t-219 -46
q-155 0 -269.5 76t-174.5 211q-54 -129 -167 -208t-257 -79q-155 0 -246.5 87t-91.5 227q0 243 287 295q116 22 411 22v150q0 112 -72 185t-212 73q-106 0 -181 -50t-104 -145zM938 606h692q-6 182 -95.5 296t-242.5 114q-156 0 -249.5 -112.5t-104.5 -297.5zM819 434v74
q-206 0 -342 -19q-123 -18 -178 -62.5t-55 -139.5q0 -87 63.5 -145t167.5 -58q147 0 245.5 107t98.5 243zM1192 1573l-221 -332h-111l197 332h135z" />
    <glyph glyph-name="Oslashacute" unicode="&#x1fe;" horiz-adv-x="1662" 
d="M1530 1612l-180 -236q99 -110 151.5 -261.5t52.5 -326.5q0 -168 -49 -315t-139.5 -257.5t-228.5 -174.5t-306 -64q-254 0 -440 146l-172 -225l-86 63l180 236q-99 110 -151.5 261t-52.5 326q0 168 49 315t139 257.5t228 174.5t306 64q257 0 441 -145l172 225zM389 297
l809 1057q-150 131 -367 131q-140 0 -254 -56t-187.5 -152.5t-112.5 -222t-39 -268.5q0 -294 151 -489zM1274 1276l-809 -1057q150 -131 366 -131q140 0 254.5 56t187.5 152.5t112.5 222t39.5 267.5q0 295 -151 490zM1092 1948l-236 -281h-119l211 281h144z" />
    <glyph glyph-name="oslashacute" unicode="&#x1ff;" horiz-adv-x="1243" 
d="M1137 1130l-133 -169q143 -158 143 -410q0 -159 -60.5 -288t-182 -207.5t-283.5 -78.5q-180 0 -310 97l-127 -162l-78 57l134 170q-144 159 -144 412q0 159 61.5 287.5t183 206t282.5 77.5q180 0 309 -96l127 162zM313 233l549 703q-99 80 -239 80q-188 0 -296 -133.5
t-108 -333.5q0 -187 94 -316zM930 866l-549 -702q99 -80 240 -80q126 0 219 64t138.5 168t45.5 233q0 188 -94 317zM862 1573l-221 -332h-111l197 332h135z" />
    <glyph glyph-name="Scommaaccent" unicode="&#x218;" 
d="M627 -23q-348 0 -555 232l86 84q100 -102 208.5 -153.5t260.5 -51.5q210 0 320 90t110 240q0 39 -7.5 71t-25.5 58.5t-36.5 46.5t-53 38t-61.5 30.5t-75.5 27t-82 23t-92.5 22.5t-99.5 24.5t-93 27t-88 34t-75.5 41.5t-65.5 53t-47.5 64.5t-32.5 81t-10.5 98.5
q0 196 143 316t389 120q318 0 520 -233l-92 -82q-93 108 -195 156.5t-233 48.5q-189 0 -296 -89t-107 -229q0 -34 7.5 -63.5t18 -52.5t32 -44t40.5 -36t53 -30.5t58.5 -25.5t69.5 -22.5t73.5 -20t81.5 -20.5t89 -22.5t84 -24.5t80.5 -29t71 -34t63.5 -41.5t50.5 -50.5
t40.5 -62t24 -74.5t9 -89.5q0 -201 -147.5 -324t-411.5 -123zM729 -76l-143 -334h-103l119 334h127z" />
    <glyph glyph-name="scommaaccent" unicode="&#x219;" horiz-adv-x="1028" 
d="M508 -23q-266 0 -438 150l77 90q142 -133 359 -133q150 0 229.5 57.5t79.5 151.5q0 28 -8.5 50.5t-20.5 39.5t-37 32.5t-46 25t-60 21t-66.5 18.5t-78.5 18q-73 16 -120.5 29t-103.5 38t-88.5 55t-54.5 77t-22 108q0 142 109.5 229.5t301.5 87.5q245 0 404 -155l-82 -88
q-143 137 -324 137q-137 0 -212 -56.5t-75 -146.5q0 -38 15 -66.5t40 -47.5t66 -34.5t84 -26.5t105 -25q4 -1 6 -1q74 -17 122 -30.5t104.5 -39t88.5 -55.5t54 -77.5t22 -108.5q0 -145 -115 -234.5t-315 -89.5zM612 -76l-143 -334h-102l118 334h127z" />
    <glyph glyph-name="uni021A" unicode="&#x21a;" horiz-adv-x="1331" 
d="M729 0h-127v1460h-577v113h1282v-113h-578v-1460zM756 -76l-144 -334h-102l119 334h127z" />
    <glyph glyph-name="uni021B" unicode="&#x21b;" horiz-adv-x="706" 
d="M12 995v105h244v348h123v-348h287v-105h-287v-702q0 -100 49 -151.5t160 -51.5q38 0 78 6v-100q-52 -12 -117 -12q-149 0 -221 73.5t-72 221.5v716h-244zM516 -76l-143 -334h-103l119 334h127z" />
    <glyph glyph-name="circumflex" unicode="&#x2c6;" 
d="M352 1241l228 332h127l227 -332h-123l-168 252l-170 -252h-121z" />
    <glyph glyph-name="caron" unicode="&#x2c7;" 
d="M934 1573l-227 -332h-127l-228 332h123l168 -252l170 252h121z" />
    <glyph glyph-name="breve" unicode="&#x2d8;" 
d="M643 1337q92 0 141.5 59.5t59.5 155.5h90q-8 -134 -82.5 -216.5t-208.5 -82.5t-208.5 83t-82.5 216h90q10 -96 59.5 -155.5t141.5 -59.5z" />
    <glyph glyph-name="dotaccent" unicode="&#x2d9;" 
d="M569 1333v148h148v-148h-148z" />
    <glyph glyph-name="ring" unicode="&#x2da;" 
d="M414 1454q0 96 65.5 161.5t163.5 65.5t163.5 -65.5t65.5 -161.5t-65.5 -161.5t-163.5 -65.5t-163.5 65.5t-65.5 161.5zM496 1454q0 -63 41 -107t106 -44q66 0 107 44t41 107t-41 107.5t-107 44.5q-65 0 -106 -44.5t-41 -107.5z" />
    <glyph glyph-name="ogonek" unicode="&#x2db;" 
d="M717 39h102v-39q-111 -55 -167 -106.5t-56 -106.5q0 -84 133 -84q51 0 90 8v-94q-54 -14 -125 -14q-109 0 -165 47t-56 117q0 135 244 272z" />
    <glyph glyph-name="tilde" unicode="&#x2dc;" 
d="M485 1518q45 0 90 -19.5t75.5 -43t70 -43t74.5 -19.5q44 0 70 27t32 96h84q-16 -220 -180 -220q-45 0 -90 19.5t-75.5 43t-69.5 43t-74 19.5q-44 0 -70.5 -27t-32.5 -96h-84q16 220 180 220z" />
    <glyph glyph-name="hungarumlaut" unicode="&#x2dd;" 
d="M1040 1573l-225 -332h-110l204 332h131zM741 1573l-225 -332h-110l204 332h131z" />
    <glyph glyph-name="pi" unicode="&#x3c0;" horiz-adv-x="1331" 
d="M274 0v991h-215v109h1207v-109h-217v-712q0 -189 165 -189q24 0 52 4v-98q-33 -10 -92 -10q-126 0 -187 74.5t-61 203.5v727h-529v-991h-123z" />
    <glyph glyph-name="Wgrave" unicode="&#x1e80;" horiz-adv-x="2154" 
d="M2007 1573h129l-483 -1573h-142l-430 1403h-4l-432 -1403h-143l-484 1573h134l423 -1411h5l430 1411h141l428 -1411h4zM1057 1667l-236 281h144l213 -281h-121z" />
    <glyph glyph-name="wgrave" unicode="&#x1e81;" horiz-adv-x="1662" 
d="M1489 1100h129l-356 -1100h-142l-286 928h-5l-286 -928h-142l-356 1100h133l297 -950h4l287 950h135l285 -948h4zM817 1241l-221 332h137l197 -332h-113z" />
    <glyph glyph-name="Wacute" unicode="&#x1e82;" horiz-adv-x="2154" 
d="M2007 1573h129l-483 -1573h-142l-430 1403h-4l-432 -1403h-143l-484 1573h134l423 -1411h5l430 1411h141l428 -1411h4zM1339 1948l-235 -281h-119l211 281h143z" />
    <glyph glyph-name="wacute" unicode="&#x1e83;" horiz-adv-x="1662" 
d="M1489 1100h129l-356 -1100h-142l-286 928h-5l-286 -928h-142l-356 1100h133l297 -950h4l287 950h135l285 -948h4zM1079 1573l-221 -332h-110l196 332h135z" />
    <glyph glyph-name="Wdieresis" unicode="&#x1e84;" horiz-adv-x="2154" 
d="M2007 1573h129l-483 -1573h-142l-430 1403h-4l-432 -1403h-143l-484 1573h134l423 -1411h5l430 1411h141l428 -1411h4zM1219 1733v149h145v-149h-145zM795 1733v149h145v-149h-145z" />
    <glyph glyph-name="wdieresis" unicode="&#x1e85;" horiz-adv-x="1662" 
d="M1489 1100h129l-356 -1100h-142l-286 928h-5l-286 -928h-142l-356 1100h133l297 -950h4l287 950h135l285 -948h4zM971 1333v148h145v-148h-145zM559 1333v148h146v-148h-146z" />
    <glyph glyph-name="Ygrave" unicode="&#x1ef2;" horiz-adv-x="1357" 
d="M1206 1573h142l-605 -950v-623h-127v621l-606 952h146l524 -832h4zM655 1667l-235 281h143l213 -281h-121z" />
    <glyph glyph-name="ygrave" unicode="&#x1ef3;" horiz-adv-x="1081" 
d="M920 1100h129l-486 -1206q-63 -156 -136.5 -223.5t-190.5 -67.5q-71 0 -134 24v103q62 -23 117 -23q80 0 130.5 48t101.5 165l30 72l-448 1108h133l377 -955h4zM532 1241l-221 332h138l196 -332h-113z" />
    <glyph glyph-name="endash" unicode="&#x2013;" horiz-adv-x="1009" 
d="M84 559v103h840v-103h-840z" />
    <glyph glyph-name="emdash" unicode="&#x2014;" horiz-adv-x="1562" 
d="M49 565v92h1462v-92h-1462z" />
    <glyph glyph-name="quoteleft" unicode="&#x2018;" horiz-adv-x="475" 
d="M354 1573l-112 -559h-121l137 559h96z" />
    <glyph glyph-name="quoteright" unicode="&#x2019;" horiz-adv-x="475" 
d="M121 1014l112 559h121l-137 -559h-96z" />
    <glyph glyph-name="quotesinglbase" unicode="&#x201a;" horiz-adv-x="475" 
d="M127 -188l113 559h120l-137 -559h-96z" />
    <glyph glyph-name="quotedblleft" unicode="&#x201c;" horiz-adv-x="794" 
d="M354 1573l-112 -559h-121l137 559h96zM674 1573l-113 -559h-121l138 559h96z" />
    <glyph glyph-name="quotedblright" unicode="&#x201d;" horiz-adv-x="794" 
d="M121 1014l112 559h121l-137 -559h-96zM440 1014l113 559h121l-137 -559h-97z" />
    <glyph glyph-name="quotedblbase" unicode="&#x201e;" horiz-adv-x="794" 
d="M127 -188l113 559h120l-137 -559h-96zM446 -188l113 559h121l-137 -559h-97z" />
    <glyph glyph-name="dagger" unicode="&#x2020;" horiz-adv-x="1171" 
d="M528 -303v1272h-405v100h405v504h115v-504h406v-100h-406v-1272h-115z" />
    <glyph glyph-name="daggerdbl" unicode="&#x2021;" horiz-adv-x="1171" 
d="M1049 969h-406v-668h406v-100h-406v-504h-115v504h-405v100h405v668h-405v100h405v504h115v-504h406v-100z" />
    <glyph glyph-name="bullet" unicode="&#x2022;" horiz-adv-x="794" 
d="M397 420q-105 0 -169 64t-64 161t64 161t169 64t169.5 -64t64.5 -161t-64.5 -161t-169.5 -64z" />
    <glyph glyph-name="ellipsis" unicode="&#x2026;" horiz-adv-x="1447" 
d="M178 0v160h160v-160h-160zM643 0v160h160v-160h-160zM1108 0v160h160v-160h-160z" />
    <glyph glyph-name="perthousand" unicode="&#x2030;" horiz-adv-x="2717" 
d="M432 625q-76 0 -133.5 24.5t-93 65t-57.5 100t-30.5 122t-8.5 138.5q0 96 14.5 172t49 141.5t100 101.5t159.5 36q324 0 324 -451q0 -76 -8.5 -138.5t-31 -122t-58 -100t-93 -65t-133.5 -24.5zM551 0h-111l901 1503h111zM432 711q64 0 108.5 29.5t67 83t32 114t9.5 137.5
t-9.5 137.5t-32 114.5t-67 83.5t-108.5 29.5t-108.5 -29.5t-67 -83.5t-32 -114.5t-9.5 -137.5t9.5 -137.5t32 -114t67 -83t108.5 -29.5zM2284 879q94 0 159.5 -36t100 -101.5t49 -141.5t14.5 -172t-14.5 -172t-49 -141.5t-100 -101.5t-159.5 -36q-324 0 -324 451t324 451z
M1460 879q324 0 324 -451t-324 -451q-94 0 -159.5 36t-100 101.5t-49 141.5t-14.5 172t14.5 172t49 141.5t100 101.5t159.5 36zM2284 793q-218 0 -218 -365t218 -365q64 0 108.5 29.5t67 83.5t32 114.5t9.5 137.5t-9.5 137.5t-32 114.5t-67 83.5t-108.5 29.5zM1460 793
q-64 0 -108.5 -29.5t-67 -83.5t-32 -114.5t-9.5 -137.5t9.5 -137.5t32 -114.5t67 -83.5t108.5 -29.5t108.5 29.5t67 83.5t32 114.5t9.5 137.5t-9.5 137.5t-32 114.5t-67 83.5t-108.5 29.5z" />
    <glyph glyph-name="guilsinglleft" unicode="&#x2039;" horiz-adv-x="661" 
d="M403 168l-299 407l299 408h132l-299 -408l299 -407h-132z" />
    <glyph glyph-name="guilsinglright" unicode="&#x203a;" horiz-adv-x="661" 
d="M256 983l299 -408l-299 -407h-131l299 407l-299 408h131z" />
    <glyph glyph-name="fraction" unicode="&#x2044;" horiz-adv-x="403" 
d="M-180 0h-109l873 1503h110z" />
    <glyph glyph-name="four.superior" unicode="&#x2074;" horiz-adv-x="768" 
d="M768 1153v-76h-184v-217h-99v217h-473v66l459 614h113v-604h184zM117 1153h368v487h-4z" />
    <glyph glyph-name="Euro" unicode="&#x20ac;" horiz-adv-x="1259" 
d="M1116 236l84 -74q-147 -185 -405 -185q-123 0 -221 42.5t-164 120.5t-106.5 179.5t-57.5 227.5h-199v104h189q-5 82 -5 103q0 20 5 112h-189v105h199q18 124 58.5 223t106 174.5t163 116.5t221.5 41q257 0 399 -185l-88 -73q-111 149 -311 149q-95 0 -170 -33.5
t-125 -95.5t-81 -140.5t-46 -176.5h461v-105h-472q-4 -74 -4 -110q0 -35 4 -105h472v-104h-461q14 -102 45 -183t81 -145.5t127 -99.5t175 -35q203 0 315 152z" />
    <glyph glyph-name="trademark" unicode="&#x2122;" horiz-adv-x="1331" 
d="M1147 1573h108v-621h-77v506h-4l-193 -506h-70l-192 506h-4v-506h-76v621h111l196 -516h4zM35 1507v66h506v-66h-215v-555h-78v555h-213z" />
    <glyph glyph-name="Omega" unicode="&#x2126;" horiz-adv-x="1447" 
d="M840 0v109q176 147 274 355t98 425q0 121 -30 226.5t-88.5 189t-154 132t-216.5 48.5t-215.5 -48.5t-153 -132t-88.5 -189t-30 -226.5q0 -217 98 -425t274 -355v-109h-491v113h366v4q-182 155 -279.5 354.5t-97.5 421.5q0 111 24 213.5t74.5 192t122 155t173.5 103.5
t223 38q151 0 271 -57.5t194.5 -156t113.5 -223.5t39 -265q0 -222 -98 -421.5t-278 -354.5v-4h366v-113h-491z" />
    <glyph glyph-name="estimated" unicode="&#x212e;" horiz-adv-x="1519" 
d="M346 281q0 -64 42 -115.5t107.5 -81.5t137 -45.5t139.5 -15.5q137 0 270 61.5t218 179.5l67 -14q-208 -285 -561 -285q-148 0 -277.5 52t-219.5 140.5t-141.5 210t-51.5 257.5q0 137 52 259t142 210.5t218.5 140t275.5 51.5q184 0 338 -74.5t249 -218.5t95 -331
q0 -33 -11 -40.5t-55 -7.5h-968q-49 0 -57.5 -9t-8.5 -56v-268zM412 672h700q49 0 57.5 9t8.5 56v256q0 98 -122 167t-294 69t-294 -69t-122 -167v-256q0 -47 8.5 -56t57.5 -9z" />
    <glyph glyph-name="arrowleft" unicode="&#x2190;" horiz-adv-x="1939" 
d="M139 786l842 842l82 -82l-703 -702h1422v-115h-1422l703 -702l-82 -82z" />
    <glyph glyph-name="arrowup" unicode="&#x2191;" horiz-adv-x="1939" 
d="M131 774l838 838l837 -838l-82 -82l-698 699v-1422h-115v1422l-698 -699z" />
    <glyph glyph-name="arrowright" unicode="&#x2192;" horiz-adv-x="1939" 
d="M956 1628l842 -842l-842 -841l-82 82l703 702h-1421v115h1421l-703 702z" />
    <glyph glyph-name="arrowdown" unicode="&#x2193;" horiz-adv-x="1939" 
d="M969 -39l-838 838l82 82l698 -699v1422h115v-1422l698 699l82 -82z" />
    <glyph glyph-name="uni2196" unicode="&#x2196;" horiz-adv-x="1939" 
d="M377 180v1188h1188v-117h-992l1006 -1005l-80 -80l-1005 1005v-991h-117z" />
    <glyph glyph-name="uni2197" unicode="&#x2197;" horiz-adv-x="1939" 
d="M1561 1368v-1188h-117v991l-1006 -1005l-80 80l1006 1005h-991v117h1188z" />
    <glyph glyph-name="uni2198" unicode="&#x2198;" horiz-adv-x="1939" 
d="M1608 1368v-1188h-1188v117h991l-1005 1006l79 79l1006 -1005v991h117z" />
    <glyph glyph-name="uni2199" unicode="&#x2199;" horiz-adv-x="1939" 
d="M330 180v1188h116v-991l1006 1005l80 -79l-1006 -1006h992v-117h-1188z" />
    <glyph glyph-name="partialdiff" unicode="&#x2202;" 
d="M332 1454l-47 98q110 58 256 58q126 0 227 -40.5t168.5 -110.5t112.5 -169t64.5 -211t19.5 -241q0 -79 -7.5 -158.5t-26.5 -166t-47.5 -162.5t-73.5 -145.5t-101.5 -119.5t-135 -79.5t-170.5 -29.5q-208 0 -327 136t-119 354q0 84 17.5 167t56.5 162t94 139.5t137 97
t180 36.5q130 0 232.5 -61t163.5 -164h4q-2 146 -28.5 263.5t-80.5 207.5t-144.5 139t-211.5 49q-123 0 -213 -49zM573 84q91 0 164.5 38.5t119.5 99t79 144.5t48 164.5t22 169.5q-55 121 -155.5 192t-223.5 71q-79 0 -143.5 -29.5t-107.5 -78.5t-72.5 -113.5t-42.5 -132
t-13 -136.5q0 -173 82.5 -281t242.5 -108z" />
    <glyph glyph-name="Delta" unicode="&#x2206;" horiz-adv-x="1357" 
d="M752 1573l577 -1573h-1304l575 1573h152zM197 111h956l-477 1331h-4z" />
    <glyph glyph-name="product" unicode="&#x220f;" horiz-adv-x="1562" 
d="M285 -199v1659h-230v113h1450v-113h-229v-1659h-125v1659h-741v-1659h-125z" />
    <glyph glyph-name="summation" unicode="&#x2211;" horiz-adv-x="1243" 
d="M94 -199v107l522 829l-516 731v105h1010v-113h-856l504 -719l-518 -827h895v-113h-1041z" />
    <glyph glyph-name="minus" unicode="&#x2212;" horiz-adv-x="1153" 
d="M106 694v94h938v-94h-938z" />
    <glyph glyph-name="radical" unicode="&#x221a;" horiz-adv-x="1314" 
d="M666 -238l-414 1086l-236 -88l-32 92l342 123l387 -1018h4l618 1821h117l-688 -2016h-98z" />
    <glyph glyph-name="infinity" unicode="&#x221e;" horiz-adv-x="1546" 
d="M410 184q-141 0 -229.5 111t-88.5 289q0 182 88 290.5t232 108.5q226 0 364 -313h4q71 154 156 233.5t199 79.5q141 0 229 -110.5t88 -288.5q0 -182 -88 -291t-231 -109q-227 0 -365 314h-4q-71 -155 -156 -234.5t-198 -79.5zM1126 272q106 0 168 85t62 227
q0 143 -62 227t-168 84q-99 0 -165 -77t-136 -240q64 -152 133.5 -229t167.5 -77zM418 272q98 0 164.5 77.5t136.5 240.5q-64 152 -133.5 228.5t-167.5 76.5q-107 0 -168.5 -84.5t-61.5 -226.5q0 -143 62 -227.5t168 -84.5z" />
    <glyph glyph-name="integral" unicode="&#x222b;" horiz-adv-x="634" 
d="M328 37l-146 1122q-12 85 -12 146q0 138 77.5 214t213.5 76q81 0 135 -20v-98q-58 12 -115 12q-188 0 -188 -195q0 -46 12 -135l146 -1122q12 -86 12 -146q0 -138 -77.5 -214t-213.5 -76q-81 0 -135 20v98q58 -12 115 -12q188 0 188 195q0 46 -12 135z" />
    <glyph glyph-name="approxequal" unicode="&#x2248;" horiz-adv-x="1153" 
d="M559 893q-67 33 -113.5 48t-95.5 15q-60 0 -100 -31t-68 -106l-69 33q64 203 241 203q55 0 104.5 -17t133.5 -57q67 -33 113.5 -48t95.5 -15q60 0 100 31t68 106l69 -33q-64 -203 -241 -203q-55 0 -104.5 17t-133.5 57zM559 504q-67 33 -113.5 48t-95.5 15
q-60 0 -100 -31t-68 -106l-69 33q64 203 241 203q55 0 104.5 -17t133.5 -57q69 -33 115 -48.5t94 -15.5q59 0 99.5 31.5t68.5 106.5l69 -33q-64 -203 -241 -203q-55 0 -104.5 17t-133.5 57z" />
    <glyph glyph-name="notequal" unicode="&#x2260;" horiz-adv-x="1153" 
d="M1044 907h-292l-250 -334h542v-94h-614l-231 -307l-66 49l195 258h-222v94h293l250 334h-543v94h615l231 308l66 -49l-195 -259h221v-94z" />
    <glyph glyph-name="lessequal" unicode="&#x2264;" horiz-adv-x="1153" 
d="M86 739v72l979 442v-102l-819 -375v-4l819 -373v-104zM86 0v92h979v-92h-979z" />
    <glyph glyph-name="greaterequal" unicode="&#x2265;" horiz-adv-x="1153" 
d="M1065 811v-72l-979 -444v104l819 373v4l-819 375v102zM1065 92v-92h-979v92h979z" />
    <glyph glyph-name="lozenge" unicode="&#x25ca;" horiz-adv-x="1099" 
d="M125 788l379 785h90l379 -789l-379 -784h-90zM236 788l311 -663h4l311 659l-311 664h-4z" />
    <glyph glyph-name="dotlessj" unicode="&#xf6be;" horiz-adv-x="475" 
d="M-41 -387v100q35 -6 66 -6q151 0 151 172v1221h123v-1219q0 -130 -61.5 -204t-190.5 -74q-50 0 -88 10z" />
    <glyph glyph-name="commaaccent" unicode="&#xf6c3;" 
d="M748 -76l-144 -334h-102l119 334h127z" />
    <glyph glyph-name="K001" horiz-adv-x="1357" 
d="M182 0v1573h127v-844h4l844 844h170l-627 -619l625 -954h-154l-563 864l-299 -295v-569h-127z" />
    <glyph glyph-name="Kcommaaccent001" horiz-adv-x="1357" 
d="M182 0v1573h127v-844h4l844 844h170l-627 -619l625 -954h-154l-563 864l-299 -295v-569h-127zM782 -76l-143 -334h-102l118 334h127z" />
    <glyph glyph-name="i.TRK" horiz-adv-x="475" 
d="M299 0h-123v1100h123v-1100z" />
    <glyph glyph-name="a001" horiz-adv-x="1126" 
d="M954 0h-118l-2 197h-5q-124 -220 -366 -220q-159 0 -250.5 87t-91.5 225q0 154 119 233q54 35 121.5 51.5t189.5 32.5q162 21 222.5 54t60.5 114q0 96 -75.5 169t-217.5 73q-121 0 -192.5 -53.5t-98.5 -141.5l-109 41q39 122 144 191t260 69q193 0 301 -96.5t108 -261.5
v-764zM477 84q103 0 186 51.5t127 131t44 167.5v152q-65 -62 -287 -86q-154 -16 -228.5 -61.5t-74.5 -147.5q0 -90 64 -148.5t169 -58.5z" />
    <glyph glyph-name="agrave001" horiz-adv-x="1126" 
d="M954 0h-118l-2 197h-5q-124 -220 -366 -220q-159 0 -250.5 87t-91.5 225q0 154 119 233q54 35 121.5 51.5t189.5 32.5q162 21 222.5 54t60.5 114q0 96 -75.5 169t-217.5 73q-121 0 -192.5 -53.5t-98.5 -141.5l-109 41q39 122 144 191t260 69q193 0 301 -96.5t108 -261.5
v-764zM477 84q103 0 186 51.5t127 131t44 167.5v152q-65 -62 -287 -86q-154 -16 -228.5 -61.5t-74.5 -147.5q0 -90 64 -148.5t169 -58.5zM541 1241l-222 332h138l196 -332h-112z" />
    <glyph glyph-name="aacute001" horiz-adv-x="1126" 
d="M954 0h-118l-2 197h-5q-124 -220 -366 -220q-159 0 -250.5 87t-91.5 225q0 154 119 233q54 35 121.5 51.5t189.5 32.5q162 21 222.5 54t60.5 114q0 96 -75.5 169t-217.5 73q-121 0 -192.5 -53.5t-98.5 -141.5l-109 41q39 122 144 191t260 69q193 0 301 -96.5t108 -261.5
v-764zM477 84q103 0 186 51.5t127 131t44 167.5v152q-65 -62 -287 -86q-154 -16 -228.5 -61.5t-74.5 -147.5q0 -90 64 -148.5t169 -58.5zM803 1573l-221 -332h-111l197 332h135z" />
    <glyph glyph-name="acircumflex001" horiz-adv-x="1126" 
d="M954 0h-118l-2 197h-5q-124 -220 -366 -220q-159 0 -250.5 87t-91.5 225q0 154 119 233q54 35 121.5 51.5t189.5 32.5q162 21 222.5 54t60.5 114q0 96 -75.5 169t-217.5 73q-121 0 -192.5 -53.5t-98.5 -141.5l-109 41q39 122 144 191t260 69q193 0 301 -96.5t108 -261.5
v-764zM477 84q103 0 186 51.5t127 131t44 167.5v152q-65 -62 -287 -86q-154 -16 -228.5 -61.5t-74.5 -147.5q0 -90 64 -148.5t169 -58.5zM270 1241l228 332h127l227 -332h-123l-168 252l-170 -252h-121z" />
    <glyph glyph-name="atilde001" horiz-adv-x="1126" 
d="M954 0h-118l-2 197h-5q-124 -220 -366 -220q-159 0 -250.5 87t-91.5 225q0 154 119 233q54 35 121.5 51.5t189.5 32.5q162 21 222.5 54t60.5 114q0 96 -75.5 169t-217.5 73q-121 0 -192.5 -53.5t-98.5 -141.5l-109 41q39 122 144 191t260 69q193 0 301 -96.5t108 -261.5
v-764zM477 84q103 0 186 51.5t127 131t44 167.5v152q-65 -62 -287 -86q-154 -16 -228.5 -61.5t-74.5 -147.5q0 -90 64 -148.5t169 -58.5zM403 1518q45 0 90 -19.5t75.5 -43t70 -43t74.5 -19.5q44 0 70 27t32 96h84q-16 -220 -180 -220q-45 0 -90 19.5t-75.5 43t-69.5 43
t-74 19.5q-44 0 -70.5 -27t-32.5 -96h-84q16 220 180 220z" />
    <glyph glyph-name="adieresis001" horiz-adv-x="1126" 
d="M954 0h-118l-2 197h-5q-124 -220 -366 -220q-159 0 -250.5 87t-91.5 225q0 154 119 233q54 35 121.5 51.5t189.5 32.5q162 21 222.5 54t60.5 114q0 96 -75.5 169t-217.5 73q-121 0 -192.5 -53.5t-98.5 -141.5l-109 41q39 122 144 191t260 69q193 0 301 -96.5t108 -261.5
v-764zM477 84q103 0 186 51.5t127 131t44 167.5v152q-65 -62 -287 -86q-154 -16 -228.5 -61.5t-74.5 -147.5q0 -90 64 -148.5t169 -58.5zM694 1333v148h146v-148h-146zM283 1333v148h145v-148h-145z" />
    <glyph glyph-name="amacron001" horiz-adv-x="1126" 
d="M954 0h-118l-2 197h-5q-124 -220 -366 -220q-159 0 -250.5 87t-91.5 225q0 154 119 233q54 35 121.5 51.5t189.5 32.5q162 21 222.5 54t60.5 114q0 96 -75.5 169t-217.5 73q-121 0 -192.5 -53.5t-98.5 -141.5l-109 41q39 122 144 191t260 69q193 0 301 -96.5t108 -261.5
v-764zM477 84q103 0 186 51.5t127 131t44 167.5v152q-65 -62 -287 -86q-154 -16 -228.5 -61.5t-74.5 -147.5q0 -90 64 -148.5t169 -58.5zM293 1358v98h534v-98h-534z" />
    <glyph glyph-name="abreve001" horiz-adv-x="1126" 
d="M954 0h-118l-2 197h-5q-124 -220 -366 -220q-159 0 -250.5 87t-91.5 225q0 154 119 233q54 35 121.5 51.5t189.5 32.5q162 21 222.5 54t60.5 114q0 96 -75.5 169t-217.5 73q-121 0 -192.5 -53.5t-98.5 -141.5l-109 41q39 122 144 191t260 69q193 0 301 -96.5t108 -261.5
v-764zM477 84q103 0 186 51.5t127 131t44 167.5v152q-65 -62 -287 -86q-154 -16 -228.5 -61.5t-74.5 -147.5q0 -90 64 -148.5t169 -58.5zM561 1337q92 0 141.5 59.5t59.5 155.5h90q-8 -134 -82.5 -216.5t-208.5 -82.5t-208.5 83t-82.5 216h90q10 -96 59.5 -155.5
t141.5 -59.5z" />
    <glyph glyph-name="aring001" horiz-adv-x="1126" 
d="M954 0h-118l-2 197h-5q-124 -220 -366 -220q-159 0 -250.5 87t-91.5 225q0 154 119 233q54 35 121.5 51.5t189.5 32.5q162 21 222.5 54t60.5 114q0 96 -75.5 169t-217.5 73q-121 0 -192.5 -53.5t-98.5 -141.5l-109 41q39 122 144 191t260 69q193 0 301 -96.5t108 -261.5
v-764zM477 84q103 0 186 51.5t127 131t44 167.5v152q-65 -62 -287 -86q-154 -16 -228.5 -61.5t-74.5 -147.5q0 -90 64 -148.5t169 -58.5zM332 1454q0 96 65.5 161.5t163.5 65.5t164 -65.5t66 -161.5t-66 -161.5t-164 -65.5t-163.5 65.5t-65.5 161.5zM414 1454q0 -63 41 -107
t106 -44q66 0 107 44t41 107t-41 107.5t-107 44.5q-65 0 -106 -44.5t-41 -107.5z" />
    <glyph glyph-name="aogonek001" horiz-adv-x="1126" 
d="M834 -397q-104 0 -161 47t-57 117q0 139 220 266l-2 164h-5q-124 -220 -366 -220q-159 0 -250.5 87t-91.5 225q0 154 119 233q54 35 121.5 51.5t189.5 32.5q162 21 222.5 54t60.5 114q0 96 -75.5 169t-217.5 73q-121 0 -192.5 -53.5t-98.5 -141.5l-109 41q39 122 144 191
t260 69q193 0 301 -96.5t108 -261.5v-764q-217 -106 -217 -213q0 -84 127 -84q54 0 90 8v-94q-54 -14 -120 -14zM477 84q103 0 186 51.5t127 131t44 167.5v152q-65 -62 -287 -86q-154 -16 -228.5 -61.5t-74.5 -147.5q0 -90 64 -148.5t169 -58.5z" />
    <glyph glyph-name="ae001" horiz-adv-x="1849" 
d="M250 821l-109 41q43 131 150.5 195.5t245.5 64.5q149 0 244 -59.5t132 -161.5q60 104 157.5 162.5t223.5 58.5q140 0 245 -70t158.5 -190.5t53.5 -273.5q0 -58 -6 -88h-807q15 -185 118.5 -300.5t272.5 -115.5q92 0 168 39t127 108l90 -77q-69 -85 -168 -131t-219 -46
q-155 0 -269.5 75.5t-174.5 209.5q-52 -129 -165.5 -207t-258.5 -78q-155 0 -246.5 87t-91.5 225q0 161 131 241q85 50 258 70q71 9 109 15t83 18t66.5 27t36 39.5t14.5 58.5q0 112 -72 185t-212 73q-106 0 -181 -50t-104 -145zM938 606h692q-6 182 -95.5 296t-242.5 114
q-156 0 -249.5 -112.5t-104.5 -297.5zM819 434v150q-23 -26 -76.5 -45t-98 -26t-114.5 -15q-145 -16 -215.5 -62t-70.5 -147q0 -89 63.5 -147t163.5 -58q101 0 182 51.5t123.5 131t42.5 167.5z" />
    <glyph glyph-name="aeacute001" horiz-adv-x="1849" 
d="M250 821l-109 41q43 131 150.5 195.5t245.5 64.5q149 0 244 -59.5t132 -161.5q60 104 157.5 162.5t223.5 58.5q140 0 245 -70t158.5 -190.5t53.5 -273.5q0 -58 -6 -88h-807q15 -185 118.5 -300.5t272.5 -115.5q92 0 168 39t127 108l90 -77q-69 -85 -168 -131t-219 -46
q-155 0 -269.5 75.5t-174.5 209.5q-52 -129 -165.5 -207t-258.5 -78q-155 0 -246.5 87t-91.5 225q0 161 131 241q85 50 258 70q71 9 109 15t83 18t66.5 27t36 39.5t14.5 58.5q0 112 -72 185t-212 73q-106 0 -181 -50t-104 -145zM938 606h692q-6 182 -95.5 296t-242.5 114
q-156 0 -249.5 -112.5t-104.5 -297.5zM819 434v150q-23 -26 -76.5 -45t-98 -26t-114.5 -15q-145 -16 -215.5 -62t-70.5 -147q0 -89 63.5 -147t163.5 -58q101 0 182 51.5t123.5 131t42.5 167.5zM1192 1573l-221 -332h-111l197 332h135z" />
    <glyph glyph-name="k001" horiz-adv-x="1071" 
d="M1040 1100l-438 -422l430 -678h-151l-375 588l-207 -203v-385h-123v1573h123v-1032h4l571 559h166z" />
    <glyph glyph-name="kcommaaccent001" horiz-adv-x="1071" 
d="M1040 1100l-438 -422l430 -678h-151l-375 588l-207 -203v-385h-123v1573h123v-1032h4l571 559h166zM682 -76l-143 -334h-103l119 334h127z" />
    <glyph glyph-name="kgreenlandic001" horiz-adv-x="1071" 
d="M1040 1100l-438 -422l430 -678h-151l-375 588l-207 -203v-385h-123v1100h123v-559h4l571 559h166z" />
    <glyph glyph-name="l001" horiz-adv-x="563" 
d="M498 96v-100q-38 -10 -90 -10q-118 0 -175 65.5t-57 181.5v1340h123v-1327q0 -76 32 -116t109 -40q34 0 58 6z" />
    <glyph glyph-name="lacute001" horiz-adv-x="563" 
d="M498 96v-100q-38 -10 -90 -10q-118 0 -175 65.5t-57 181.5v1340h123v-1327q0 -76 32 -116t109 -40q34 0 58 6zM522 1948l-235 -281h-119l211 281h143z" />
    <glyph glyph-name="lcaron001" horiz-adv-x="696" 
d="M498 96v-100q-38 -10 -90 -10q-118 0 -175 65.5t-57 181.5v1340h123v-1327q0 -76 32 -116t109 -40q34 0 58 6zM694 1573l-143 -334h-102l118 334h127z" />
    <glyph glyph-name="lcommaaccent001" horiz-adv-x="563" 
d="M498 96v-100q-38 -10 -90 -10q-118 0 -175 65.5t-57 181.5v1340h123v-1327q0 -76 32 -116t109 -40q34 0 58 6zM434 -76l-143 -334h-103l119 334h127z" />
    <glyph glyph-name="lslash001" horiz-adv-x="563" 
d="M498 850l-199 -117v-487q0 -75 32 -114.5t109 -39.5q34 0 58 6v-98q-40 -14 -90 -14q-118 0 -175 65.5t-57 181.5v429l-170 -101v119l170 100v793h123v-721l199 117v-119z" />
    <glyph glyph-name="ldot001" horiz-adv-x="849" 
d="M498 96v-100q-38 -10 -90 -10q-118 0 -175 65.5t-57 181.5v1340h123v-1327q0 -76 32 -116t109 -40q34 0 58 6zM588 713v147h147v-147h-147z" />
    <glyph glyph-name="grave.cap" 
d="M621 1667l-236 281h143l213 -281h-120z" />
    <glyph glyph-name="acute.cap" 
d="M903 1948l-235 -281h-119l211 281h143z" />
    <glyph glyph-name="circumflex.cap" 
d="M326 1667l256 281h123l258 -281h-134l-186 205l-186 -205h-131z" />
    <glyph glyph-name="caron.cap" 
d="M963 1948l-256 -281h-123l-258 281h133l186 -205l186 205h132z" />
    <glyph glyph-name="commaaccent.alt" 
d="M528 1225l144 362h100l-119 -362h-125z" />
    <glyph glyph-name="tilde.cap" 
d="M479 1911q47 0 94 -17.5t78.5 -38t73 -38t78.5 -17.5q45 0 72.5 24t33.5 83h84q-16 -203 -184 -203q-47 0 -94 17.5t-79 38t-73 38t-78 17.5q-45 0 -73 -24t-35 -83h-84q18 203 186 203z" />
    <glyph glyph-name="dieresis.cap" 
d="M782 1733v149h146v-149h-146zM358 1733v149h146v-149h-146z" />
    <glyph glyph-name="macron.cap" 
d="M367 1755v98h553v-98h-553z" />
    <glyph glyph-name="breve.cap" 
d="M643 1753q98 0 149.5 51.5t61.5 134.5h92q-9 -123 -86 -197.5t-217 -74.5q-139 0 -216 74.5t-85 197.5h92q10 -83 61 -134.5t148 -51.5z" />
    <glyph glyph-name="ring.cap" 
d="M414 1716q0 96 65.5 162t163.5 66t163.5 -66t65.5 -162t-65.5 -161.5t-163.5 -65.5t-163.5 65.5t-65.5 161.5zM496 1716q0 -63 41 -107t106 -44q66 0 107 44t41 107t-41 107.5t-107 44.5q-65 0 -106 -44.5t-41 -107.5z" />
    <glyph glyph-name="hungarumlaut.cap" 
d="M1055 1948l-234 -281h-110l215 281h129zM745 1948l-233 -281h-113l215 281h131z" />
    <glyph glyph-name="dotaccent.cap" 
d="M569 1733v149h148v-149h-148z" />
    <glyph glyph-name="hyphen.cap" horiz-adv-x="651" 
d="M96 731v111h459v-111h-459z" />
    <glyph glyph-name="exclamdown.cap" horiz-adv-x="608" 
d="M383 1573v-160h-160v160h160zM356 1176l13 -1176h-131l12 1176h106z" />
    <glyph glyph-name="questiondown.cap" horiz-adv-x="866" 
d="M567 1573v-160h-159v160h159zM287 780q61 54 89 88t43 81t15 118v109h107v-142q0 -51 -8.5 -92.5t-20.5 -70t-40 -61.5t-50.5 -54t-67.5 -60q-64 -56 -102.5 -100.5t-64 -105.5t-25.5 -132q0 -128 73.5 -201t202.5 -73q153 0 273 117l71 -82q-64 -64 -154.5 -103
t-197.5 -39q-174 0 -282.5 102.5t-108.5 280.5q0 57 13.5 107.5t31.5 86.5t56 80.5t65.5 70.5t81.5 75z" />
    <glyph glyph-name="guilsinglleft.cap" horiz-adv-x="661" 
d="M403 379l-299 407l299 408h132l-299 -408l299 -407h-132z" />
    <glyph glyph-name="guilsinglright.cap" horiz-adv-x="661" 
d="M256 1194l299 -408l-299 -407h-131l299 407l-299 408h131z" />
    <glyph glyph-name="guillemotleft.cap" horiz-adv-x="1009" 
d="M403 379l-299 407l299 408h132l-299 -408l299 -407h-132zM752 379l-299 407l299 408h131l-299 -408l299 -407h-131z" />
    <glyph glyph-name="guillemotright.cap" horiz-adv-x="1009" 
d="M256 1194l299 -408l-299 -407h-131l299 407l-299 408h131zM604 1194l299 -408l-299 -407h-131l299 407l-299 408h131z" />
    <glyph glyph-name="endash.cap" horiz-adv-x="1009" 
d="M84 721v102h840v-102h-840z" />
    <glyph glyph-name="emdash.cap" horiz-adv-x="1562" 
d="M49 727v92h1462v-92h-1462z" />
    <glyph glyph-name="periodcentered.cap" horiz-adv-x="518" 
d="M178 707v159h160v-159h-160z" />
    <glyph glyph-name="parenleft.cap" horiz-adv-x="696" 
d="M156 786q0 303 85 556t226 430l86 -58q-130 -177 -206.5 -413t-76.5 -515t76.5 -514.5t206.5 -412.5l-86 -58q-141 177 -226 429.5t-85 555.5z" />
    <glyph glyph-name="parenright.cap" horiz-adv-x="696" 
d="M541 786q0 -302 -85.5 -555t-226.5 -430l-86 58q130 177 206.5 412.5t76.5 514.5t-76.5 515t-206.5 413l86 58q141 -177 226.5 -430t85.5 -556z" />
    <glyph glyph-name="bracketleft.cap" horiz-adv-x="696" 
d="M201 -152v1876h389v-98h-277v-1679h277v-99h-389z" />
    <glyph glyph-name="bracketright.cap" horiz-adv-x="696" 
d="M496 1724v-1876h-390v99h277v1679h-277v98h390z" />
    <glyph glyph-name="braceleft.cap" horiz-adv-x="768" 
d="M78 735v103h84q77 0 108 42t31 130v440q0 147 59 222t189 75q59 0 108 -18v-91q-46 11 -82 11q-85 0 -123 -47.5t-38 -151.5v-449q0 -178 -131 -213v-4q131 -35 131 -213v-448q0 -104 38 -151.5t123 -47.5q40 0 82 10v-90q-49 -18 -108 -18q-130 0 -189 75t-59 222v440
q0 88 -31 130t-108 42h-84z" />
    <glyph glyph-name="braceright.cap" horiz-adv-x="768" 
d="M688 838v-103h-84q-77 0 -108 -42t-31 -130v-440q0 -147 -59 -222t-189 -75q-59 0 -108 18v90q42 -10 81 -10q86 0 124 47.5t38 151.5v448q0 178 131 213v4q-131 35 -131 213v449q0 104 -38 151.5t-124 47.5q-35 0 -81 -11v91q49 18 108 18q130 0 189 -75t59 -222v-440
q0 -88 31 -130t108 -42h84z" />
    <glyph glyph-name="at.cap" horiz-adv-x="1878" 
d="M940 -55q-192 0 -350 65.5t-262 179t-160.5 266.5t-56.5 328q0 139 35 264.5t105 231t168 183t231.5 120.5t289.5 43q193 0 351 -65.5t261.5 -179.5t160 -266.5t56.5 -328.5q0 -221 -82.5 -329.5t-213.5 -108.5q-91 0 -155.5 53.5t-94.5 159.5h-4q-43 -103 -128 -161
t-198 -58q-172 0 -273.5 126.5t-101.5 315.5q0 123 44.5 223.5t132 161t204.5 60.5q195 0 303 -174h4l8 155h97v-485q0 -144 43.5 -215.5t120.5 -71.5q87 0 138.5 86t51.5 254q0 122 -29 233.5t-88.5 207t-144.5 165.5t-203 110t-258 40q-172 0 -311.5 -60.5t-228 -164
t-136 -238t-47.5 -285.5q0 -119 29 -229.5t88.5 -205t143.5 -164.5t202 -110t256 -40q262 0 440 137l54 -84q-206 -145 -492 -145zM915 436q132 0 209.5 99t77.5 253q0 153 -76.5 250t-207.5 97q-134 0 -209.5 -101t-75.5 -248q0 -148 74.5 -249t207.5 -101z" />
    <glyph glyph-name="zero.slash" horiz-adv-x="1259" 
d="M631 1526q524 0 524 -772q0 -777 -526 -777q-525 0 -525 773q0 776 527 776zM631 1417q-70 0 -127.5 -19t-98.5 -52t-72.5 -82.5t-50.5 -105t-31.5 -124.5t-17 -136.5t-4.5 -145.5q0 -337 93 -494h4l546 1073q-92 86 -241 86zM629 86q97 0 169.5 37t116 97.5t70 149.5
t36 179.5t9.5 202.5q0 338 -92 493h-4l-547 -1073q92 -86 242 -86z" />
    <glyph glyph-name="litre" horiz-adv-x="849" 
d="M104 295l-67 117q123 114 164 157v529q0 209 83 323.5t210 114.5q109 0 173 -85t64 -232q0 -322 -325 -672v-135q0 -154 29 -216.5t95 -62.5q48 0 90 28.5t91 84.5l75 -99q-123 -176 -303 -176q-141 0 -210.5 94t-69.5 252v72q-3 -3 -28.5 -29.5t-42.5 -42.5t-28 -22z
M406 743q83 112 128.5 237t45.5 239q0 77 -20.5 121t-57.5 44q-45 0 -70.5 -67t-25.5 -203v-371z" />
    <glyph glyph-name="ordfeminine001" horiz-adv-x="778" 
d="M315 836q-107 0 -170 58.5t-63 152.5q0 182 270 208q115 11 161 29.5t46 65.5q0 67 -47.5 112t-138.5 45q-133 0 -185 -104l-82 47q38 71 109 108t162 37q132 0 207 -65t75 -178v-502h-98l-2 119h-4q-75 -133 -240 -133zM332 922q100 0 163.5 64.5t63.5 150.5v84
q-42 -32 -180 -47q-98 -10 -146.5 -36.5t-48.5 -88.5q0 -56 41 -91.5t107 -35.5z" />
    <glyph glyph-name="fl001" horiz-adv-x="1236" 
d="M270 0v995h-243v105h243v178q0 155 77 236t222 81q61 0 111 -12v-102q-46 8 -90 8q-109 0 -153 -53t-44 -158v-178h287v-105h-287v-995h-123zM1204 96v-100q-38 -10 -90 -10q-118 0 -174.5 65.5t-56.5 181.5v1340h123v-1327q0 -76 32 -116t109 -40q33 0 57 6z" />
    <glyph glyph-name="blackleftpointingtriangle" horiz-adv-x="1501" 
d="M182 786l1057 611v-1221z" />
    <glyph glyph-name="blackrightpointingtriangle" horiz-adv-x="1501" 
d="M260 1397l1057 -611l-1057 -610v1221z" />
    <glyph glyph-name="whiteleftpointingtriangle" horiz-adv-x="1501" 
d="M182 786l1057 611v-1221zM403 786l721 -415v831z" />
    <glyph glyph-name="whiterightpointingtriangle" horiz-adv-x="1501" 
d="M260 1397l1057 -611l-1057 -610v1221zM375 371l721 415l-721 416v-831z" />
    <glyph glyph-name="Aogonek.alt" horiz-adv-x="1447" 
d="M801 1573l639 -1573q-219 -61 -219 -156q0 -69 129 -69q46 0 84 6v-92q-54 -15 -117 -15q-106 0 -162.5 45.5t-56.5 110.5q0 59 47 113t141 94l-182 457h-764l-197 -494h-135l641 1573h152zM385 606h674l-334 836h-4z" />
    <glyph glyph-name="Ccedilla.alt" horiz-adv-x="1447" 
d="M762 -326q-84 0 -158 19l17 82q63 -17 122 -17q113 0 113 66q0 35 -38 52.5t-128 21.5l31 96q-187 19 -327 128.5t-212.5 282t-72.5 383.5q0 231 85 414t246 288t373 105q183 0 327.5 -81.5t239.5 -227.5l-98 -69q-78 129 -196 198.5t-269 69.5q-136 0 -247 -55
t-183 -150t-110.5 -220t-38.5 -267q0 -143 38.5 -269.5t110.5 -223t184.5 -152.5t251.5 -56q151 0 270 68.5t197 193.5l96 -67q-193 -299 -577 -299l-8 -31q89 -7 132.5 -43t43.5 -94q0 -67 -57 -106.5t-158 -39.5z" />
    <glyph glyph-name="Eogonek.alt" horiz-adv-x="1259" 
d="M182 0v1573h973v-113h-846v-610h746v-113h-746v-624h860v-113q-206 -72 -206 -160q0 -65 124 -65q45 0 82 6v-94q-47 -13 -112 -13q-105 0 -161 44t-56 108q0 44 32 89.5t95 80.5v4h-785z" />
    <glyph glyph-name="Gcommaaccent.alt" horiz-adv-x="1591" 
d="M913 791h531v-791h-121l-4 297h-4q-66 -140 -197.5 -230t-322.5 -90q-128 0 -238.5 41.5t-192 116t-139.5 175.5t-87 222t-29 254q0 169 49 316.5t138.5 257t225.5 172.5t301 63q191 0 340 -83t248 -234l-96 -70q-82 135 -206.5 206t-281.5 71q-265 0 -427 -193
t-162 -508q0 -203 70.5 -361.5t199 -246.5t295.5 -88q225 0 370.5 149.5t145.5 372.5q0 52 -2 70h-404v111zM901 -68l-135 -305h-104l112 305h127z" />
    <glyph glyph-name="Iogonek.alt" horiz-adv-x="491" 
d="M309 1573v-1569q-127 -76 -127 -156q0 -73 123 -73q30 0 76 4v-94q-53 -11 -107 -11q-102 0 -157.5 45.5t-55.5 114.5q0 106 121 195v1544h127z" />
    <glyph glyph-name="Kcommaaccent.alt" horiz-adv-x="1357" 
d="M1165 0l-487 737h-369v-737h-127v1573h127v-723h361l473 723h151l-510 -770l535 -803h-154zM784 -68l-135 -305h-104l112 305h127z" />
    <glyph glyph-name="Kcommaaccent001.alt" horiz-adv-x="1357" 
d="M182 0v1573h127v-844h4l844 844h170l-627 -619l625 -954h-154l-563 864l-299 -295v-569h-127zM784 -68l-135 -305h-104l112 305h127z" />
    <glyph glyph-name="Lcommaaccent.alt" horiz-adv-x="1171" 
d="M182 0v1573h127v-1460h844v-113h-971zM752 -68l-136 -305h-104l113 305h127z" />
    <glyph glyph-name="Ncommaaccent.alt" horiz-adv-x="1591" 
d="M1284 1573h125v-1573h-113l-985 1366h-4v-1366h-125v1573h131l967 -1344h4v1344zM901 -68l-135 -305h-104l112 305h127z" />
    <glyph glyph-name="Rcommaaccent.alt" horiz-adv-x="1402" 
d="M1169 0l-348 690h-512v-690h-127v1573h590q224 0 364 -115t140 -321q0 -156 -88.5 -264t-243.5 -150l369 -723h-144zM309 1460v-657h441q178 0 287.5 87t109.5 243t-106 241.5t-283 85.5h-449zM791 -68l-136 -305h-104l113 305h127z" />
    <glyph glyph-name="Scedilla.alt" 
d="M614 -326q-83 0 -157 19l16 82q63 -17 123 -17q113 0 113 66q0 35 -38 52.5t-128 21.5l28 92q-309 9 -499 223l86 84q100 -102 208.5 -153.5t260.5 -51.5q210 0 320 90t110 240q0 60 -23 106.5t-54 75.5t-96.5 55.5t-115.5 40.5t-145 37q-59 14 -99.5 24.5t-93 27t-88 34
t-75.5 41.5t-65.5 53t-47.5 64.5t-32.5 81t-10.5 98.5q0 195 143 314.5t389 119.5q318 0 520 -233l-92 -82q-93 108 -195 156.5t-233 48.5q-189 0 -296 -89t-107 -229q0 -34 7 -63t18 -52t32.5 -44t40.5 -36.5t52.5 -31t59 -25.5t69.5 -22.5t74 -20.5t81 -20
q54 -13 89.5 -22.5t83.5 -24.5t80 -28.5t71 -33.5t64 -41.5t51 -50.5t40.5 -61.5t23.5 -74t9 -89.5q0 -193 -137.5 -312.5t-386.5 -125.5l-9 -31q89 -7 132.5 -43t43.5 -94q0 -67 -57 -106.5t-158 -39.5z" />
    <glyph glyph-name="Scommaaccent.alt" 
d="M627 -23q-348 0 -555 232l86 84q100 -102 208.5 -153.5t260.5 -51.5q210 0 320 90t110 240q0 39 -7.5 71t-25.5 58.5t-36.5 46.5t-53 38t-61.5 30.5t-75.5 27t-82 23t-92.5 22.5t-99.5 24.5t-93 27t-88 34t-75.5 41.5t-65.5 53t-47.5 64.5t-32.5 81t-10.5 98.5
q0 196 143 316t389 120q318 0 520 -233l-92 -82q-93 108 -195 156.5t-233 48.5q-189 0 -296 -89t-107 -229q0 -34 7.5 -63.5t18 -52.5t32 -44t40.5 -36t53 -30.5t58.5 -25.5t69.5 -22.5t73.5 -20t81.5 -20.5t89 -22.5t84 -24.5t80.5 -29t71 -34t63.5 -41.5t50.5 -50.5
t40.5 -62t24 -74.5t9 -89.5q0 -201 -147.5 -324t-411.5 -123zM731 -68l-135 -305h-104l112 305h127z" />
    <glyph glyph-name="Tcommaaccent.alt" horiz-adv-x="1331" 
d="M729 0h-20l-13 -43q89 -7 132.5 -43.5t43.5 -93.5q0 -67 -57 -106.5t-158 -39.5q-83 0 -157 19l16 82q63 -17 123 -17q113 0 113 66q0 35 -38 52.5t-128 21.5l32 102h-16v1460h-577v113h1282v-113h-578v-1460z" />
    <glyph glyph-name="uni021A.alt" horiz-adv-x="1331" 
d="M729 0h-127v1460h-577v113h1282v-113h-578v-1460zM758 -68l-135 -305h-105l113 305h127z" />
    <glyph glyph-name="Uogonek.alt" horiz-adv-x="1562" 
d="M1262 1573h124v-1016q0 -214 -102 -355.5t-295 -201.5q-227 -71 -227 -158q0 -67 129 -67q45 0 86 6v-94q-47 -13 -121 -13q-108 0 -163.5 41.5t-55.5 104.5q0 88 113 155v5q-262 11 -418 163t-156 414v1016h127v-1010q0 -215 127.5 -345t351.5 -130q228 0 354 128.5
t126 346.5v1010z" />
    <glyph glyph-name="Eng.alt" horiz-adv-x="1591" 
d="M1284 1573h125v-1563q0 -154 -83 -245t-239 -91q-108 0 -184 39l37 99q72 -33 141 -33q101 0 152 64t51 173l-973 1350h-4v-1366h-125v1573h131l967 -1344h4v1344z" />
    <glyph glyph-name="g.alt" horiz-adv-x="1269" 
d="M1094 1100v-930q0 -245 -140 -370.5t-376 -125.5q-216 0 -390 109l60 102q151 -104 338 -104q84 0 151.5 21t121 66t83 123t29.5 185v103h-4q-61 -113 -165 -177.5t-233 -64.5q-144 0 -252 72.5t-163.5 193t-55.5 270.5q0 111 33.5 210.5t94.5 174.5t153 119.5t203 44.5
q132 0 230.5 -61.5t158.5 -167.5h4l4 207h115zM598 143q174 0 275.5 125.5t101.5 313.5t-101 310t-276 122t-276 -125t-101 -311q0 -119 41.5 -216t128.5 -158t207 -61z" />
    <glyph glyph-name="j.alt" horiz-adv-x="475" 
d="M162 1423v150h151v-150h-151zM-41 -315v100q35 -6 66 -6q151 0 151 172v1149h123v-1147q0 -131 -61.5 -205t-190.5 -74q-46 0 -88 11z" />
    <glyph glyph-name="p.alt" 
d="M696 -23q-259 0 -393 234h-4v-514h-123v1403h119l2 -221h4q64 115 171 179t233 64q147 0 258 -77.5t167 -206t56 -287.5q0 -155 -57.5 -284.5t-170.5 -209.5t-262 -80zM676 86q120 0 209.5 63t133.5 166t44 232q0 95 -25 178.5t-72 148.5t-121.5 102.5t-166.5 37.5
q-121 0 -209.5 -65.5t-131 -170t-42.5 -233.5q0 -130 43 -232.5t131 -164.5t207 -62z" />
    <glyph glyph-name="q.alt" 
d="M590 1122q254 0 397 -231h4l4 209h115v-1403h-123v522h-4q-63 -113 -167.5 -177.5t-233.5 -64.5q-148 0 -259 77.5t-167 205t-56 283.5q0 160 58 290.5t171 209.5t261 79zM608 1014q-121 0 -210 -65t-132 -169.5t-43 -232.5q0 -127 42 -229.5t130 -167t209 -64.5
q180 0 283.5 131t103.5 332q0 203 -103 334t-280 131z" />
    <glyph glyph-name="y.alt" horiz-adv-x="1081" 
d="M920 1100h129l-457 -1135q-62 -156 -136.5 -223.5t-191.5 -67.5q-67 0 -133 25v102q59 -22 117 -22q80 0 131.5 49t99.5 166l-446 1106h133l377 -955h4z" />
    <glyph glyph-name="aogonek.alt" horiz-adv-x="1126" 
d="M852 -326q-99 0 -153 44t-54 110q0 129 191 219l-2 150h-5q-118 -220 -366 -220q-159 0 -250.5 87t-91.5 227q0 243 282 301q137 29 431 39v143q0 96 -75.5 169t-217.5 73q-121 0 -192.5 -53.5t-98.5 -141.5l-109 41q39 122 144 191t260 69q193 0 301 -96.5t108 -261.5
v-760q-192 -70 -192 -162q0 -67 121 -67q31 0 71 4v-94q-53 -11 -102 -11zM479 84q151 0 253 108t102 244v94q-198 -4 -359 -32q-118 -21 -174.5 -66.5t-56.5 -134.5q0 -97 64 -155t171 -58z" />
    <glyph glyph-name="aogonek001.alt" horiz-adv-x="1126" 
d="M852 -326q-99 0 -153 44t-54 110q0 129 191 219l-2 150h-5q-124 -220 -366 -220q-159 0 -250.5 87t-91.5 225q0 154 119 233q54 35 121.5 51.5t189.5 32.5q162 21 222.5 54t60.5 114q0 96 -75.5 169t-217.5 73q-121 0 -192.5 -53.5t-98.5 -141.5l-109 41q39 122 144 191
t260 69q193 0 301 -96.5t108 -261.5v-760q-192 -70 -192 -162q0 -67 121 -67q31 0 71 4v-94q-53 -11 -102 -11zM477 84q103 0 186 51.5t127 131t44 167.5v152q-65 -62 -287 -86q-154 -16 -228.5 -61.5t-74.5 -147.5q0 -90 64 -148.5t169 -58.5z" />
    <glyph glyph-name="ccedilla.alt" horiz-adv-x="1099" 
d="M553 -326q-84 0 -158 19l17 82q63 -17 123 -17q112 0 112 66q0 35 -38 52.5t-128 21.5l33 98q-194 30 -306 183.5t-112 373.5q0 160 60 288t177.5 204.5t272.5 76.5q149 0 259 -70t173 -190l-104 -57q-49 99 -132.5 155t-195.5 56q-121 0 -210 -62t-133 -166t-44 -235
q0 -199 104.5 -331t284.5 -132q112 0 196.5 55t133.5 152l102 -57q-132 -252 -438 -252l-10 -31q89 -7 132.5 -43t43.5 -94q0 -67 -57 -106.5t-158 -39.5z" />
    <glyph glyph-name="eogonek.alt" horiz-adv-x="1171" 
d="M860 -326q-103 0 -157 47t-54 117q0 73 70 146v4q-40 -8 -86 -8q-245 0 -389 160.5t-144 416.5q0 160 58.5 287.5t172.5 202.5t265 75q219 0 348 -149.5t129 -382.5q0 -56 -6 -90h-842q18 -184 126.5 -299t285.5 -115q196 0 309 145l90 -77q-43 -43 -96 -80
q-81 -55 -125.5 -112t-44.5 -105q0 -82 125 -82q47 0 84 6v-92q-54 -15 -119 -15zM225 606h727q-6 181 -100.5 295.5t-255.5 114.5q-163 0 -261.5 -113t-109.5 -297z" />
    <glyph glyph-name="gcircumflex.alt" horiz-adv-x="1269" 
d="M1094 1100v-930q0 -245 -140 -370.5t-376 -125.5q-216 0 -390 109l60 102q151 -104 338 -104q84 0 151.5 21t121 66t83 123t29.5 185v103h-4q-61 -113 -165 -177.5t-233 -64.5q-144 0 -252 72.5t-163.5 193t-55.5 270.5q0 111 33.5 210.5t94.5 174.5t153 119.5t203 44.5
q132 0 230.5 -61.5t158.5 -167.5h4l4 207h115zM598 143q174 0 275.5 125.5t101.5 313.5t-101 310t-276 122t-276 -125t-101 -311q0 -119 41.5 -216t128.5 -158t207 -61zM332 1241l227 332h127l227 -332h-122l-168 252l-170 -252h-121z" />
    <glyph glyph-name="gbreve.alt" horiz-adv-x="1269" 
d="M1094 1100v-930q0 -245 -140 -370.5t-376 -125.5q-216 0 -390 109l60 102q151 -104 338 -104q84 0 151.5 21t121 66t83 123t29.5 185v103h-4q-61 -113 -165 -177.5t-233 -64.5q-144 0 -252 72.5t-163.5 193t-55.5 270.5q0 111 33.5 210.5t94.5 174.5t153 119.5t203 44.5
q132 0 230.5 -61.5t158.5 -167.5h4l4 207h115zM598 143q174 0 275.5 125.5t101.5 313.5t-101 310t-276 122t-276 -125t-101 -311q0 -119 41.5 -216t128.5 -158t207 -61zM623 1337q92 0 141 59.5t59 155.5h90q-8 -134 -82 -216.5t-208 -82.5t-208.5 83t-82.5 216h90
q10 -96 59.5 -155.5t141.5 -59.5z" />
    <glyph glyph-name="gdotaccent.alt" horiz-adv-x="1269" 
d="M1094 1100v-930q0 -245 -140 -370.5t-376 -125.5q-216 0 -390 109l60 102q151 -104 338 -104q84 0 151.5 21t121 66t83 123t29.5 185v103h-4q-61 -113 -165 -177.5t-233 -64.5q-144 0 -252 72.5t-163.5 193t-55.5 270.5q0 111 33.5 210.5t94.5 174.5t153 119.5t203 44.5
q132 0 230.5 -61.5t158.5 -167.5h4l4 207h115zM598 143q174 0 275.5 125.5t101.5 313.5t-101 310t-276 122t-276 -125t-101 -311q0 -119 41.5 -216t128.5 -158t207 -61zM549 1333v148h147v-148h-147z" />
    <glyph glyph-name="gcommaaccent.alt" horiz-adv-x="1269" 
d="M1094 1100v-930q0 -245 -140 -370.5t-376 -125.5q-216 0 -390 109l60 102q151 -104 338 -104q84 0 151.5 21t121 66t83 123t29.5 185v103h-4q-61 -113 -165 -177.5t-233 -64.5q-144 0 -252 72.5t-163.5 193t-55.5 270.5q0 111 33.5 210.5t94.5 174.5t153 119.5t203 44.5
q132 0 230.5 -61.5t158.5 -167.5h4l4 207h115zM598 143q174 0 275.5 125.5t101.5 313.5t-101 310t-276 122t-276 -125t-101 -311q0 -119 41.5 -216t128.5 -158t207 -61zM502 1225l143 362h100l-118 -362h-125z" />
    <glyph glyph-name="iogonek.alt" horiz-adv-x="475" 
d="M162 1423v150h151v-150h-151zM299 1100v-1096q-127 -76 -127 -156q0 -73 123 -73q30 0 76 4v-94q-53 -11 -107 -11q-102 0 -156.5 45.5t-54.5 114.5q0 109 123 197v1069h123z" />
    <glyph glyph-name="dotlessj.alt" horiz-adv-x="475" 
d="M-41 -315v100q35 -6 66 -6q151 0 151 172v1149h123v-1147q0 -131 -61.5 -205t-190.5 -74q-46 0 -88 11z" />
    <glyph glyph-name="jcircumflex.alt" horiz-adv-x="475" 
d="M-41 -315v100q35 -6 66 -6q151 0 151 172v1149h123v-1147q0 -131 -61.5 -205t-190.5 -74q-46 0 -88 11zM-53 1241l227 332h127l227 -332h-122l-168 252l-170 -252h-121z" />
    <glyph glyph-name="ij.alt" horiz-adv-x="956" 
d="M162 1423v150h151v-150h-151zM299 0h-123v1100h123v-1100zM643 1423v150h152v-150h-152zM440 -315v100q34 -6 66 -6q151 0 151 172v1149h123v-1147q0 -131 -61.5 -205t-190.5 -74q-46 0 -88 11z" />
    <glyph glyph-name="kcommaaccent.alt" horiz-adv-x="1071" 
d="M887 0l-367 520h-221v-520h-123v1573h123v-948h229l342 475h146l-387 -527l407 -573h-149zM684 -68l-135 -305h-105l113 305h127z" />
    <glyph glyph-name="kcommaaccent001.alt" horiz-adv-x="1071" 
d="M1040 1100l-438 -422l430 -678h-151l-375 588l-207 -203v-385h-123v1573h123v-1032h4l571 559h166zM684 -68l-135 -305h-105l113 305h127z" />
    <glyph glyph-name="lcommaaccent.alt" horiz-adv-x="475" 
d="M299 0h-123v1573h123v-1573zM358 -68l-135 -305h-104l112 305h127z" />
    <glyph glyph-name="lcommaaccent001.alt" horiz-adv-x="563" 
d="M498 96v-100q-38 -10 -90 -10q-118 0 -175 65.5t-57 181.5v1340h123v-1327q0 -76 32 -116t109 -40q34 0 58 6zM436 -68l-135 -305h-104l112 305h127z" />
    <glyph glyph-name="ncommaaccent.alt" horiz-adv-x="1243" 
d="M176 0v1100h119l2 -205h4q119 227 379 227q181 0 286 -110.5t105 -288.5v-723h-123v696q0 139 -75 229.5t-220 90.5q-155 0 -254.5 -107.5t-99.5 -287.5v-621h-123zM733 -68l-135 -305h-104l112 305h127z" />
    <glyph glyph-name="rcommaaccent.alt" horiz-adv-x="751" 
d="M176 0v1100h119l2 -205h2q48 109 127 168t182 59q60 0 107 -18v-121q-58 21 -115 21q-133 0 -217 -104.5t-84 -250.5v-649h-123zM381 -68l-135 -305h-105l113 305h127z" />
    <glyph glyph-name="scedilla.alt" horiz-adv-x="1028" 
d="M504 -326q-84 0 -158 19l16 82q63 -17 123 -17q113 0 113 66q0 35 -38 52.5t-128 21.5l31 92q-239 9 -393 143l77 90q142 -133 359 -133q150 0 229.5 57t79.5 150q0 27 -8.5 49.5t-20.5 39.5t-37 32t-46 24.5t-60 21t-66.5 18.5t-78.5 18q-73 16 -120.5 29t-103.5 38
t-88.5 55t-54.5 77t-22 108q0 141 110 228t301 87q245 0 404 -155l-82 -88q-143 137 -324 137q-136 0 -211.5 -56.5t-75.5 -144.5q0 -38 15 -66.5t40 -47.5t66 -34.5t84 -26.5t105 -25q4 -1 6 -1q61 -14 102.5 -25.5t91 -29.5t81.5 -40t60.5 -52t42 -71t13.5 -91
q0 -136 -102 -222.5t-283 -92.5l-10 -33q89 -7 132.5 -43t43.5 -94q0 -67 -57 -106.5t-158 -39.5z" />
    <glyph glyph-name="scommaaccent.alt" horiz-adv-x="1028" 
d="M508 -23q-266 0 -438 150l77 90q142 -133 359 -133q150 0 229.5 57.5t79.5 151.5q0 28 -8.5 50.5t-20.5 39.5t-37 32.5t-46 25t-60 21t-66.5 18.5t-78.5 18q-73 16 -120.5 29t-103.5 38t-88.5 55t-54.5 77t-22 108q0 142 109.5 229.5t301.5 87.5q245 0 404 -155l-82 -88
q-143 137 -324 137q-137 0 -212 -56.5t-75 -146.5q0 -38 15 -66.5t40 -47.5t66 -34.5t84 -26.5t105 -25q4 -1 6 -1q74 -17 122 -30.5t104.5 -39t88.5 -55.5t54 -77.5t22 -108.5q0 -145 -115 -234.5t-315 -89.5zM614 -68l-135 -305h-104l112 305h127z" />
    <glyph glyph-name="tcommaaccent.alt" horiz-adv-x="706" 
d="M666 995h-287v-684q0 -108 50.5 -161.5t166.5 -53.5q43 0 70 2v-96q-52 -12 -117 -12q-50 0 -86 8l-12 -41q89 -7 132.5 -43.5t43.5 -93.5q0 -67 -57 -106.5t-158 -39.5q-84 0 -158 19l16 82q63 -17 123 -17q113 0 113 66q0 35 -38 52.5t-128 21.5l41 129
q-125 69 -125 258v710h-244v105h244v348h123v-348h287v-105z" />
    <glyph glyph-name="uni021B.alt" horiz-adv-x="706" 
d="M12 995v105h244v348h123v-348h287v-105h-287v-702q0 -100 49 -151.5t160 -51.5q38 0 78 6v-100q-52 -12 -117 -12q-149 0 -221 73.5t-72 221.5v716h-244zM518 -68l-135 -305h-104l112 305h127z" />
    <glyph glyph-name="uogonek.alt" horiz-adv-x="1243" 
d="M1067 1100v-1098q-193 -70 -193 -160q0 -67 121 -67q32 0 72 4v-94q-53 -11 -102 -11q-99 0 -153 44t-54 110q0 127 188 217l-2 160h-4q-56 -110 -152.5 -169t-226.5 -59q-180 0 -284.5 110.5t-104.5 287.5v725h123v-697q0 -139 75 -229t220 -90q155 0 254.5 107.5
t99.5 287.5v621h123z" />
    <glyph glyph-name="ygrave.alt" horiz-adv-x="1081" 
d="M920 1100h129l-457 -1135q-62 -156 -136.5 -223.5t-191.5 -67.5q-67 0 -133 25v102q59 -22 117 -22q80 0 131.5 49t99.5 166l-446 1106h133l377 -955h4zM532 1241l-221 332h138l196 -332h-113z" />
    <glyph glyph-name="yacute.alt" horiz-adv-x="1081" 
d="M920 1100h129l-457 -1135q-62 -156 -136.5 -223.5t-191.5 -67.5q-67 0 -133 25v102q59 -22 117 -22q80 0 131.5 49t99.5 166l-446 1106h133l377 -955h4zM795 1573l-222 -332h-110l196 332h136z" />
    <glyph glyph-name="ycircumflex.alt" horiz-adv-x="1081" 
d="M920 1100h129l-457 -1135q-62 -156 -136.5 -223.5t-191.5 -67.5q-67 0 -133 25v102q59 -22 117 -22q80 0 131.5 49t99.5 166l-446 1106h133l377 -955h4zM262 1241l227 332h127l228 -332h-123l-168 252l-170 -252h-121z" />
    <glyph glyph-name="ydieresis.alt" horiz-adv-x="1081" 
d="M920 1100h129l-457 -1135q-62 -156 -136.5 -223.5t-191.5 -67.5q-67 0 -133 25v102q59 -22 117 -22q80 0 131.5 49t99.5 166l-446 1106h133l377 -955h4zM686 1333v148h145v-148h-145zM274 1333v148h146v-148h-146z" />
    <glyph glyph-name="eng.alt" horiz-adv-x="1243" 
d="M176 0v1100h119l2 -205h4q119 227 379 227q181 0 286 -110.5t105 -288.5v-770q0 -129 -61 -204t-187 -75q-50 0 -92 11v98q28 -4 51 -4q88 0 127 48.5t39 139.5v729q0 139 -75 229.5t-220 90.5q-155 0 -254.5 -107.5t-99.5 -287.5v-621h-123z" />
    <glyph glyph-name="thorn.alt" 
d="M696 -23q-259 0 -393 234h-4v-514h-123v1876h123v-694h4q65 117 171 180t233 63q146 0 256.5 -78t166.5 -206t56 -285q0 -156 -57.5 -286t-170.5 -210t-262 -80zM676 86q120 0 209.5 63t133.5 166t44 232q0 95 -25 178.5t-72 148.5t-121.5 102.5t-166.5 37.5
q-122 0 -211 -66.5t-130.5 -171t-41.5 -231.5q0 -130 43 -232.5t131 -164.5t207 -62z" />
    <glyph glyph-name="exclamdown.alt" horiz-adv-x="608" 
d="M383 1270v-160h-160v160h160zM356 872l13 -1175h-131l12 1175h106z" />
    <glyph glyph-name="questiondown.alt" horiz-adv-x="866" 
d="M567 1270v-160h-159v160h159zM287 477q61 54 89 88t43 81t15 118v108h107v-141q0 -51 -8.5 -92.5t-20.5 -70t-40 -61.5t-50.5 -54t-67.5 -60q-64 -56 -102.5 -100.5t-64 -105.5t-25.5 -132q0 -128 73.5 -201t202.5 -73q153 0 273 117l71 -82q-64 -64 -154.5 -103
t-197.5 -39q-174 0 -282.5 102.5t-108.5 280.5q0 57 13.5 107.5t31.5 86.5t56 80.5t65.5 70.5t81.5 75z" />
    <glyph glyph-name="commaaccent.alt001" 
d="M750 -68l-136 -305h-104l113 305h127z" />
    <glyph glyph-name="cedilla.alt" 
d="M690 49l-28 -92q89 -7 132.5 -43.5t43.5 -93.5q0 -67 -57 -106.5t-158 -39.5q-84 0 -158 19l16 82q63 -17 123 -17q113 0 113 66q0 35 -38 52.5t-128 21.5l49 151h90z" />
    <glyph glyph-name="ogonek.alt" 
d="M717 39h106v-39q-219 -82 -219 -160q0 -65 129 -65q54 0 90 8v-94q-58 -15 -125 -15q-107 0 -162 40.5t-55 103.5q0 64 61 122t175 99z" />
    <glyph glyph-name="a002" horiz-adv-x="1269" 
d="M571 -23q-144 0 -252.5 77.5t-163.5 204.5t-55 282q0 160 57 291.5t168 210.5t255 79q252 0 391 -233h4l4 211h115v-1100h-121l-2 219h-4q-62 -114 -164.5 -178t-231.5 -64zM596 86q176 0 277.5 130.5t101.5 332.5q0 204 -101 334.5t-274 130.5q-119 0 -206 -65.5
t-129 -169.5t-42 -232q0 -127 41.5 -229.5t127.5 -167t204 -64.5z" />
    <glyph glyph-name="agrave002" horiz-adv-x="1269" 
d="M571 -23q-144 0 -252.5 77.5t-163.5 204.5t-55 282q0 160 57 291.5t168 210.5t255 79q252 0 391 -233h4l4 211h115v-1100h-121l-2 219h-4q-62 -114 -164.5 -178t-231.5 -64zM596 86q176 0 277.5 130.5t101.5 332.5q0 204 -101 334.5t-274 130.5q-119 0 -206 -65.5
t-129 -169.5t-42 -232q0 -127 41.5 -229.5t127.5 -167t204 -64.5zM590 1241l-221 332h137l196 -332h-112z" />
    <glyph glyph-name="aacute002" horiz-adv-x="1269" 
d="M852 1573l-221 -332h-111l197 332h135zM571 -23q-144 0 -252.5 77.5t-163.5 204.5t-55 282q0 160 57 291.5t168 210.5t255 79q252 0 391 -233h4l4 211h115v-1100h-121l-2 219h-4q-62 -114 -164.5 -178t-231.5 -64zM596 86q176 0 277.5 130.5t101.5 332.5
q0 204 -101 334.5t-274 130.5q-119 0 -206 -65.5t-129 -169.5t-42 -232q0 -127 41.5 -229.5t127.5 -167t204 -64.5z" />
    <glyph glyph-name="acircumflex002" horiz-adv-x="1269" 
d="M319 1241l228 332h127l227 -332h-123l-168 252l-170 -252h-121zM571 -23q-144 0 -252.5 77.5t-163.5 204.5t-55 282q0 160 57 291.5t168 210.5t255 79q252 0 391 -233h4l4 211h115v-1100h-121l-2 219h-4q-62 -114 -164.5 -178t-231.5 -64zM596 86q176 0 277.5 130.5
t101.5 332.5q0 204 -101 334.5t-274 130.5q-119 0 -206 -65.5t-129 -169.5t-42 -232q0 -127 41.5 -229.5t127.5 -167t204 -64.5z" />
    <glyph glyph-name="atilde002" horiz-adv-x="1269" 
d="M453 1518q45 0 90 -19.5t75.5 -43t69.5 -43t74 -19.5q44 0 70 27t32 96h84q-16 -220 -180 -220q-45 0 -90 19.5t-75.5 43t-69.5 43t-74 19.5q-44 0 -70.5 -27t-32.5 -96h-84q16 220 181 220zM571 -23q-144 0 -252.5 77.5t-163.5 204.5t-55 282q0 160 57 291.5t168 210.5
t255 79q252 0 391 -233h4l4 211h115v-1100h-121l-2 219h-4q-62 -114 -164.5 -178t-231.5 -64zM596 86q176 0 277.5 130.5t101.5 332.5q0 204 -101 334.5t-274 130.5q-119 0 -206 -65.5t-129 -169.5t-42 -232q0 -127 41.5 -229.5t127.5 -167t204 -64.5z" />
    <glyph glyph-name="adieresis002" horiz-adv-x="1269" 
d="M743 1333v148h146v-148h-146zM332 1333v148h145v-148h-145zM571 -23q-144 0 -252.5 77.5t-163.5 204.5t-55 282q0 160 57 291.5t168 210.5t255 79q252 0 391 -233h4l4 211h115v-1100h-121l-2 219h-4q-62 -114 -164.5 -178t-231.5 -64zM596 86q176 0 277.5 130.5
t101.5 332.5q0 204 -101 334.5t-274 130.5q-119 0 -206 -65.5t-129 -169.5t-42 -232q0 -127 41.5 -229.5t127.5 -167t204 -64.5z" />
    <glyph glyph-name="amacron002" horiz-adv-x="1269" 
d="M342 1358v98h535v-98h-535zM571 -23q-144 0 -252.5 77.5t-163.5 204.5t-55 282q0 160 57 291.5t168 210.5t255 79q252 0 391 -233h4l4 211h115v-1100h-121l-2 219h-4q-62 -114 -164.5 -178t-231.5 -64zM596 86q176 0 277.5 130.5t101.5 332.5q0 204 -101 334.5
t-274 130.5q-119 0 -206 -65.5t-129 -169.5t-42 -232q0 -127 41.5 -229.5t127.5 -167t204 -64.5z" />
    <glyph glyph-name="abreve002" horiz-adv-x="1269" 
d="M610 1337q92 0 141.5 59.5t59.5 155.5h90q-8 -134 -82.5 -216.5t-208.5 -82.5t-208.5 83t-82.5 216h91q10 -96 59 -155.5t141 -59.5zM571 -23q-144 0 -252.5 77.5t-163.5 204.5t-55 282q0 160 57 291.5t168 210.5t255 79q252 0 391 -233h4l4 211h115v-1100h-121l-2 219
h-4q-62 -114 -164.5 -178t-231.5 -64zM596 86q176 0 277.5 130.5t101.5 332.5q0 204 -101 334.5t-274 130.5q-119 0 -206 -65.5t-129 -169.5t-42 -232q0 -127 41.5 -229.5t127.5 -167t204 -64.5z" />
    <glyph glyph-name="aring002" horiz-adv-x="1269" 
d="M381 1454q0 96 65.5 161.5t163.5 65.5t164 -65.5t66 -161.5t-66 -161.5t-164 -65.5t-163.5 65.5t-65.5 161.5zM463 1454q0 -63 41 -107t106 -44q66 0 107 44t41 107t-41 107.5t-107 44.5q-65 0 -106 -44.5t-41 -107.5zM571 -23q-144 0 -252.5 77.5t-163.5 204.5t-55 282
q0 160 57 291.5t168 210.5t255 79q252 0 391 -233h4l4 211h115v-1100h-121l-2 219h-4q-62 -114 -164.5 -178t-231.5 -64zM596 86q176 0 277.5 130.5t101.5 332.5q0 204 -101 334.5t-274 130.5q-119 0 -206 -65.5t-129 -169.5t-42 -232q0 -127 41.5 -229.5t127.5 -167
t204 -64.5z" />
    <glyph glyph-name="aogonek002" horiz-adv-x="1269" 
d="M973 -397q-104 0 -160.5 47t-56.5 117q0 140 219 266l-4 186h-4q-62 -114 -164.5 -178t-231.5 -64q-144 0 -252.5 77.5t-163.5 204.5t-55 282q0 160 57 291.5t168 210.5t255 79q252 0 391 -233h4l4 211h115v-1100q-217 -106 -217 -213q0 -84 127 -84q54 0 90 8v-94
q-54 -14 -121 -14zM596 86q176 0 277.5 130.5t101.5 332.5q0 204 -101 334.5t-274 130.5q-119 0 -206 -65.5t-129 -169.5t-42 -232q0 -127 41.5 -229.5t127.5 -167t204 -64.5z" />
    <glyph glyph-name="aogonek002.alt" horiz-adv-x="1269" 
d="M991 -326q-99 0 -153 44t-54 110q0 129 191 219l-4 172h-4q-62 -114 -164.5 -178t-231.5 -64q-144 0 -252.5 77.5t-163.5 204.5t-55 282q0 160 57 291.5t168 210.5t255 79q252 0 391 -233h4l4 211h115v-1096q-193 -70 -193 -162q0 -67 121 -67q32 0 72 4v-94
q-53 -11 -103 -11zM596 86q176 0 277.5 130.5t101.5 332.5q0 204 -101 334.5t-274 130.5q-119 0 -206 -65.5t-129 -169.5t-42 -232q0 -127 41.5 -229.5t127.5 -167t204 -64.5z" />
    </font>
</defs>
</svg>
